<?xml version="1.0" encoding="UTF-8"?>
<svg version="1.1" xmlns="http://www.w3.org/2000/svg" width="200" height="200">
<path d="M0 0 C66 0 132 0 200 0 C200 66 200 132 200 200 C134 200 68 200 0 200 C0 134 0 68 0 0 Z " fill="#1B5473" transform="translate(0,0)"/>
<path d="M0 0 C0.85795166 -0.00185303 1.71590332 -0.00370605 2.59985352 -0.00561523 C3.98515259 0.00103149 3.98515259 0.00103149 5.3984375 0.0078125 C6.35484131 0.009021 7.31124512 0.01022949 8.29663086 0.01147461 C13.671613 0.04070358 18.97691334 0.24727248 24.3359375 0.6953125 C34.30963479 1.43486575 44.25546811 0.82399119 54.234375 0.38671875 C59.75175215 0.14924775 65.25166218 0.06889941 70.7734375 0.1328125 C70.7734375 0.7928125 70.7734375 1.4528125 70.7734375 2.1328125 C71.918125 1.606875 71.918125 1.606875 73.0859375 1.0703125 C78.14099011 -0.21487037 82.6498832 0.45818079 87.7734375 1.1328125 C87.7734375 1.7928125 87.7734375 2.4528125 87.7734375 3.1328125 C89.0934375 2.8028125 90.4134375 2.4728125 91.7734375 2.1328125 C91.4434375 4.4428125 91.1134375 6.7528125 90.7734375 9.1328125 C90.1134375 9.1328125 89.4534375 9.1328125 88.7734375 9.1328125 C88.53369503 15.00650299 89.49161619 19.78035678 91.5859375 25.2578125 C91.8765417 28.1638545 90.38542304 29.81155333 88.7734375 32.1328125 C86.01067573 31.61012784 83.4473499 31.02411663 80.7734375 30.1328125 C79.8453125 30.4628125 78.9171875 30.7928125 77.9609375 31.1328125 C74.34203318 32.26815503 72.44634673 31.82148298 68.7734375 31.1328125 C66.76707279 31.42540735 64.76629687 31.75915137 62.7734375 32.1328125 C60.7934375 32.1328125 58.8134375 32.1328125 56.7734375 32.1328125 C56.1134375 37.4128125 55.4534375 42.6928125 54.7734375 48.1328125 C56.2584375 48.6278125 56.2584375 48.6278125 57.7734375 49.1328125 C57.8984375 51.5078125 57.8984375 51.5078125 57.7734375 54.1328125 C56.7834375 55.1228125 56.7834375 55.1228125 55.7734375 56.1328125 C55.46744687 58.70197907 55.26256663 61.18039634 55.1484375 63.7578125 C55.10976562 64.46421875 55.07109375 65.170625 55.03125 65.8984375 C54.93696026 67.64279774 54.85410859 69.38776941 54.7734375 71.1328125 C56.7534375 71.6278125 56.7534375 71.6278125 58.7734375 72.1328125 C58.2784375 72.5246875 57.7834375 72.9165625 57.2734375 73.3203125 C55.31750607 75.68372965 55.53135777 77.14716253 55.7734375 80.1328125 C56.4334375 80.1328125 57.0934375 80.1328125 57.7734375 80.1328125 C57.7734375 82.4428125 57.7734375 84.7528125 57.7734375 87.1328125 C56.7834375 87.6278125 56.7834375 87.6278125 55.7734375 88.1328125 C55.71933614 91.19555081 55.67971525 94.25732702 55.6484375 97.3203125 C55.62330078 98.61678711 55.62330078 98.61678711 55.59765625 99.93945312 C55.56305517 104.45489353 55.61775834 108.03362733 57.7734375 112.1328125 C57.1134375 112.7928125 56.4534375 113.4528125 55.7734375 114.1328125 C55.93786027 117.20272931 55.93786027 117.20272931 56.7734375 120.1328125 C57.4334375 120.4628125 58.0934375 120.7928125 58.7734375 121.1328125 C58.7734375 121.7928125 58.7734375 122.4528125 58.7734375 123.1328125 C58.1134375 123.1328125 57.4534375 123.1328125 56.7734375 123.1328125 C57.1034375 124.7828125 57.4334375 126.4328125 57.7734375 128.1328125 C57.40718262 127.6469165 57.04092773 127.16102051 56.66357422 126.66040039 C53.96842772 124.48221237 51.96608472 124.73246691 48.53125 124.69140625 C47.30019531 124.66498047 46.06914063 124.63855469 44.80078125 124.61132812 C43.51300781 124.59779297 42.22523437 124.58425781 40.8984375 124.5703125 C38.35924609 124.53579177 35.82014905 124.4931393 33.28125 124.44140625 C31.58959717 124.42291626 31.58959717 124.42291626 29.86376953 124.40405273 C26.78186571 124.13355225 24.55980732 123.43825308 21.7734375 122.1328125 C21.71285156 121.39675781 21.65226562 120.66070312 21.58984375 119.90234375 C21.50605469 118.92652344 21.42226562 117.95070313 21.3359375 116.9453125 C21.25472656 115.98238281 21.17351562 115.01945312 21.08984375 114.02734375 C20.79677599 111.34631648 20.34639996 108.7665139 19.7734375 106.1328125 C20.7634375 105.6378125 20.7634375 105.6378125 21.7734375 105.1328125 C21.68964844 103.98425781 21.60585937 102.83570313 21.51953125 101.65234375 C20.89106357 92.33493329 20.70527637 83.43403094 21.7734375 74.1328125 C22.1034375 75.4528125 22.4334375 76.7728125 22.7734375 78.1328125 C23.4334375 78.1328125 24.0934375 78.1328125 24.7734375 78.1328125 C24.7734375 76.1528125 24.7734375 74.1728125 24.7734375 72.1328125 C23.7834375 72.1328125 22.7934375 72.1328125 21.7734375 72.1328125 C21.60361723 67.91965254 21.44333709 63.70626058 21.29125977 59.49243164 C21.23843633 58.063951 21.18316757 56.63555832 21.12524414 55.20727539 C20.78516087 46.77616741 20.70343093 38.52884944 21.7734375 30.1328125 C20.8865625 30.2771875 19.9996875 30.4215625 19.0859375 30.5703125 C13.34750169 31.40025156 7.55389474 31.72426891 1.7734375 32.1328125 C1.7734375 31.4728125 1.7734375 30.8128125 1.7734375 30.1328125 C0.7834375 30.4628125 -0.2065625 30.7928125 -1.2265625 31.1328125 C-3.9140625 30.1953125 -3.9140625 30.1953125 -6.2265625 29.1328125 C-6.19175781 28.22789063 -6.19175781 28.22789063 -6.15625 27.3046875 C-6.13820312 26.50546875 -6.12015625 25.70625 -6.1015625 24.8828125 C-6.07835937 24.09390625 -6.05515625 23.305 -6.03125 22.4921875 C-6.08054519 20.09179523 -6.08054519 20.09179523 -7.296875 18.0234375 C-8.2265625 16.1328125 -8.2265625 16.1328125 -7.2265625 13.1328125 C-6.5665625 13.1328125 -5.9065625 13.1328125 -5.2265625 13.1328125 C-5.5565625 12.1428125 -5.8865625 11.1528125 -6.2265625 10.1328125 C-7.2165625 10.6278125 -7.2165625 10.6278125 -8.2265625 11.1328125 C-8.5565625 9.4828125 -8.8865625 7.8328125 -9.2265625 6.1328125 C-8.2365625 5.8028125 -7.2465625 5.4728125 -6.2265625 5.1328125 C-6.2265625 3.8128125 -6.2265625 2.4928125 -6.2265625 1.1328125 C-3.912379 -0.02427925 -2.57452822 0.00378369 0 0 Z " fill="#186585" transform="translate(60.2265625,39.8671875)"/>
<path d="M0 0 C0.85795166 -0.00185303 1.71590332 -0.00370605 2.59985352 -0.00561523 C3.98515259 0.00103149 3.98515259 0.00103149 5.3984375 0.0078125 C6.35484131 0.009021 7.31124512 0.01022949 8.29663086 0.01147461 C13.671613 0.04070358 18.97691334 0.24727248 24.3359375 0.6953125 C34.30963479 1.43486575 44.25546811 0.82399119 54.234375 0.38671875 C59.75175215 0.14924775 65.25166218 0.06889941 70.7734375 0.1328125 C70.7734375 0.7928125 70.7734375 1.4528125 70.7734375 2.1328125 C71.918125 1.606875 71.918125 1.606875 73.0859375 1.0703125 C78.14099011 -0.21487037 82.6498832 0.45818079 87.7734375 1.1328125 C87.7734375 1.7928125 87.7734375 2.4528125 87.7734375 3.1328125 C89.0934375 2.8028125 90.4134375 2.4728125 91.7734375 2.1328125 C91.4434375 4.4428125 91.1134375 6.7528125 90.7734375 9.1328125 C90.1134375 9.1328125 89.4534375 9.1328125 88.7734375 9.1328125 C88.53369503 15.00650299 89.49161619 19.78035678 91.5859375 25.2578125 C91.8765417 28.1638545 90.38542304 29.81155333 88.7734375 32.1328125 C86.01067573 31.61012784 83.4473499 31.02411663 80.7734375 30.1328125 C79.8453125 30.4628125 78.9171875 30.7928125 77.9609375 31.1328125 C74.34203318 32.26815503 72.44634673 31.82148298 68.7734375 31.1328125 C66.76707279 31.42540735 64.76629687 31.75915137 62.7734375 32.1328125 C60.7934375 32.1328125 58.8134375 32.1328125 56.7734375 32.1328125 C56.1134375 37.4128125 55.4534375 42.6928125 54.7734375 48.1328125 C56.2584375 48.6278125 56.2584375 48.6278125 57.7734375 49.1328125 C57.8984375 51.5078125 57.8984375 51.5078125 57.7734375 54.1328125 C56.7834375 55.1228125 56.7834375 55.1228125 55.7734375 56.1328125 C55.46744687 58.70197907 55.26256663 61.18039634 55.1484375 63.7578125 C55.10976562 64.46421875 55.07109375 65.170625 55.03125 65.8984375 C54.93696026 67.64279774 54.85410859 69.38776941 54.7734375 71.1328125 C56.7534375 71.6278125 56.7534375 71.6278125 58.7734375 72.1328125 C58.2784375 72.5246875 57.7834375 72.9165625 57.2734375 73.3203125 C55.31750607 75.68372965 55.53135777 77.14716253 55.7734375 80.1328125 C56.4334375 80.1328125 57.0934375 80.1328125 57.7734375 80.1328125 C57.7734375 82.4428125 57.7734375 84.7528125 57.7734375 87.1328125 C56.7834375 87.6278125 56.7834375 87.6278125 55.7734375 88.1328125 C55.71933614 91.19555081 55.67971525 94.25732702 55.6484375 97.3203125 C55.62330078 98.61678711 55.62330078 98.61678711 55.59765625 99.93945312 C55.56305517 104.45489353 55.61775834 108.03362733 57.7734375 112.1328125 C57.1134375 112.7928125 56.4534375 113.4528125 55.7734375 114.1328125 C55.93786027 117.20272931 55.93786027 117.20272931 56.7734375 120.1328125 C57.4334375 120.4628125 58.0934375 120.7928125 58.7734375 121.1328125 C58.7734375 121.7928125 58.7734375 122.4528125 58.7734375 123.1328125 C58.1134375 123.1328125 57.4534375 123.1328125 56.7734375 123.1328125 C57.1034375 124.7828125 57.4334375 126.4328125 57.7734375 128.1328125 C57.40718262 127.6469165 57.04092773 127.16102051 56.66357422 126.66040039 C53.96842772 124.48221237 51.96608472 124.73246691 48.53125 124.69140625 C47.30019531 124.66498047 46.06914063 124.63855469 44.80078125 124.61132812 C43.51300781 124.59779297 42.22523437 124.58425781 40.8984375 124.5703125 C38.35924609 124.53579177 35.82014905 124.4931393 33.28125 124.44140625 C31.58959717 124.42291626 31.58959717 124.42291626 29.86376953 124.40405273 C26.78186571 124.13355225 24.55980732 123.43825308 21.7734375 122.1328125 C21.71285156 121.39675781 21.65226562 120.66070312 21.58984375 119.90234375 C21.50605469 118.92652344 21.42226562 117.95070313 21.3359375 116.9453125 C21.25472656 115.98238281 21.17351562 115.01945312 21.08984375 114.02734375 C20.79677599 111.34631648 20.34639996 108.7665139 19.7734375 106.1328125 C20.7634375 105.6378125 20.7634375 105.6378125 21.7734375 105.1328125 C21.68964844 103.98425781 21.60585937 102.83570313 21.51953125 101.65234375 C20.89106357 92.33493329 20.70527637 83.43403094 21.7734375 74.1328125 C22.1034375 75.4528125 22.4334375 76.7728125 22.7734375 78.1328125 C23.4334375 78.1328125 24.0934375 78.1328125 24.7734375 78.1328125 C24.7734375 76.1528125 24.7734375 74.1728125 24.7734375 72.1328125 C23.7834375 72.1328125 22.7934375 72.1328125 21.7734375 72.1328125 C21.60361723 67.91965254 21.44333709 63.70626058 21.29125977 59.49243164 C21.23843633 58.063951 21.18316757 56.63555832 21.12524414 55.20727539 C20.78516087 46.77616741 20.70343093 38.52884944 21.7734375 30.1328125 C20.8865625 30.2771875 19.9996875 30.4215625 19.0859375 30.5703125 C13.34750169 31.40025156 7.55389474 31.72426891 1.7734375 32.1328125 C1.7734375 31.4728125 1.7734375 30.8128125 1.7734375 30.1328125 C0.7834375 30.4628125 -0.2065625 30.7928125 -1.2265625 31.1328125 C-3.9140625 30.1953125 -3.9140625 30.1953125 -6.2265625 29.1328125 C-6.19175781 28.22789063 -6.19175781 28.22789063 -6.15625 27.3046875 C-6.13820312 26.50546875 -6.12015625 25.70625 -6.1015625 24.8828125 C-6.07835937 24.09390625 -6.05515625 23.305 -6.03125 22.4921875 C-6.08054519 20.09179523 -6.08054519 20.09179523 -7.296875 18.0234375 C-8.2265625 16.1328125 -8.2265625 16.1328125 -7.2265625 13.1328125 C-6.5665625 13.1328125 -5.9065625 13.1328125 -5.2265625 13.1328125 C-5.5565625 12.1428125 -5.8865625 11.1528125 -6.2265625 10.1328125 C-7.2165625 10.6278125 -7.2165625 10.6278125 -8.2265625 11.1328125 C-8.5565625 9.4828125 -8.8865625 7.8328125 -9.2265625 6.1328125 C-8.2365625 5.8028125 -7.2465625 5.4728125 -6.2265625 5.1328125 C-6.2265625 3.8128125 -6.2265625 2.4928125 -6.2265625 1.1328125 C-3.912379 -0.02427925 -2.57452822 0.00378369 0 0 Z M-4.2265625 4.1328125 C-4.3257282 5.75538794 -4.35736027 7.38221081 -4.359375 9.0078125 C-4.36066406 9.99265625 -4.36195312 10.9775 -4.36328125 11.9921875 C-4.35941406 13.02859375 -4.35554688 14.065 -4.3515625 15.1328125 C-4.35542969 16.16921875 -4.35929687 17.205625 -4.36328125 18.2734375 C-4.36199219 19.25828125 -4.36070313 20.243125 -4.359375 21.2578125 C-4.35824707 22.16789062 -4.35711914 23.07796875 -4.35595703 24.015625 C-4.46216259 26.1180973 -4.46216259 26.1180973 -3.2265625 27.1328125 C6.3434375 27.1328125 15.9134375 27.1328125 25.7734375 27.1328125 C25.7734375 58.4828125 25.7734375 89.8328125 25.7734375 122.1328125 C34.6834375 122.1328125 43.5934375 122.1328125 52.7734375 122.1328125 C52.7734375 90.7828125 52.7734375 59.4328125 52.7734375 27.1328125 C63.3334375 27.1328125 73.8934375 27.1328125 84.7734375 27.1328125 C84.7734375 19.2128125 84.7734375 11.2928125 84.7734375 3.1328125 C73.31693383 3.11026238 61.86044479 3.09189794 50.40392399 3.08100033 C45.08478537 3.07577128 39.76566266 3.06867323 34.4465332 3.05737305 C29.31779765 3.04654495 24.18907744 3.04053583 19.06033134 3.03793526 C17.09902136 3.03608087 15.13771226 3.03245999 13.17640877 3.02708244 C10.43928303 3.01987304 7.70222153 3.01882151 4.96508789 3.01928711 C4.14581818 3.01569183 3.32654846 3.01209656 2.48245239 3.00839233 C-1.17159688 2.6672575 -1.17159688 2.6672575 -4.2265625 4.1328125 Z " fill="#056D87" transform="translate(60.2265625,39.8671875)"/>
<path d="M0 0 C0.81926971 0.00359528 1.63853943 0.00719055 2.4826355 0.01089478 C3.34109573 0.01074875 4.19955597 0.01060272 5.08403015 0.01045227 C7.93559249 0.0111517 10.78709036 0.01894547 13.63864136 0.02676392 C15.61019353 0.02862799 17.58174615 0.03005194 19.55329895 0.03105164 C24.75324778 0.03487765 29.95316886 0.04470865 35.15310669 0.05575562 C40.45492172 0.06596794 45.75674121 0.07054887 51.05856323 0.07559204 C61.4693847 0.08633084 71.88017826 0.10392831 82.29098511 0.12442017 C82.29098511 8.04442017 82.29098511 15.96442017 82.29098511 24.12442017 C71.73098511 24.12442017 61.17098511 24.12442017 50.29098511 24.12442017 C50.29098511 55.47442017 50.29098511 86.82442017 50.29098511 119.12442017 C41.38098511 119.12442017 32.47098511 119.12442017 23.29098511 119.12442017 C23.29098511 87.77442017 23.29098511 56.42442017 23.29098511 24.12442017 C13.72098511 24.12442017 4.15098511 24.12442017 -5.70901489 24.12442017 C-7.36295606 22.470479 -6.83901172 20.52126603 -6.84182739 18.24942017 C-6.84311646 17.26457642 -6.84440552 16.27973267 -6.84573364 15.26504517 C-6.84186646 14.22863892 -6.83799927 13.19223267 -6.83401489 12.12442017 C-6.83981567 10.56981079 -6.83981567 10.56981079 -6.84573364 8.98379517 C-6.84444458 7.99895142 -6.84315552 7.01410767 -6.84182739 5.99942017 C-6.84069946 5.08934204 -6.83957153 4.17926392 -6.83840942 3.24160767 C-6.57229755 -1.11258509 -3.68919488 0.00683643 0 0 Z M-4.70901489 2.12442017 C-4.70901489 8.72442017 -4.70901489 15.32442017 -4.70901489 22.12442017 C5.19098511 22.12442017 15.09098511 22.12442017 25.29098511 22.12442017 C25.29098511 53.47442017 25.29098511 84.82442017 25.29098511 117.12442017 C32.88098511 117.12442017 40.47098511 117.12442017 48.29098511 117.12442017 C48.29098511 85.77442017 48.29098511 54.42442017 48.29098511 22.12442017 C58.85098511 22.12442017 69.41098511 22.12442017 80.29098511 22.12442017 C80.29098511 15.52442017 80.29098511 8.92442017 80.29098511 2.12442017 C52.24098511 2.12442017 24.19098511 2.12442017 -4.70901489 2.12442017 Z " fill="#39CEDE" transform="translate(62.709014892578125,42.875579833984375)"/>
<path d="M0 0 C28.05 0 56.1 0 85 0 C85 6.6 85 13.2 85 20 C74.44 20 63.88 20 53 20 C53 51.35 53 82.7 53 115 C45.41 115 37.82 115 30 115 C30 83.65 30 52.3 30 20 C20.1 20 10.2 20 0 20 C0 13.4 0 6.8 0 0 Z M3.57366943 3.87164307 C1.63252455 6.49700331 1.54768552 7.89480344 1.6875 11.125 C1.71199219 11.99382813 1.73648438 12.86265625 1.76171875 13.7578125 C1.87131953 16.03446349 1.87131953 16.03446349 3 18 C11.91 18 20.82 18 30 18 C30.33 49.68 30.66 81.36 31 114 C37.6 114 44.2 114 51 114 C51 82.65 51 51.3 51 19 C60.57 18.67 70.14 18.34 80 18 C80 12.72 80 7.44 80 2 C70.42069659 1.90964233 60.84167606 1.83625169 51.262043 1.79275131 C46.81385723 1.77187362 42.36597806 1.74355298 37.91796875 1.69824219 C33.62560766 1.65479043 29.33354152 1.63086426 25.04097748 1.62049103 C23.40307725 1.6130984 21.76519323 1.59866225 20.12741852 1.57707977 C17.83361391 1.54805353 15.54102894 1.54404349 13.24707031 1.54589844 C11.94135071 1.53701599 10.6356311 1.52813354 9.29034424 1.51898193 C5.93347955 1.7353693 5.93347955 1.7353693 3.57366943 3.87164307 Z " fill="#0D819C" transform="translate(58,45)"/>
<path d="M0 0 C0.495 0.99 0.495 0.99 1 2 C1.66 2 2.32 2 3 2 C3 9.66666667 3 17.33333333 3 25 C1.84371094 25.19916016 1.84371094 25.19916016 0.6640625 25.40234375 C-0.33882812 25.57894531 -1.34171875 25.75554687 -2.375 25.9375 C-3.37273437 26.11152344 -4.37046875 26.28554687 -5.3984375 26.46484375 C-7.96909656 26.87712062 -7.96909656 26.87712062 -10 28 C-10.9075 27.835 -11.815 27.67 -12.75 27.5 C-16.1924718 26.97038895 -18.60040017 27.36257503 -22 28 C-23.98 28 -25.96 28 -28 28 C-28.66 33.28 -29.32 38.56 -30 44 C-28.515 44.495 -28.515 44.495 -27 45 C-26.875 47.375 -26.875 47.375 -27 50 C-27.66 50.66 -28.32 51.32 -29 52 C-29.30599063 54.56916657 -29.51087087 57.04758384 -29.625 59.625 C-29.66367188 60.33140625 -29.70234375 61.0378125 -29.7421875 61.765625 C-29.83647724 63.50998524 -29.91932891 65.25495691 -30 67 C-28.68 67.33 -27.36 67.66 -26 68 C-26.495 68.391875 -26.99 68.78375 -27.5 69.1875 C-29.45593143 71.55091715 -29.24207973 73.01435003 -29 76 C-28.34 76 -27.68 76 -27 76 C-27 78.31 -27 80.62 -27 83 C-27.99 83.495 -27.99 83.495 -29 84 C-29.05410136 87.06273831 -29.09372225 90.12451452 -29.125 93.1875 C-29.14175781 94.05181641 -29.15851563 94.91613281 -29.17578125 95.80664062 C-29.21038233 100.32208103 -29.15567916 103.90081483 -27 108 C-27.99 108.99 -27.99 108.99 -29 110 C-28.83557723 113.06991681 -28.83557723 113.06991681 -28 116 C-27.34 116.33 -26.68 116.66 -26 117 C-26 117.66 -26 118.32 -26 119 C-26.66 119 -27.32 119 -28 119 C-27.67 120.65 -27.34 122.3 -27 124 C-27.36262939 123.5155542 -27.72525879 123.0311084 -28.09887695 122.53198242 C-30.83165807 120.32982479 -32.94024291 120.56696283 -36.41796875 120.48828125 C-38.29838867 120.43510742 -38.29838867 120.43510742 -40.21679688 120.38085938 C-41.52712891 120.35830078 -42.83746094 120.33574219 -44.1875 120.3125 C-45.52282013 120.27932334 -46.85810832 120.24483334 -48.19335938 120.20898438 C-51.46215504 120.12637943 -54.73067812 120.05726771 -58 120 C-58.33 119.34 -58.66 118.68 -59 118 C-50.09 118 -41.18 118 -32 118 C-32 86.65 -32 55.3 -32 23 C-21.44 23 -10.88 23 0 23 C0 15.41 0 7.82 0 0 Z " fill="#077B95" transform="translate(145,44)"/>
<path d="M0 0 C0.33 0 0.66 0 1 0 C1 2.64 1 5.28 1 8 C1.99 8.33 2.98 8.66 4 9 C4.125 11.375 4.125 11.375 4 14 C3.34 14.66 2.68 15.32 2 16 C1.69400937 18.56916657 1.48912913 21.04758384 1.375 23.625 C1.33632812 24.33140625 1.29765625 25.0378125 1.2578125 25.765625 C1.16352276 27.50998524 1.08067109 29.25495691 1 31 C2.32 31.33 3.64 31.66 5 32 C4.505 32.391875 4.01 32.78375 3.5 33.1875 C1.54406857 35.55091715 1.75792027 37.01435003 2 40 C2.66 40 3.32 40 4 40 C4 42.31 4 44.62 4 47 C3.01 47.495 3.01 47.495 2 48 C1.94589864 51.06273831 1.90627775 54.12451452 1.875 57.1875 C1.85824219 58.05181641 1.84148437 58.91613281 1.82421875 59.80664062 C1.78961767 64.32208103 1.84432084 67.90081483 4 72 C3.01 72.99 3.01 72.99 2 74 C2.16442277 77.06991681 2.16442277 77.06991681 3 80 C3.66 80.33 4.32 80.66 5 81 C5 81.66 5 82.32 5 83 C4.34 83 3.68 83 3 83 C3.33 84.65 3.66 86.3 4 88 C3.63737061 87.5155542 3.27474121 87.0311084 2.90112305 86.53198242 C0.16834193 84.32982479 -1.94024291 84.56696283 -5.41796875 84.48828125 C-7.29838867 84.43510742 -7.29838867 84.43510742 -9.21679688 84.38085938 C-10.52712891 84.35830078 -11.83746094 84.33574219 -13.1875 84.3125 C-14.52282013 84.27932334 -15.85810832 84.24483334 -17.19335938 84.20898438 C-20.46215504 84.12637943 -23.73067812 84.05726771 -27 84 C-27.33 83.34 -27.66 82.68 -28 82 C-19.09 82 -10.18 82 -1 82 C-0.67 54.94 -0.34 27.88 0 0 Z " fill="#0F6988" transform="translate(114,80)"/>
<path d="M0 0 C0.33 0 0.66 0 1 0 C1.02505615 1.03294189 1.0501123 2.06588379 1.07592773 3.13012695 C1.17106924 7.01238556 1.27101602 10.8945089 1.37231445 14.77661133 C1.41526441 16.44747727 1.45696177 18.11837595 1.49731445 19.78930664 C1.71801918 28.89269539 1.96984605 37.94349318 3 47 C3.33 47 3.66 47 4 47 C4.22644569 50.24900334 4.42797517 53.49909039 4.625 56.75 C4.68945312 57.67039063 4.75390625 58.59078125 4.8203125 59.5390625 C4.871875 60.42851563 4.9234375 61.31796875 4.9765625 62.234375 C5.02893066 63.05131836 5.08129883 63.86826172 5.13525391 64.70996094 C4.98251992 67.29596234 4.17847038 68.7225322 3 71 C2.7287272 73.02375149 2.7287272 73.02375149 2.8046875 75.109375 C2.81113281 75.86347656 2.81757812 76.61757812 2.82421875 77.39453125 C2.84097656 78.17183594 2.85773438 78.94914062 2.875 79.75 C2.88402344 80.54277344 2.89304687 81.33554688 2.90234375 82.15234375 C2.92582988 84.10169281 2.96169863 86.05088575 3 88 C3.66 88 4.32 88 5 88 C5 89.98 5 91.96 5 94 C3.35 94 1.7 94 0 94 C0 62.98 0 31.96 0 0 Z " fill="#0D6C8D" transform="translate(89,65)"/>
<path d="M0 0 C28.05 0 56.1 0 85 0 C85 6.6 85 13.2 85 20 C76.42 20 67.84 20 59 20 C59 19.67 59 19.34 59 19 C66.92 18.67 74.84 18.34 83 18 C83 12.72 83 7.44 83 2 C56.27 1.67 29.54 1.34 2 1 C1.67 6.94 1.34 12.88 1 19 C10.57 19 20.14 19 30 19 C30 19.33 30 19.66 30 20 C20.1 20 10.2 20 0 20 C0 13.4 0 6.8 0 0 Z " fill="#038298" transform="translate(58,45)"/>
<path d="M0 0 C0.33 1.32 0.66 2.64 1 4 C1.66 4 2.32 4 3 4 C3.33 18.52 3.66 33.04 4 48 C2.68 48 1.36 48 0 48 C-0.06058594 47.26394531 -0.12117188 46.52789062 -0.18359375 45.76953125 C-0.26738281 44.79371094 -0.35117188 43.81789062 -0.4375 42.8125 C-0.51871094 41.84957031 -0.59992188 40.88664062 -0.68359375 39.89453125 C-0.97666151 37.21350398 -1.42703754 34.6337014 -2 32 C-1.34 31.67 -0.68 31.34 0 31 C-0.08378906 29.85144531 -0.16757813 28.70289063 -0.25390625 27.51953125 C-0.88237393 18.20212079 -1.06816113 9.30121844 0 0 Z " fill="#106584" transform="translate(82,114)"/>
<path d="M0 0 C26.07 0 52.14 0 79 0 C78.67 0.66 78.34 1.32 78 2 C76.6193763 1.99000725 76.6193763 1.99000725 75.21086121 1.97981262 C66.54401456 1.91974388 57.87723765 1.87404717 49.21023083 1.84456348 C44.75424011 1.82889613 40.29842115 1.80763848 35.8425293 1.77368164 C31.5437024 1.74112612 27.24504088 1.72315505 22.94610023 1.71536827 C21.30460315 1.70981789 19.66311529 1.69897951 18.02168846 1.68280983 C15.7254404 1.66108569 13.42987892 1.6580309 11.13354492 1.65942383 C9.1716346 1.64943108 9.1716346 1.64943108 7.17008972 1.63923645 C3.67343818 1.70394421 3.67343818 1.70394421 1 5 C1 8.96 1 12.92 1 17 C9.91 17 18.82 17 28 17 C28 17.33 28 17.66 28 18 C18.43 18 8.86 18 -1 18 C-1.020625 15.40125 -1.04125 12.8025 -1.0625 10.125 C-1.071604 9.30789551 -1.08070801 8.49079102 -1.09008789 7.64892578 C-1.11111111 2.22222222 -1.11111111 2.22222222 0 0 Z " fill="#066B88" transform="translate(60,46)"/>
<path d="M0 0 C0.99 0 1.98 0 3 0 C3 13.53 3 27.06 3 41 C2.01 41 1.02 41 0 41 C-0.16955138 36.76852054 -0.32987082 32.53681451 -0.48217773 28.3046875 C-0.53506956 26.86937389 -0.59034678 25.43414589 -0.64819336 23.99902344 C-0.97175709 15.9296254 -1.15925291 8.02410928 0 0 Z " fill="#156889" transform="translate(82,71)"/>
<path d="M0 0 C3.96 0.33 7.92 0.66 12 1 C12 1.66 12 2.32 12 3 C13.32 2.67 14.64 2.34 16 2 C15.67 4.31 15.34 6.62 15 9 C14.34 9 13.68 9 13 9 C12.76025753 14.87369049 13.71817869 19.64754428 15.8125 25.125 C16.1031042 28.031042 14.61198554 29.67874083 13 32 C11.35 31.67 9.7 31.34 8 31 C9 29 9 29 12 28 C11.67 27.01 11.34 26.02 11 25 C10.90347622 22.13551491 10.86074097 19.30118925 10.875 16.4375 C10.87113281 15.65697266 10.86726562 14.87644531 10.86328125 14.07226562 C10.87332251 8.25335498 10.87332251 8.25335498 12 6 C11.34 6 10.68 6 10 6 C9.34 5.01 8.68 4.02 8 3 C5.80545319 2.42006301 5.80545319 2.42006301 3.375 2.3125 C2.55773437 2.24675781 1.74046875 2.18101563 0.8984375 2.11328125 C0.27195313 2.07589844 -0.35453125 2.03851563 -1 2 C-0.67 1.34 -0.34 0.68 0 0 Z " fill="#1C6489" transform="translate(136,40)"/>
<path d="M0 0 C0.33 0 0.66 0 1 0 C1 2.64 1 5.28 1 8 C1.99 8.33 2.98 8.66 4 9 C4.125 11.375 4.125 11.375 4 14 C3.34 14.66 2.68 15.32 2 16 C1.69400937 18.56916657 1.48912913 21.04758384 1.375 23.625 C1.33632812 24.33140625 1.29765625 25.0378125 1.2578125 25.765625 C1.16352276 27.50998524 1.08067109 29.25495691 1 31 C2.32 31.33 3.64 31.66 5 32 C3.625 33.5 3.625 33.5 2 35 C1.34 35 0.68 35 0 35 C0 23.45 0 11.9 0 0 Z " fill="#127091" transform="translate(114,80)"/>
<path d="M0 0 C1.30578003 -0.00290039 1.30578003 -0.00290039 2.63793945 -0.00585938 C3.56695068 -0.00134766 4.49596191 0.00316406 5.453125 0.0078125 C6.86501099 0.01071289 6.86501099 0.01071289 8.30541992 0.01367188 C15.80771643 0.05974141 23.23137161 0.42958865 30.703125 1.1328125 C30.703125 1.4628125 30.703125 1.7928125 30.703125 2.1328125 C18.823125 2.1328125 6.943125 2.1328125 -5.296875 2.1328125 C-5.296875 4.4428125 -5.296875 6.7528125 -5.296875 9.1328125 C-6.286875 9.7928125 -7.276875 10.4528125 -8.296875 11.1328125 C-8.626875 9.4828125 -8.956875 7.8328125 -9.296875 6.1328125 C-8.306875 5.8028125 -7.316875 5.4728125 -6.296875 5.1328125 C-6.296875 3.8128125 -6.296875 2.4928125 -6.296875 1.1328125 C-3.96639639 -0.0324268 -2.59442151 0.00375071 0 0 Z " fill="#106482" transform="translate(60.296875,39.8671875)"/>
<path d="M0 0 C7.92 0 15.84 0 24 0 C23.67 0.66 23.34 1.32 23 2 C16.25 2.125 16.25 2.125 14 1 C14 1.66 14 2.32 14 3 C12.02 3 10.04 3 8 3 C8 2.67 8 2.34 8 2 C5.36 1.67 2.72 1.34 0 1 C0 0.67 0 0.34 0 0 Z " fill="#1F5E7F" transform="translate(87,164)"/>
<path d="M0 0 C-6 3 -6 3 -8.75 2.5 C-12.1924718 1.97038895 -14.60040017 2.36257503 -18 3 C-19.99965715 3.03703069 -22.00056665 3.04760556 -24 3 C-24.33 2.34 -24.66 1.68 -25 1 C-16.64251778 0.15672251 -8.39802254 -0.12190678 0 0 Z " fill="#196A8D" transform="translate(141,69)"/>
<path d="M0 0 C0.66 0.33 1.32 0.66 2 1 C2.33 1.99 2.66 2.98 3 4 C3.66 4.33 4.32 4.66 5 5 C5 5.66 5 6.32 5 7 C4.34 7 3.68 7 3 7 C3.33 8.65 3.66 10.3 4 12 C2.02 10.35 0.04 8.7 -2 7 C-1.34 4.69 -0.68 2.38 0 0 Z " fill="#196081" transform="translate(114,156)"/>
<path d="M0 0 C3.96 0.33 7.92 0.66 12 1 C12.66 2.98 13.32 4.96 14 7 C13.01 7.495 13.01 7.495 12 8 C12 7.34 12 6.68 12 6 C11.34 6 10.68 6 10 6 C9.34 5.01 8.68 4.02 8 3 C5.80545319 2.42006301 5.80545319 2.42006301 3.375 2.3125 C2.55773437 2.24675781 1.74046875 2.18101563 0.8984375 2.11328125 C0.27195313 2.07589844 -0.35453125 2.03851563 -1 2 C-0.67 1.34 -0.34 0.68 0 0 Z " fill="#106584" transform="translate(136,40)"/>
<path d="M0 0 C0 0.33 0 0.66 0 1 C-1.98 1 -3.96 1 -6 1 C-5.938125 2.11375 -5.87625 3.2275 -5.8125 4.375 C-5.874375 5.57125 -5.93625 6.7675 -6 8 C-6.99 8.66 -7.98 9.32 -9 10 C-9.33 8.35 -9.66 6.7 -10 5 C-9.01 4.67 -8.02 4.34 -7 4 C-7 2.68 -7 1.36 -7 0 C-4.3333581 -1.33332095 -2.83319697 -0.67102033 0 0 Z " fill="#0B5C77" transform="translate(61,41)"/>
<path d="M0 0 C0.33 0 0.66 0 1 0 C1 4.95 1 9.9 1 15 C0.67 15 0.34 15 0 15 C-0.144375 13.783125 -0.28875 12.56625 -0.4375 11.3125 C-0.73451213 8.84467865 -1.107842 6.54902437 -1.6875 4.125 C-1.790625 3.42375 -1.89375 2.7225 -2 2 C-1.34 1.34 -0.68 0.68 0 0 Z " fill="#195E7F" transform="translate(82,144)"/>
<path d="M0 0 C0.99 0 1.98 0 3 0 C3 2.31 3 4.62 3 7 C2.01 7.33 1.02 7.66 0 8 C0 5.36 0 2.72 0 0 Z " fill="#1E668B" transform="translate(115,120)"/>
<path d="M0 0 C0.99 0.33 1.98 0.66 3 1 C3.1875 3.375 3.1875 3.375 3 6 C2.01 6.66 1.02 7.32 0 8 C0 5.36 0 2.72 0 0 Z " fill="#1B688D" transform="translate(115,88)"/>
</svg>
