<?xml version="1.0" encoding="UTF-8"?>
<svg version="1.1" xmlns="http://www.w3.org/2000/svg" width="200" height="200">
<path d="M0 0 C66 0 132 0 200 0 C200 66 200 132 200 200 C134 200 68 200 0 200 C0 134 0 68 0 0 Z " fill="#040000" transform="translate(0,0)"/>
<path d="M0 0 C14.19 0 28.38 0 43 0 C43 6.27 43 12.54 43 19 C35.08 19 27.16 19 19 19 C19 22.3 19 25.6 19 29 C25.6 29 32.2 29 39 29 C39 33.62 39 38.24 39 43 C32.4 43 25.8 43 19 43 C19 46.63 19 50.26 19 54 C26.92 54 34.84 54 43 54 C43 59.94 43 65.88 43 72 C28.81 72 14.62 72 0 72 C0 48.24 0 24.48 0 0 Z " fill="#FCFBFB" transform="translate(43,65)"/>
<path d="M0 0 C10.43155468 2.31812326 17.0093179 6.08487249 23 15 C27.5893991 23.19535553 28.41680283 31.68698939 26 40.75 C25.67 41.4925 25.34 42.235 25 43 C25.928125 43.0825 26.85625 43.165 27.8125 43.25 C31 44 31 44 32.875 45.6875 C34.36633241 48.75301662 34.48231822 50.62377244 34 54 C31.92170296 57.74093467 30.67458281 58.79149259 26.5625 60.0625 C23 60 23 60 20.0625 58.1875 C18 56 18 56 18 54 C17.46632812 54.39832031 16.93265625 54.79664063 16.3828125 55.20703125 C8.46628964 60.83625425 0.77913598 63.814928 -9 63 C-12.5 62 -12.5 62 -15 61 C-12.54957397 47.36144462 -12.54957397 47.36144462 -9 43 C-6.4244014 42.04702852 -4.07156649 41.69572119 -1.34765625 41.3828125 C1.21221437 41.15293002 1.21221437 41.15293002 3.5625 39.0625 C6.29084571 35.14791702 6.47392682 31.66028042 6 27 C3.76145396 23.06015898 1.06728118 21.03364059 -3 19 C-2.01 12.73 -1.02 6.46 0 0 Z " fill="#F8F8F8" transform="translate(134,77)"/>
<path d="M0 0 C2.31 0 4.62 0 7 0 C7 66 7 132 7 200 C4.69 200 2.38 200 0 200 C0 134 0 68 0 0 Z " fill="#FEFEFE" transform="translate(0,0)"/>
<path d="M0 0 C1.60279192 0.00015914 3.20558896 0.00585476 4.80834961 0.01586914 C5.65038437 0.01728409 6.49241913 0.01869904 7.35997009 0.02015686 C10.06024671 0.02577276 12.76044163 0.03832791 15.46069336 0.05102539 C17.28686404 0.05603834 19.11303602 0.06060161 20.93920898 0.06469727 C25.42556878 0.07574735 29.9118672 0.0930226 34.39819336 0.11352539 C32.72135407 9.22225145 30.41112767 18.15432697 28.08569336 27.11352539 C27.6786293 28.68823236 27.2715655 30.26293939 26.86450195 31.83764648 C19.31445583 60.98309521 19.31445583 60.98309521 15.39819336 72.11352539 C13.74819336 72.11352539 12.09819336 72.11352539 10.39819336 72.11352539 C10.39819336 54.62352539 10.39819336 37.13352539 10.39819336 19.11352539 C5.77819336 19.11352539 1.15819336 19.11352539 -3.60180664 19.11352539 C-5.48733194 17.22800009 -4.73427354 14.53583708 -4.73852539 12.03149414 C-4.7346582 11.23356445 -4.73079102 10.43563477 -4.72680664 9.61352539 C-4.73067383 8.8155957 -4.73454102 8.01766602 -4.73852539 7.19555664 C-4.72656176 0.14897656 -4.72656176 0.14897656 0 0 Z " fill="#F7F7F7" transform="translate(95.601806640625,64.886474609375)"/>
<path d="M0 0 C1.98 0 3.96 0 6 0 C6 66 6 132 6 200 C4.02 200 2.04 200 0 200 C0 134 0 68 0 0 Z " fill="#FFFEFE" transform="translate(194,0)"/>
<path d="M0 0 C0.33 0.66 0.66 1.32 1 2 C2.98 2.495 2.98 2.495 5 3 C5 7.62 5 12.24 5 17 C4.34 17.33 3.68 17.66 3 18 C3 17.34 3 16.68 3 16 C2.01 16.33 1.02 16.66 0 17 C0 11.39 0 5.78 0 0 Z " fill="#191818" transform="translate(86,66)"/>
</svg>
