<?xml version="1.0" encoding="UTF-8"?>
<svg version="1.1" xmlns="http://www.w3.org/2000/svg" width="314" height="46">
<path d="M0 0 C5.67154439 1.13430888 6.88735164 2.77629365 10 7.1875 C10.83209379 8.32772852 11.66542442 9.46705549 12.5 10.60546875 C12.8609375 11.11231201 13.221875 11.61915527 13.59375 12.14135742 C15.63290727 14.83651442 17.83640084 17.40368101 20 20 C20.33 13.4 20.66 6.8 21 0 C21.99 0 22.98 0 24 0 C24 9.57 24 19.14 24 29 C23.01 29 22.02 29 21 29 C19.20193053 26.95351303 17.59730187 24.9439411 16 22.75 C15.56171875 22.16347656 15.1234375 21.57695312 14.671875 20.97265625 C13.82144307 19.83277008 12.97618932 18.68899825 12.13671875 17.54101562 C11.17898286 16.24264171 10.18694959 14.96966887 9.1875 13.703125 C8 12 8 12 8 10 C7.34 10 6.68 10 6 10 C5.34 9.01 4.68 8.02 4 7 C3.67 14.26 3.34 21.52 3 29 C2.01 29 1.02 29 0 29 C0 19.43 0 9.86 0 0 Z " fill="#FFFFFF" transform="translate(290,0)"/>
<path d="M0 0 C2.87602455 -0.10852923 5.74790832 -0.1875515 8.625 -0.25 C9.43324219 -0.28351562 10.24148438 -0.31703125 11.07421875 -0.3515625 C16.57952429 -0.44107966 19.62485706 0.34054403 24 4 C27.38631676 7.83782566 27.50949328 11.63371494 27.35546875 16.5625 C26.6923564 21.1095561 24.30757267 23.81501227 21 26.8125 C16.64923993 29.39576379 12.18112593 29.1226227 7.25 29.0625 C4.8575 29.041875 2.465 29.02125 0 29 C0 23.72 0 18.44 0 13 C0.99 13 1.98 13 3 13 C3 17.29 3 21.58 3 26 C5.23137263 25.77052189 7.46013156 25.51554444 9.6875 25.25 C10.92886719 25.11078125 12.17023437 24.9715625 13.44921875 24.828125 C17.35602359 23.916967 19.21857158 22.85883366 22 20 C23.68020044 16.00952397 23.22591187 12.60996206 21.75 8.625 C20.10416667 5.79166667 20.10416667 5.79166667 17 4 C15.07255631 3.6373883 15.07255631 3.6373883 12.98828125 3.5859375 C12.23095703 3.54726563 11.47363281 3.50859375 10.69335938 3.46875 C9.90767578 3.4378125 9.12199219 3.406875 8.3125 3.375 C7.11657227 3.31699219 7.11657227 3.31699219 5.89648438 3.2578125 C3.93136525 3.16367506 1.9657146 3.08075368 0 3 C0 2.01 0 1.02 0 0 Z " fill="#FFFFFF" transform="translate(0,0)"/>
<path d="M0 0 C1.26457031 0.04640625 2.52914062 0.0928125 3.83203125 0.140625 C5.74048828 0.19476562 5.74048828 0.19476562 7.6875 0.25 C8.66332031 0.29640625 9.63914063 0.3428125 10.64453125 0.390625 C11.30453125 1.710625 11.96453125 3.030625 12.64453125 4.390625 C8.02453125 4.390625 3.40453125 4.390625 -1.35546875 4.390625 C-2.01546875 6.370625 -2.67546875 8.350625 -3.35546875 10.390625 C-2.63101563 10.56078125 -1.9065625 10.7309375 -1.16015625 10.90625 C9.94346363 13.68955738 9.94346363 13.68955738 13.64453125 17.390625 C14.36117314 20.39080377 14.09664125 22.22585502 13.64453125 25.390625 C11.83289858 28.06493989 10.76692048 28.34982859 7.64453125 29.390625 C1.8596633 29.9636024 -2.29119644 29.50710027 -7.35546875 26.390625 C-7.02546875 25.070625 -6.69546875 23.750625 -6.35546875 22.390625 C-5.32421875 22.885625 -4.29296875 23.380625 -3.23046875 23.890625 C0.1937128 25.35318028 2.88889968 25.81740132 6.64453125 25.390625 C7.63453125 24.730625 8.62453125 24.070625 9.64453125 23.390625 C9.64453125 22.070625 9.64453125 20.750625 9.64453125 19.390625 C7.88109375 18.7409375 7.88109375 18.7409375 6.08203125 18.078125 C4.60277854 17.51585132 3.12361335 16.95334733 1.64453125 16.390625 C0.97808594 16.15085937 0.31164062 15.91109375 -0.375 15.6640625 C-3.07477699 14.62962163 -5.0278391 13.80016206 -6.85546875 11.515625 C-7.69683887 7.93980197 -6.90822858 5.46478239 -5.25390625 2.25 C-3.35546875 0.390625 -3.35546875 0.390625 0 0 Z " fill="#FFFFFF" transform="translate(188.35546875,-0.390625)"/>
<path d="M0 0 C1.22589844 -0.02835938 2.45179688 -0.05671875 3.71484375 -0.0859375 C7.57120319 0.44504315 8.69495809 1.37255337 11.0625 4.375 C10.7325 5.035 10.4025 5.695 10.0625 6.375 C9.44375 6.045 8.825 5.715 8.1875 5.375 C3.75433885 3.95638843 -0.32941419 3.65616888 -4.9375 4.375 C-8.01683335 6.38599321 -9.42946824 7.79019652 -10.55859375 11.3125 C-11.16592718 14.61839743 -11.06058112 17.04919704 -9.875 20.1875 C-7.38077688 23.00355836 -5.51267139 24.16079085 -1.9375 25.375 C2.36697914 25.43305656 6.37419394 24.68019129 10.0625 22.375 C10.3925 23.365 10.7225 24.355 11.0625 25.375 C8.59077114 28.08213161 6.73776184 29.24010064 2.9765625 29.54296875 C-3.19766746 29.59564989 -6.91690103 29.16598545 -11.6875 24.9375 C-15.25795375 20.8711499 -15.33101914 17.15841807 -15.29296875 11.953125 C-14.73441384 7.90206741 -12.80153845 5.2148353 -9.9375 2.375 C-6.29344748 -0.05436835 -4.338683 0.04552658 0 0 Z " fill="#FFFFFF" transform="translate(228.9375,-0.375)"/>
<path d="M0 0 C2.28125 0.03515625 2.28125 0.03515625 5 1 C6.43216101 3.52145296 7.47949674 5.75584589 8.5 8.4375 C9.09284326 9.89803394 9.68789845 11.35767199 10.28515625 12.81640625 C10.57277832 13.53070801 10.86040039 14.24500977 11.15673828 14.98095703 C12.61978369 18.48396385 14.38355041 21.82409885 16.15234375 25.1796875 C17 27 17 27 17 29 C15.68 29 14.36 29 13 29 C12.54109375 27.92621094 12.0821875 26.85242188 11.609375 25.74609375 C10.98979858 24.30980296 10.36999474 22.87361026 9.75 21.4375 C9.44964844 20.73302734 9.14929688 20.02855469 8.83984375 19.30273438 C6.83416111 14.67259467 4.57714586 10.33895575 2 6 C1.73783691 6.55461914 1.47567383 7.10923828 1.20556641 7.68066406 C0.01249992 10.20399177 -1.18124325 12.72699878 -2.375 15.25 C-2.7875 16.12269531 -3.2 16.99539062 -3.625 17.89453125 C-4.02460938 18.73886719 -4.42421875 19.58320313 -4.8359375 20.453125 C-5.20251465 21.22817383 -5.5690918 22.00322266 -5.94677734 22.80175781 C-6.94231004 24.87959193 -7.96308146 26.9425569 -9 29 C-10.32 28.67 -11.64 28.34 -13 28 C-11.5861895 24.83205073 -10.1684237 21.66588612 -8.75 18.5 C-8.35425781 17.613125 -7.95851562 16.72625 -7.55078125 15.8125 C-5.15601057 10.47333914 -2.65589631 5.21432853 0 0 Z " fill="#DA2F3F" transform="translate(261,0)"/>
<path d="M0 0 C1.32 0 2.64 0 4 0 C15.83292699 23.28820737 15.83292699 23.28820737 17 29 C15.68 29 14.36 29 13 29 C12.7733667 28.48614746 12.5467334 27.97229492 12.31323242 27.44287109 C11.27282729 25.08624606 10.23018094 22.73061894 9.1875 20.375 C8.83107422 19.56675781 8.47464844 18.75851563 8.10742188 17.92578125 C6.17320882 13.56049307 4.18005722 9.25008 2 5 C1.71801758 5.69150146 1.43603516 6.38300293 1.14550781 7.09545898 C-0.13734611 10.21617715 -1.44328191 13.32670343 -2.75 16.4375 C-3.1934375 17.52611328 -3.636875 18.61472656 -4.09375 19.73632812 C-4.75117188 21.28803711 -4.75117188 21.28803711 -5.421875 22.87109375 C-5.81987305 23.82943115 -6.21787109 24.78776855 -6.62792969 25.77514648 C-8 28 -8 28 -10.16113281 28.82055664 C-10.76795898 28.87977295 -11.37478516 28.93898926 -12 29 C-11.44460745 24.11995082 -9.96065399 20.52450259 -7.6875 16.1875 C-4.9344612 10.86227381 -2.37313616 5.50567588 0 0 Z " fill="#DA2F3E" transform="translate(144,0)"/>
<path d="M0 0 C7.92 0 15.84 0 24 0 C23.67 0.99 23.34 1.98 23 3 C19.7 3 16.4 3 13 3 C13 11.58 13 20.16 13 29 C12.01 29 11.02 29 10 29 C10 20.42 10 11.84 10 3 C6.7 3 3.4 3 0 3 C0 2.01 0 1.02 0 0 Z " fill="#FFFFFF" transform="translate(102,0)"/>
<path d="M0 0 C0.99 0 1.98 0 3 0 C3 8.58 3 17.16 3 26 C8.28 26 13.56 26 19 26 C19 26.99 19 27.98 19 29 C12.73 29 6.46 29 0 29 C0 19.43 0 9.86 0 0 Z " fill="#FFFFFF" transform="translate(77,0)"/>
<path d="M0 0 C6.27 0 12.54 0 19 0 C19 1.32 19 2.64 19 4 C12.73 4 6.46 4 0 4 C0 2.68 0 1.36 0 0 Z " fill="#FFFFFF" transform="translate(42,12)"/>
<path d="M0 0 C6.27 0 12.54 0 19 0 C19 0.99 19 1.98 19 3 C12.73 3 6.46 3 0 3 C0 2.01 0 1.02 0 0 Z " fill="#FFFFFF" transform="translate(42,26)"/>
<path d="M0 0 C6.27 0 12.54 0 19 0 C19 0.99 19 1.98 19 3 C12.73 3 6.46 3 0 3 C0 2.01 0 1.02 0 0 Z " fill="#FFFFFF" transform="translate(42,0)"/>
<path d="M0 0 C2.375 -0.125 2.375 -0.125 5 0 C5.66 0.66 6.32 1.32 7 2 C6.44444444 6.55555556 6.44444444 6.55555556 5 8 C3.33382885 8.04063832 1.66611905 8.042721 0 8 C0 5.36 0 2.72 0 0 Z M1 2 C1 3.32 1 4.64 1 6 C1.99 6 2.98 6 4 6 C3.67 4.68 3.34 3.36 3 2 C2.34 2 1.68 2 1 2 Z " fill="#FFFFFF" transform="translate(217,37)"/>
<path d="M0 0 C1.98 0 3.96 0 6 0 C6 2.31 6 4.62 6 7 C4.02 7 2.04 7 0 7 C0 4.69 0 2.38 0 0 Z M2 2 C2.33 2.66 2.66 3.32 3 4 C3.33 3.34 3.66 2.68 4 2 C3.34 2 2.68 2 2 2 Z " fill="#FFFFFF" transform="translate(230,39)"/>
<path d="M0 0 C1.2065625 0.0309375 1.2065625 0.0309375 2.4375 0.0625 C2.4375 2.3725 2.4375 4.6825 2.4375 7.0625 C0.4575 7.0625 -1.5225 7.0625 -3.5625 7.0625 C-3.60504356 5.06295254 -3.60330783 3.06208364 -3.5625 1.0625 C-2.5625 0.0625 -2.5625 0.0625 0 0 Z " fill="#FFFFFF" transform="translate(123.5625,38.9375)"/>
<path d="M0 0 C1.2065625 0.0309375 1.2065625 0.0309375 2.4375 0.0625 C2.4375 2.3725 2.4375 4.6825 2.4375 7.0625 C0.7875 7.0625 -0.8625 7.0625 -2.5625 7.0625 C-2.94383299 5.0710944 -3.27575582 3.06970923 -3.5625 1.0625 C-2.5625 0.0625 -2.5625 0.0625 0 0 Z M-1.5625 2.0625 C-0.9025 2.7225 -0.2425 3.3825 0.4375 4.0625 C0.4375 3.4025 0.4375 2.7425 0.4375 2.0625 C-0.2225 2.0625 -0.8825 2.0625 -1.5625 2.0625 Z " fill="#FFFFFF" transform="translate(200.5625,38.9375)"/>
<path d="M0 0 C1.65 0 3.3 0 5 0 C5 2.31 5 4.62 5 7 C3.35 7 1.7 7 0 7 C-1.125 2.25 -1.125 2.25 0 0 Z M2 2 C3 4 3 4 3 4 Z " fill="#FFFFFF" transform="translate(70,39)"/>
<path d="M0 0 C1.2065625 0.0309375 1.2065625 0.0309375 2.4375 0.0625 C2.4375 2.3725 2.4375 4.6825 2.4375 7.0625 C0.7875 7.0625 -0.8625 7.0625 -2.5625 7.0625 C-2.94383299 5.0710944 -3.27575582 3.06970923 -3.5625 1.0625 C-2.5625 0.0625 -2.5625 0.0625 0 0 Z M-1.5625 2.0625 C-0.9025 2.7225 -0.2425 3.3825 0.4375 4.0625 C0.4375 3.4025 0.4375 2.7425 0.4375 2.0625 C-0.2225 2.0625 -0.8825 2.0625 -1.5625 2.0625 Z " fill="#FFFFFF" transform="translate(18.5625,38.9375)"/>
<path d="M0 0 C0.99 0 1.98 0 3 0 C4.25664978 2.90600261 5 4.79604584 5 8 C4.34 8 3.68 8 3 8 C3 7.34 3 6.68 3 6 C2.01 6 1.02 6 0 6 C0 6.66 0 7.32 0 8 C-0.66 8 -1.32 8 -2 8 C-1.47731534 5.23723823 -0.89130413 2.6739124 0 0 Z " fill="#FFFFFF" transform="translate(265,37)"/>
<path d="M0 0 C0.66 0 1.32 0 2 0 C2 0.66 2 1.32 2 2 C3.32 2.33 4.64 2.66 6 3 C6 4.65 6 6.3 6 8 C4.02 8 2.04 8 0 8 C0 5.36 0 2.72 0 0 Z " fill="#FFFFFF" transform="translate(206,37)"/>
<path d="M0 0 C1.65 0 3.3 0 5 0 C5.38218767 1.65614657 5.71395102 3.32457024 6 5 C5 6 5 6 2.4375 6.0625 C1.2309375 6.0315625 1.2309375 6.0315625 0 6 C0 4.02 0 2.04 0 0 Z " fill="#FFFFFF" transform="translate(280,39)"/>
<path d="M0 0 C1.65 0 3.3 0 5 0 C6.125 3.75 6.125 3.75 5 6 C3.35 6 1.7 6 0 6 C0 4.02 0 2.04 0 0 Z " fill="#FFFFFF" transform="translate(99,39)"/>
<path d="M0 0 C1.65 0 3.3 0 5 0 C5 2.64 5 5.28 5 8 C3.35 8 1.7 8 0 8 C0 5.36 0 2.72 0 0 Z " fill="#FFFFFF" transform="translate(0,37)"/>
<path d="M0 0 C1.65 0 3.3 0 5 0 C6.125 3.75 6.125 3.75 5 6 C3.35 5.67 1.7 5.34 0 5 C0 3.35 0 1.7 0 0 Z " fill="#FFFFFF" transform="translate(151,39)"/>
<path d="M0 0 C1.65 0.33 3.3 0.66 5 1 C4.67 2.65 4.34 4.3 4 6 C2.35 5.67 0.7 5.34 -1 5 C-0.67 3.35 -0.34 1.7 0 0 Z " fill="#FFFFFF" transform="translate(37,39)"/>
<path d="M0 0 C1.65 0.33 3.3 0.66 5 1 C5 2.65 5 4.3 5 6 C3.35 6 1.7 6 0 6 C-1 3 -1 3 0 0 Z " fill="#FFFFFF" transform="translate(249,39)"/>
<path d="M0 0 C1.2065625 0.0309375 1.2065625 0.0309375 2.4375 0.0625 C3.5625 3.8125 3.5625 3.8125 2.4375 6.0625 C0.7875 5.7325 -0.8625 5.4025 -2.5625 5.0625 C-3.125 3.125 -3.125 3.125 -3.5625 1.0625 C-2.5625 0.0625 -2.5625 0.0625 0 0 Z M-0.5625 2.0625 C-0.2325 2.7225 0.0975 3.3825 0.4375 4.0625 C0.7675 3.4025 1.0975 2.7425 1.4375 2.0625 C0.7775 2.0625 0.1175 2.0625 -0.5625 2.0625 Z " fill="#FFFFFF" transform="translate(184.5625,38.9375)"/>
<path d="M0 0 C1.67542976 0.28604898 3.34385343 0.61781233 5 1 C4.67 2.65 4.34 4.3 4 6 C2.68 6 1.36 6 0 6 C-0.38218767 4.34385343 -0.71395102 2.67542976 -1 1 C-0.67 0.67 -0.34 0.34 0 0 Z " fill="#FFFFFF" transform="translate(129,39)"/>
<path d="M0 0 C1.65 0 3.3 0 5 0 C5 1.98 5 3.96 5 6 C3.35 5.67 1.7 5.34 0 5 C-0.33 4.01 -0.66 3.02 -1 2 C-0.67 1.34 -0.34 0.68 0 0 Z " fill="#FFFFFF" transform="translate(44,39)"/>
<path d="M0 0 C0.66 0 1.32 0 2 0 C2 0.66 2 1.32 2 2 C3.32 2.33 4.64 2.66 6 3 C6 4.65 6 6.3 6 8 C5.34 8 4.68 8 4 8 C4 6.68 4 5.36 4 4 C3.34 4 2.68 4 2 4 C2 5.32 2 6.64 2 8 C1.34 8 0.68 8 0 8 C0 5.36 0 2.72 0 0 Z " fill="#FFFFFF" transform="translate(168,37)"/>
<path d="M0 0 C1.98 0 3.96 0 6 0 C6 1.98 6 3.96 6 6 C5.34 6 4.68 6 4 6 C4 4.68 4 3.36 4 2 C3.34 2 2.68 2 2 2 C2 3.32 2 4.64 2 6 C1.34 6 0.68 6 0 6 C0 4.02 0 2.04 0 0 Z " fill="#FFFFFF" transform="translate(272,39)"/>
<path d="M0 0 C1.98 0 3.96 0 6 0 C6 1.98 6 3.96 6 6 C5.34 6 4.68 6 4 6 C4 4.68 4 3.36 4 2 C3.34 2 2.68 2 2 2 C2 3.32 2 4.64 2 6 C1.34 6 0.68 6 0 6 C0 4.02 0 2.04 0 0 Z " fill="#FFFFFF" transform="translate(85,39)"/>
<path d="M0 0 C1.66611905 -0.042721 3.33382885 -0.04063832 5 0 C6 1 6 1 6.0625 3.5625 C6.041875 4.366875 6.02125 5.17125 6 6 C5.34 6 4.68 6 4 6 C4 4.68 4 3.36 4 2 C3.34 2 2.68 2 2 2 C2 3.32 2 4.64 2 6 C1.34 6 0.68 6 0 6 C0 4.02 0 2.04 0 0 Z " fill="#FFFFFF" transform="translate(136,39)"/>
<path d="M0 0 C1.32 0 2.64 0 4 0 C4.33 1.65 4.66 3.3 5 5 C3.35 5.33 1.7 5.66 0 6 C0 4.02 0 2.04 0 0 Z " fill="#FFFFFF" transform="translate(299,39)"/>
<path d="M0 0 C1.98 0 3.96 0 6 0 C5.01 2.31 4.02 4.62 3 7 C2.01 6.67 1.02 6.34 0 6 C0 4.02 0 2.04 0 0 Z " fill="#FFFFFF" transform="translate(292,39)"/>
<path d="M0 0 C1.65 0 3.3 0 5 0 C5 1.98 5 3.96 5 6 C3.35 6 1.7 6 0 6 C0 4.02 0 2.04 0 0 Z " fill="#FFFFFF" transform="translate(8,39)"/>
<path d="M0 0 C0.66 0 1.32 0 2 0 C2 0.66 2 1.32 2 2 C2.66 2 3.32 2 4 2 C4 2.66 4 3.32 4 4 C3.34 4 2.68 4 2 4 C2 4.66 2 5.32 2 6 C2.66 6 3.32 6 4 6 C4 6.66 4 7.32 4 8 C2.68 7.67 1.36 7.34 0 7 C-1.125 2.25 -1.125 2.25 0 0 Z " fill="#FFFFFF" transform="translate(243,37)"/>
<path d="M0 0 C1.32 0 2.64 0 4 0 C4 1.98 4 3.96 4 6 C2.68 6 1.36 6 0 6 C0 4.02 0 2.04 0 0 Z " fill="#FFFFFF" transform="translate(310,39)"/>
<path d="M0 0 C0.99 0 1.98 0 3 0 C3 2.64 3 5.28 3 8 C2.01 8 1.02 8 0 8 C0 5.36 0 2.72 0 0 Z " fill="#FFFFFF" transform="translate(305,37)"/>
<path d="M0 0 C0.99 0 1.98 0 3 0 C3 2.64 3 5.28 3 8 C2.01 8 1.02 8 0 8 C0 5.36 0 2.72 0 0 Z " fill="#FFFFFF" transform="translate(238,37)"/>
<path d="M0 0 C0.99 0 1.98 0 3 0 C3 2.64 3 5.28 3 8 C2.01 8 1.02 8 0 8 C0 5.36 0 2.72 0 0 Z " fill="#FFFFFF" transform="translate(106,37)"/>
<path d="M0 0 C0.99 1.485 0.99 1.485 2 3 C2.33 2.01 2.66 1.02 3 0 C3.66 0 4.32 0 5 0 C5 1.98 5 3.96 5 6 C3.35 6 1.7 6 0 6 C0 4.02 0 2.04 0 0 Z " fill="#FFFFFF" transform="translate(190,39)"/>
<path d="M0 0 C1.32 0 2.64 0 4 0 C4 0.66 4 1.32 4 2 C3.01 2 2.02 2 1 2 C1 2.66 1 3.32 1 4 C1.99 3.67 2.98 3.34 4 3 C4 3.99 4 4.98 4 6 C2.35 5.67 0.7 5.34 -1 5 C-0.67 3.35 -0.34 1.7 0 0 Z " fill="#FFFFFF" transform="translate(145,39)"/>
<path d="M0 0 C1.65 0 3.3 0 5 0 C5 1.98 5 3.96 5 6 C4.34 6 3.68 6 3 6 C2.67 5.01 2.34 4.02 2 3 C1.34 3.99 0.68 4.98 0 6 C0 4.02 0 2.04 0 0 Z " fill="#FFFFFF" transform="translate(29,39)"/>
<path d="M0 0 C0.99 0 1.98 0 3 0 C3 2.31 3 4.62 3 7 C2.01 7.33 1.02 7.66 0 8 C0 5.36 0 2.72 0 0 Z " fill="#FFFFFF" transform="translate(111,37)"/>
<path d="M0 0 C1.65 0 3.3 0 5 0 C5 1.98 5 3.96 5 6 C4.67 4.68 4.34 3.36 4 2 C3.34 2 2.68 2 2 2 C2 3.32 2 4.64 2 6 C1.34 6 0.68 6 0 6 C0 4.02 0 2.04 0 0 Z " fill="#FFFFFF" transform="translate(62,39)"/>
<path d="M0 0 C1.485 0.99 1.485 0.99 3 2 C3.1875 5.125 3.1875 5.125 3 8 C2.01 8 1.02 8 0 8 C-1.125 2.25 -1.125 2.25 0 0 Z " fill="#FFFFFF" transform="translate(94,37)"/>
<path d="M0 0 C2.31 0 4.62 0 7 0 C7 0.66 7 1.32 7 2 C6.01 2 5.02 2 4 2 C4 3.98 4 5.96 4 8 C3.67 8 3.34 8 3 8 C3 6.02 3 4.04 3 2 C2.01 2 1.02 2 0 2 C0 1.34 0 0.68 0 0 Z " fill="#FFFFFF" transform="translate(160,37)"/>
<path d="M0 0 C0.66 0 1.32 0 2 0 C2 2.64 2 5.28 2 8 C1.34 8 0.68 8 0 8 C0 5.36 0 2.72 0 0 Z " fill="#FFFFFF" transform="translate(288,37)"/>
<path d="M0 0 C0.66 0 1.32 0 2 0 C2 2.64 2 5.28 2 8 C1.34 8 0.68 8 0 8 C0 5.36 0 2.72 0 0 Z " fill="#FFFFFF" transform="translate(256,37)"/>
<path d="M0 0 C0.66 0 1.32 0 2 0 C2 2.64 2 5.28 2 8 C1.34 8 0.68 8 0 8 C0 5.36 0 2.72 0 0 Z " fill="#FFFFFF" transform="translate(226,37)"/>
<path d="M0 0 C0.66 0 1.32 0 2 0 C2 2.64 2 5.28 2 8 C1.34 8 0.68 8 0 8 C0 5.36 0 2.72 0 0 Z " fill="#FFFFFF" transform="translate(116,37)"/>
<path d="M0 0 C0.66 0 1.32 0 2 0 C2 2.64 2 5.28 2 8 C1.34 8 0.68 8 0 8 C0 5.36 0 2.72 0 0 Z " fill="#FFFFFF" transform="translate(57,37)"/>
<path d="M0 0 C0.66 0 1.32 0 2 0 C2 2.64 2 5.28 2 8 C1.34 8 0.68 8 0 8 C0 5.36 0 2.72 0 0 Z " fill="#FFFFFF" transform="translate(24,37)"/>
<path d="M0 0 C0.99 0 1.98 0 3 0 C2.67 1.98 2.34 3.96 2 6 C1.34 6 0.68 6 0 6 C0 4.02 0 2.04 0 0 Z " fill="#FFFFFF" transform="translate(52,39)"/>
<path d="M0 0 C0.99 0 1.98 0 3 0 C2.34 1.98 1.68 3.96 1 6 C0.67 6 0.34 6 0 6 C0 4.02 0 2.04 0 0 Z " fill="#FFFFFF" transform="translate(177,39)"/>
<path d="M0 0 C0.33 0 0.66 0 1 0 C1 2.64 1 5.28 1 8 C0.67 8 0.34 8 0 8 C0 5.36 0 2.72 0 0 Z " fill="#FFFFFF" transform="translate(81,37)"/>
</svg>
