<?xml version="1.0" encoding="UTF-8"?>
<svg version="1.1" xmlns="http://www.w3.org/2000/svg" width="1818" height="1024">
<path d="M0 0 C599.94 0 1199.88 0 1818 0 C1818 337.92 1818 675.84 1818 1024 C1218.06 1024 618.12 1024 0 1024 C0 686.08 0 348.16 0 0 Z " fill="#092240" transform="translate(0,0)"/>
<path d="M0 0 C89.1 0 178.2 0 270 0 C270 85.8 270 171.6 270 260 C250.86 260 231.72 260 212 260 C212 193.34 212 126.68 212 58 C161.51 58 111.02 58 59 58 C59 124.66 59 191.32 59 260 C39.53 260 20.06 260 0 260 C0 174.2 0 88.4 0 0 Z " fill="#FCFCFC" transform="translate(270,254)"/>
<path d="M0 0 C19.14 0 38.28 0 58 0 C58 66.66 58 133.32 58 202 C108.49 202 158.98 202 211 202 C211 135.34 211 68.68 211 0 C230.14 0 249.28 0 269 0 C269 85.8 269 171.6 269 260 C180.23 260 91.46 260 0 260 C0 174.2 0 88.4 0 0 Z " fill="#FDFDFD" transform="translate(376,359)"/>
<path d="M0 0 C19.14 0 38.28 0 58 0 C58 34.98 58 69.96 58 106 C90.67 106 123.34 106 157 106 C157 71.02 157 36.04 157 0 C176.47 0 195.94 0 216 0 C216 85.8 216 171.6 216 260 C196.53 260 177.06 260 157 260 C157 217.76 157 175.52 157 132 C124.33 132 91.66 132 58 132 C58 174.24 58 216.48 58 260 C38.86 260 19.72 260 0 260 C0 174.2 0 88.4 0 0 Z " fill="#FCFCFC" transform="translate(725,359)"/>
<path d="M0 0 C19.14 0 38.28 0 58 0 C58.33 38.28 58.66 76.56 59 116 C59.33 115.34 59.66 114.68 60 114 C60.66 114 61.32 114 62 114 C62.24621094 113.27167969 62.49242187 112.54335938 62.74609375 111.79296875 C64.12973079 108.71103578 65.76143151 106.77226287 68.0625 104.3125 C70.86293113 101.38568199 70.86293113 101.38568199 73 98 C73.66 98 74.32 98 75 98 C75.66 96.35 76.32 94.7 77 93 C77.66 93 78.32 93 79 93 C79.24105469 92.28328125 79.48210937 91.5665625 79.73046875 90.828125 C81.18558758 87.58656798 82.9762712 85.42653054 85.3125 82.75 C89.70393975 77.63420755 93.85648481 72.36634266 97.9375 67 C98.77051636 65.90510254 98.77051636 65.90510254 99.62036133 64.78808594 C102.64149592 60.82024959 102.64149592 60.82024959 105.54907227 56.76953125 C106.26728149 55.89361328 106.26728149 55.89361328 107 55 C107.66 55 108.32 55 109 55 C109.19464844 54.34386719 109.38929687 53.68773437 109.58984375 53.01171875 C111.59532793 48.72853786 114.53232504 45.4167447 117.5625 41.8125 C118.75285449 40.38280151 119.94173038 38.95187026 121.12890625 37.51953125 C121.65556885 36.89151611 122.18223145 36.26350098 122.72485352 35.61645508 C124.07735727 34.01432074 124.07735727 34.01432074 125 32 C125.66 32 126.32 32 127 32 C127.268125 31.2575 127.53625 30.515 127.8125 29.75 C128.95276751 27.10938051 130.09380306 25.14447156 132 23 C132.66 23 133.32 23 134 23 C134.29197266 22.01580078 134.29197266 22.01580078 134.58984375 21.01171875 C136.59532793 16.72853786 139.53232504 13.4167447 142.5625 9.8125 C143.75285449 8.38280151 144.94173038 6.95187026 146.12890625 5.51953125 C146.65556885 4.89151611 147.18223145 4.26350098 147.72485352 3.61645508 C149.07735727 2.01432074 149.07735727 2.01432074 150 0 C167.82 0 185.64 0 204 0 C194.03268173 11.62853798 183.57111488 22.56456094 172.71681976 33.35834503 C170.36761022 35.69459032 168.02171494 38.03412101 165.67657471 40.37445068 C160.70388586 45.33581632 155.72724112 50.29320177 150.75 55.25 C144.96178086 61.01451864 139.17524913 66.78071105 133.39292145 72.55113983 C131.09349543 74.84413495 128.79105599 77.1340736 126.48846436 79.42388916 C125.06865795 80.84006058 123.64899314 82.25637397 122.22949219 83.67285156 C121.28328506 84.6113092 121.28328506 84.6113092 120.31796265 85.56872559 C116.54274745 89.34349689 112.97205785 93.24242006 109.49681473 97.29549789 C107.24537393 99.85933262 104.73497594 102.09739205 102.1875 104.359375 C100.77147803 105.91707397 100.77147803 105.91707397 101.25683594 107.84423828 C102.09780562 110.2837134 103.2097458 112.02885648 104.703125 114.1328125 C105.26499512 114.93009766 105.82686523 115.72738281 106.40576172 116.54882812 C107.01436035 117.39896484 107.62295898 118.24910156 108.25 119.125 C108.87535645 120.00865234 109.50071289 120.89230469 110.14501953 121.80273438 C114.88949191 128.49154525 119.69986295 135.13283358 124.5222168 141.765625 C127.46594785 145.82731437 130.31722419 149.92501102 133.0625 154.125 C136.09589521 158.75124499 139.34053615 163.16235963 142.6875 167.5625 C147.75500758 174.22768906 152.51689139 181.06249475 157.20922852 187.99560547 C160.58442797 192.96921126 164.04301954 197.86090038 167.625 202.6875 C171.56434737 208.00467721 175.4158667 213.37482797 179.1875 218.8125 C179.91090576 219.84540161 179.91090576 219.84540161 180.64892578 220.89916992 C184 225.76357304 184 225.76357304 184 228 C184.66 228 185.32 228 186 228 C187.7740763 230.36240245 189.4312402 232.7287815 191.0625 235.1875 C192.04904631 236.6526353 193.03603241 238.11747456 194.0234375 239.58203125 C194.7673877 240.69118896 194.7673877 240.69118896 195.52636719 241.82275391 C196.90523148 243.8599825 198.30775221 245.87717124 199.7265625 247.88671875 C200.35099243 248.77290894 200.35099243 248.77290894 200.98803711 249.67700195 C202.12992094 251.29348924 203.27388986 252.90850303 204.41796875 254.5234375 C206 257 206 257 206 259 C197.63789486 259.46669557 189.28134293 259.8202528 180.90937614 260.03624344 C177.01965976 260.14001472 173.13893058 260.28014154 169.25439453 260.50878906 C144.29006126 261.93988701 144.29006126 261.93988701 137.27047729 257.1295166 C132.81257357 252.57139834 129.9587649 247.39236153 127.30593872 241.64100647 C125.10867958 237.19747822 122.19038909 233.27143726 119.3125 229.25 C118.23596759 227.68085993 117.16257929 226.10955344 116.09375 224.53515625 C109.38322908 214.69738197 102.6592733 204.88033604 95.69848633 195.2175293 C92.2645653 190.42580613 89.00045814 185.53185249 85.75415039 180.61181641 C82.48833536 175.68206701 79.08049995 170.86861309 75.62036133 166.07397461 C72.25649256 161.39864306 69.04539015 156.63320884 65.88671875 151.81640625 C63.66211164 148.49561592 61.32324659 145.25254523 59 142 C58.67 180.61 58.34 219.22 58 259 C38.86 259 19.72 259 0 259 C0 173.53 0 88.06 0 0 Z " fill="#FDFDFD" transform="translate(1242,360)"/>
<path d="M0 0 C12.87 0 25.74 0 39 0 C40.7634375 5.07375 40.7634375 5.07375 42.5625 10.25 C46.1113389 20.45418709 49.66335486 30.65724075 53.24462891 40.85009766 C53.907578 42.73695276 54.56913614 44.62429647 55.23046875 46.51171875 C57.11724091 51.85006047 59.05561924 57.16280039 61.0625 62.45703125 C65.12245152 73.17067127 69.07295178 83.88843082 72.61669922 94.78540039 C76.25754061 105.97418824 80.4679372 116.95375784 84.64453125 127.95117188 C86.92123371 133.9871717 89.05397465 140.05226608 91.07080078 146.17993164 C92.40132237 150.21799125 93.78611188 154.23606355 95.1875 158.25 C95.47794189 159.08208984 95.76838379 159.91417969 96.06762695 160.77148438 C98.85763747 168.70244907 101.8081808 176.57125824 104.8034668 184.42675781 C107.02692302 190.28581804 109.09231569 196.17665168 111.05102539 202.12939453 C112.44088529 206.33365814 113.90519373 210.51065089 115.375 214.6875 C115.67390137 215.53908691 115.97280273 216.39067383 116.28076172 217.26806641 C117.18600787 219.84578958 118.09276006 222.42297795 119 225 C119.27134766 225.77134277 119.54269531 226.54268555 119.82226562 227.33740234 C120.58918239 229.51683517 121.35696017 231.69596273 122.125 233.875 C122.36669922 234.56182861 122.60839844 235.24865723 122.85742188 235.95629883 C124.04786691 239.33204929 125.2524901 242.70163196 126.484375 246.0625 C126.71882324 246.70590332 126.95327148 247.34930664 127.19482422 248.01220703 C127.83187792 249.75690183 128.47433776 251.49961997 129.1171875 253.2421875 C130 256 130 256 130 259 C108.88 259 87.76 259 66 259 C62.63184584 250.01825558 62.63184584 250.01825558 61.30859375 245.8046875 C61.00856445 244.85609863 60.70853516 243.90750977 60.39941406 242.93017578 C60.08198242 241.92196777 59.76455078 240.91375977 59.4375 239.875 C56.28105801 229.93355665 53.04579925 220.02089326 49.75 210.125 C49.33806396 208.88476074 48.92612793 207.64452148 48.50170898 206.36669922 C48.10411377 205.1757666 47.70651855 203.98483398 47.296875 202.7578125 C46.94979492 201.7177002 46.60271484 200.67758789 46.24511719 199.60595703 C44.55670642 194.71618702 42.76785842 189.86161067 41 185 C13.94 185 -13.12 185 -41 185 C-42.98 191.6 -44.96 198.2 -47 205 C-48.2177292 208.75513702 -49.44373722 212.49493411 -50.7265625 216.2265625 C-51.19900894 217.61347794 -51.19900894 217.61347794 -51.68099976 219.02841187 C-52.33276085 220.93898053 -52.98627559 222.84895193 -53.64160156 224.75830078 C-54.63571726 227.65624182 -55.62290533 230.55647964 -56.609375 233.45703125 C-57.25220158 235.33867925 -57.89541649 237.22019464 -58.5390625 239.1015625 C-58.82770172 239.94965485 -59.11634094 240.79774719 -59.41372681 241.67153931 C-61.43405989 247.54302584 -63.68715061 253.21787652 -66 259 C-77.55 259 -89.1 259 -101 259 C-100.17814825 254.89074127 -99.15914801 251.35725031 -97.75 247.4375 C-97.35296875 246.32246094 -96.9559375 245.20742188 -96.546875 244.05859375 C-94.93725446 239.73459053 -93.14096155 235.49048982 -91.35595703 231.23657227 C-85.54700439 217.37101859 -79.84274649 203.46392193 -74.66015625 189.3515625 C-72.39273143 183.30411154 -69.89150693 177.34841002 -67.4375 171.375 C-64.10881511 163.2704 -60.89385126 155.17953402 -58.03125 146.8984375 C-56.23307388 141.8444728 -54.0966278 136.93568753 -52 132 C-48.29875349 123.18569129 -44.71403967 114.34851253 -41.41259766 105.37646484 C-38.86637126 98.51918496 -36.05133372 91.7759314 -33.25537109 85.01757812 C-30.67184804 78.73813609 -28.32998707 72.42713847 -26.10546875 66.01171875 C-24.71377939 62.22022584 -23.02487689 58.61188567 -21.3125 54.95703125 C-18.56471887 48.76634578 -16.32975972 42.35737982 -14 36 C-7.95095899 19.49355476 -7.95095899 19.49355476 -4.17578125 11.72265625 C-2.53123513 7.91452123 -1.31173261 3.93519782 0 0 Z " fill="#FDFDFD" transform="translate(1072,360)"/>
<path d="M0 0 C17.82 0 35.64 0 54 0 C54 85.47 54 170.94 54 259 C36.18 259 18.36 259 0 259 C0 173.53 0 88.06 0 0 Z " fill="#FDFDFD" transform="translate(1493,360)"/>
<path d="M0 0 C0.66 0 1.32 0 2 0 C2.63615234 1.85238281 2.63615234 1.85238281 3.28515625 3.7421875 C6.21468428 12.22026863 9.19842576 20.65888483 12.5 29 C15.27374272 36.01866744 17.83178263 43.09259335 20.29150391 50.22705078 C21.8768999 54.81748065 23.50050186 59.38967491 25.18359375 63.9453125 C25.73092163 65.4288623 25.73092163 65.4288623 26.28930664 66.94238281 C26.99635109 68.85221368 27.70756828 70.76050659 28.42358398 72.66699219 C28.74528564 73.53743164 29.0669873 74.40787109 29.3984375 75.3046875 C29.68380371 76.06765137 29.96916992 76.83061523 30.26318359 77.61669922 C31 80 31 80 32 86 C10.88 86 -10.24 86 -32 86 C-30.17663169 79.92210562 -28.36307309 73.90998758 -26.25 67.9375 C-25.86811523 66.8546875 -25.86811523 66.8546875 -25.47851562 65.75 C-23.37849315 59.88214058 -21.03181727 54.13664298 -18.61303711 48.39428711 C-16.19663272 42.60895378 -14.10276908 36.74002543 -12.05859375 30.81469727 C-10.59021446 26.58669252 -8.97443797 22.51850312 -7.078125 18.46875 C-4.44097704 12.43006336 -2.27557304 6.18197342 0 0 Z " fill="#0B2341" transform="translate(1072,432)"/>
<path d="M0 0 C1.09183594 -0.00515625 2.18367188 -0.0103125 3.30859375 -0.015625 C10.45847838 0.56803905 16.15240556 3.68190595 21.5625 8.25 C27.69479182 15.64520542 30.11080872 22.30839285 29.9375 31.89453125 C29.09586017 39.42545428 25.17859255 45.64531157 19.6328125 50.7109375 C12.21130836 56.22805567 4.73864579 58.47067994 -4.4375 57.25 C-12.8301286 55.77896731 -18.91198088 49.48535519 -24.18359375 43.15234375 C-28.42906951 36.71798246 -28.50457558 29.71952904 -27.4375 22.25 C-24.52301457 13.59833853 -19.27925971 6.8963649 -11.4375 2.25 C-7.5173918 0.34274197 -4.3450871 -0.02047155 0 0 Z " fill="#EFF45E" transform="translate(1149.4375,678.75)"/>
<path d="M0 0 C6.90995086 4.14597052 12.91001312 10.188852 15.44921875 17.984375 C16.86198527 25.71891494 16.55217699 34.07472937 12.8359375 41.1015625 C8.05260256 47.87795366 2.10173625 53.26471833 -6.1640625 55.1015625 C-15.90913545 56.02169814 -23.02755503 54.43269258 -30.8515625 48.5390625 C-36.85346252 42.88774076 -40.34858018 36.42759182 -40.87719727 28.12426758 C-41.04079537 18.87068199 -38.55725663 12.76988596 -32.23046875 6.046875 C-23.47424 -2.18022492 -11.33052335 -5.11546835 0 0 Z " fill="#F0F55E" transform="translate(653.1640625,680.8984375)"/>
<path d="M0 0 C5.61 0 11.22 0 17 0 C28 21.74418605 28 21.74418605 28 25 C28.66 25 29.32 25 30 25 C30.33 23.845 30.66 22.69 31 21.5 C33.47795435 13.96943628 37.39463474 7.03341747 41 0 C46.61 0 52.22 0 58 0 C58 18.48 58 36.96 58 56 C52.72 56 47.44 56 42 56 C41.505 43.13 41.505 43.13 41 30 C39.10970019 34.84419487 39.10970019 34.84419487 37.23095703 39.69287109 C35.22222222 44.77777778 35.22222222 44.77777778 33 47 C29.98173347 47.27240673 27.03629378 47.08675125 24 47 C21.69 42.05 19.38 37.1 17 32 C16.67 39.92 16.34 47.84 16 56 C10.72 56 5.44 56 0 56 C0 37.52 0 19.04 0 0 Z " fill="#ECF15D" transform="translate(912,679)"/>
<path d="M0 0 C6.71056935 3.89610358 11.73208334 9.76671299 14.5625 17 C16.56744682 25.20205519 16.25370468 33.35092567 12.5625 41 C8.29304249 47.89031261 1.16853793 52.46465402 -6.4375 55 C-15.35112842 55.82759716 -23.19052361 54.97803392 -30.47265625 49.45703125 C-36.39461165 43.96256307 -40.08388658 37.14099515 -40.640625 29.046875 C-40.77213126 19.79760121 -40.2485308 13.73969105 -33.875 6.8125 C-24.29684893 -2.00078964 -12.41526383 -5.55568884 0 0 Z " fill="#F1F55E" transform="translate(888.4375,681)"/>
<path d="M0 0 C5.61 0 11.22 0 17 0 C18.29347217 2.72832386 19.58483296 5.45761369 20.875 8.1875 C21.23980469 8.95642578 21.60460937 9.72535156 21.98046875 10.51757812 C27 21.14985795 27 21.14985795 27 25 C27.66 25 28.32 25 29 25 C29.10699219 24.46890625 29.21398437 23.9378125 29.32421875 23.390625 C30.18578157 20.34278426 31.47002838 17.618471 32.8125 14.75 C33.34746094 13.60660156 33.88242187 12.46320312 34.43359375 11.28515625 C36.24005315 7.49654688 38.09370883 3.73926344 40 0 C45.61 0 51.22 0 57 0 C57 18.15 57 36.3 57 55 C52.05 55 47.1 55 42 55 C41.67 46.09 41.34 37.18 41 28 C39.68 31.3 38.36 34.6 37 38 C35.69572922 40.68100105 34.37240063 43.35322736 33 46 C29.7 46 26.4 46 23 46 C20.44374272 40.35860461 18.18375629 34.82335009 16 29 C15.67 37.58 15.34 46.16 15 55 C10.05 55 5.1 55 0 55 C0 36.85 0 18.7 0 0 Z " fill="#F3F75E" transform="translate(678,680)"/>
<path d="M0 0 C5.28 0 10.56 0 16 0 C16 18.48 16 36.96 16 56 C3 56 3 56 -0.39453125 53.5078125 C-1.64868164 51.88427734 -1.64868164 51.88427734 -2.8125 50.125 C-3.25134521 49.53799316 -3.69019043 48.95098633 -4.14233398 48.34619141 C-5.03096141 47.1547808 -5.90381958 45.95143071 -6.75976562 44.73632812 C-8.57951856 42.18867401 -10.57435875 39.79223648 -12.5625 37.375 C-14.49480723 34.956603 -16.28088732 32.57866902 -18 30 C-18.33 38.58 -18.66 47.16 -19 56 C-23.95 56 -28.9 56 -34 56 C-34 37.85 -34 19.7 -34 1 C-21 1 -21 1 -17.640625 3.67578125 C-16.80094717 4.85877563 -16.00452626 6.07345815 -15.25 7.3125 C-14.36478802 8.59349046 -13.47804512 9.87342423 -12.58984375 11.15234375 C-12.16300293 11.79671387 -11.73616211 12.44108398 -11.29638672 13.10498047 C-9.3057913 16.01477363 -7.07329871 18.66980092 -4.8125 21.375 C-2.9253125 23.664375 -2.9253125 23.664375 -1 26 C-0.67 17.42 -0.34 8.84 0 0 Z " fill="#F1F55E" transform="translate(1221,679)"/>
<path d="M0 0 C4.640625 -0.061875 9.28125 -0.12375 14.0625 -0.1875 C16.23791382 -0.22846802 16.23791382 -0.22846802 18.45727539 -0.27026367 C32.28781702 -0.35959212 32.28781702 -0.35959212 38.1796875 4.97265625 C38.73914063 5.66230469 39.29859375 6.35195313 39.875 7.0625 C40.44992187 7.75472656 41.02484375 8.44695313 41.6171875 9.16015625 C45.46210005 14.27584499 44.52254832 20.87573369 44 27 C42.97869877 29.66699989 41.96964499 30.85656281 40 33 C39.34 33.99 38.68 34.98 38 36 C42.09927427 43.58080838 42.09927427 43.58080838 46.375 51.0625 C48 54 48 54 48 56 C42.39 56 36.78 56 31 56 C30.41992188 54.85660156 29.83984375 53.71320312 29.2421875 52.53515625 C28.45423878 51.04368189 27.6651145 49.55282816 26.875 48.0625 C26.49601563 47.30775391 26.11703125 46.55300781 25.7265625 45.77539062 C25.14648438 44.69741211 25.14648438 44.69741211 24.5546875 43.59765625 C24.20905762 42.93258057 23.86342773 42.26750488 23.50732422 41.58227539 C21.66000007 39.32584246 21.66000007 39.32584246 16 39 C16 44.61 16 50.22 16 56 C10.72 56 5.44 56 0 56 C0 37.52 0 19.04 0 0 Z " fill="#EEF35E" transform="translate(487,679)"/>
<path d="M0 0 C5.115 -0.12375 10.23 -0.2475 15.5 -0.375 C17.89668945 -0.45693604 17.89668945 -0.45693604 20.34179688 -0.54052734 C33.02800618 -0.68911896 33.02800618 -0.68911896 38.53710938 4.31005859 C43.78991072 10.37813118 44.53705331 15.09567691 44 23 C43.13930623 26.72967299 42.26894097 28.67727083 39.8125 31.625 C39.214375 32.40875 38.61625 33.1925 38 34 C38.40199888 36.97707795 39.57503931 39.27635726 41.06640625 41.85546875 C41.46923828 42.55994141 41.87207031 43.26441406 42.28710938 43.99023438 C42.70798828 44.71533203 43.12886719 45.44042969 43.5625 46.1875 C48 53.8841047 48 53.8841047 48 55 C36.37779861 56.8013745 36.37779861 56.8013745 31 55 C26.48464442 51.14928178 24.13410589 45.41126564 22 40 C22 39.34 22 38.68 22 38 C19.69 38 17.38 38 15 38 C15 43.61 15 49.22 15 55 C10.05 55 5.1 55 0 55 C0 36.85 0 18.7 0 0 Z " fill="#F3F75E" transform="translate(797,680)"/>
<path d="M0 0 C4.29 0 8.58 0 13 0 C16.39265482 3.39265482 18.46339531 6.05750593 21 10 C22.75142961 12.34421082 24.56568383 14.63782963 26.375 16.9375 C28.67174084 19.90633158 30.91645143 22.87467714 33 26 C33.33 17.42 33.66 8.84 34 0 C38.95 0 43.9 0 49 0 C49 18.15 49 36.3 49 55 C37 55 37 55 33.484375 52.2890625 C32.53535015 51.09666403 31.62423608 49.87326823 30.75 48.625 C30.26112305 47.99174805 29.77224609 47.35849609 29.26855469 46.70605469 C28.28523405 45.42831894 27.3164269 44.13926769 26.36328125 42.83886719 C24.4259637 40.22570892 22.33131509 37.74904383 20.25 35.25 C17 31.2601626 17 31.2601626 17 29 C16.34 29 15.68 29 15 29 C15 37.58 15 46.16 15 55 C10.05 55 5.1 55 0 55 C0 36.85 0 18.7 0 0 Z " fill="#F4F85E" transform="translate(275,680)"/>
<path d="M0 0 C12.87 0 25.74 0 39 0 C39 4.62 39 9.24 39 14 C31.41 14 23.82 14 16 14 C16 16.31 16 18.62 16 21 C22.6 21 29.2 21 36 21 C36 25.29 36 29.58 36 34 C29.4 34 22.8 34 16 34 C16 36.97 16 39.94 16 43 C23.92 43 31.84 43 40 43 C40 47.29 40 51.58 40 56 C26.8 56 13.6 56 0 56 C0 37.52 0 19.04 0 0 Z " fill="#EDF15E" transform="translate(1057,679)"/>
<path d="M0 0 C12.87 0 25.74 0 39 0 C39 4.29 39 8.58 39 13 C31.41 13 23.82 13 16 13 C16 15.31 16 17.62 16 20 C22.6 20 29.2 20 36 20 C36 24.29 36 28.58 36 33 C29.4 33 22.8 33 16 33 C16 35.64 16 38.28 16 41 C23.92 41 31.84 41 40 41 C40 45.62 40 50.24 40 55 C26.8 55 13.6 55 0 55 C0 36.85 0 18.7 0 0 Z " fill="#EEF25E" transform="translate(336,680)"/>
<path d="M0 0 C12.87 0 25.74 0 39 0 C39 4.29 39 8.58 39 13 C31.08 13 23.16 13 15 13 C15 15.31 15 17.62 15 20 C21.93 20 28.86 20 36 20 C36 24.29 36 28.58 36 33 C29.4 33 22.8 33 16 33 C16 35.64 16 38.28 16 41 C23.92 41 31.84 41 40 41 C40 45.62 40 50.24 40 55 C26.8 55 13.6 55 0 55 C0 36.85 0 18.7 0 0 Z " fill="#EEF25E" transform="translate(1415,680)"/>
<path d="M0 0 C12.87 0 25.74 0 39 0 C39 4.62 39 9.24 39 14 C31.08 14 23.16 14 15 14 C15 16.31 15 18.62 15 21 C21.93 21 28.86 21 36 21 C36 25.29 36 29.58 36 34 C29.07 34 22.14 34 15 34 C15 36.97 15 39.94 15 43 C22.92 43 30.84 43 39 43 C39 47.29 39 51.58 39 56 C26.13 56 13.26 56 0 56 C0 37.52 0 19.04 0 0 Z " fill="#EEF25E" transform="translate(439,679)"/>
<path d="M0 0 C0.66 0.433125 1.32 0.86625 2 1.3125 C0.68139111 5.92763112 -1.21355437 9.41147612 -4 13.3125 C-4.54527344 13.0959375 -5.09054687 12.879375 -5.65234375 12.65625 C-11.3594197 10.54902196 -15.9262767 10.02327508 -22 10.3125 C-22 11.3025 -22 12.2925 -22 13.3125 C-21.45585449 13.49312988 -20.91170898 13.67375977 -20.35107422 13.85986328 C-17.85249639 14.70086875 -15.36410192 15.56886912 -12.875 16.4375 C-12.0190625 16.72109375 -11.163125 17.0046875 -10.28125 17.296875 C-4.46153684 19.35615812 -0.96160511 21.54085423 3 26.3125 C4.55705194 30.98365582 4.7163193 35.44418177 4 40.3125 C1.30561565 45.61600337 -2.22235953 49.23145156 -7.8203125 51.41015625 C-16.29088446 53.81396721 -24.47149083 52.54605275 -32.75 50.0625 C-33.45366699 49.85810303 -34.15733398 49.65370605 -34.88232422 49.44311523 C-39.63885679 47.88834348 -39.63885679 47.88834348 -41.13671875 45.5 C-40.938699 42.33168403 -39.65337896 40.28972108 -38.0625 37.5625 C-37.49660156 36.57765625 -36.93070313 35.5928125 -36.34765625 34.578125 C-35.68056641 33.45664062 -35.68056641 33.45664062 -35 32.3125 C-34.16597656 32.6734375 -33.33195313 33.034375 -32.47265625 33.40625 C-25.63572515 36.22560303 -20.39665623 37.93933527 -13 37.3125 C-13.41986921 35.32543267 -13.41986921 35.32543267 -15 33.3125 C-17.64542415 32.02009684 -20.43458751 31.21962375 -23.25 30.375 C-29.26723605 28.56363649 -33.44092157 26.72291283 -38 22.3125 C-40.24280045 17.8268991 -39.58484931 12.16731713 -39 7.3125 C-36.76829334 2.05028392 -32.70168318 -1.80215632 -27.46875 -4.06640625 C-17.58187859 -6.55376789 -8.69898586 -4.89317955 0 0 Z " fill="#EFF45E" transform="translate(1045,683.6875)"/>
<path d="M0 0 C7.48761575 -0.38583527 13.9167108 1.72663514 20.92578125 4.1875 C20.92578125 4.8475 20.92578125 5.5075 20.92578125 6.1875 C21.58578125 6.1875 22.24578125 6.1875 22.92578125 6.1875 C21.35936374 10.49514815 19.24241969 14.24921464 16.92578125 18.1875 C14.47499673 17.59931172 12.08710644 16.92944621 9.67578125 16.1875 C5.71480876 15.13124067 1.99565791 14.61590807 -2.07421875 14.1875 C-1.84918063 16.15599577 -1.84918063 16.15599577 -1.07421875 18.1875 C1.65662023 19.32883533 4.2284004 20.22656536 7.05078125 21.0625 C14.10092838 23.34070072 20.02085219 25.35930757 24.05859375 32.0703125 C25.94756711 36.68213034 25.82226567 41.84223271 24.05078125 46.4765625 C21.20953002 51.46744459 18.15477721 53.89408072 12.92578125 56.1875 C10.11328125 56.9375 10.11328125 56.9375 6.92578125 57.1875 C6.25417969 57.26226563 5.58257813 57.33703125 4.890625 57.4140625 C-0.95728318 57.78504833 -6.07862142 56.59270953 -11.63671875 54.9375 C-12.3519873 54.73302246 -13.06725586 54.52854492 -13.80419922 54.31787109 C-18.73022828 52.74558245 -18.73022828 52.74558245 -20.19140625 50.375 C-20.02814759 47.327505 -18.97155303 45.17228242 -17.63671875 42.4375 C-17.16363281 41.45265625 -16.69054688 40.4678125 -16.203125 39.453125 C-15.64431641 38.33164062 -15.64431641 38.33164062 -15.07421875 37.1875 C-11.36925816 38.17044873 -8.16721144 39.14272574 -4.69921875 40.8125 C-0.30840311 42.4779818 3.29586892 42.47096402 7.92578125 42.1875 C7.2872564 39.13609182 7.2872564 39.13609182 5.23925781 38.26782227 C4.16369629 37.88968384 4.16369629 37.88968384 3.06640625 37.50390625 C2.28007813 37.21580078 1.49375 36.92769531 0.68359375 36.63085938 C-0.14398437 36.34017578 -0.9715625 36.04949219 -1.82421875 35.75 C-8.58822094 33.36112621 -13.93405273 31.39774903 -18.07421875 25.1875 C-18.74473313 19.8545717 -19.02382958 14.13406096 -16.51171875 9.25 C-13.21167158 5.10378689 -9.79965434 2.14508548 -4.76171875 0.375 C-3.17342552 0.26418884 -1.58568862 0.14333908 0 0 Z " fill="#F0F45E" transform="translate(1284.07421875,678.8125)"/>
<path d="M0 0 C5.07375 -0.020625 10.1475 -0.04125 15.375 -0.0625 C16.97520996 -0.071604 18.57541992 -0.08070801 20.22412109 -0.09008789 C22.10478271 -0.09383423 22.10478271 -0.09383423 24.0234375 -0.09765625 C25.31169434 -0.10289307 26.59995117 -0.10812988 27.92724609 -0.11352539 C31 0 31 0 33 1 C33 1.66 33 2.32 33 3 C33.556875 3.20625 34.11375 3.4125 34.6875 3.625 C38.54624457 5.91938866 41.3516026 9.10468453 42.8125 13.375 C43.62020202 24.68282828 43.62020202 24.68282828 40 30 C31.79666324 38.11945806 31.79666324 38.11945806 24.69287109 38.09008789 C23.92797363 38.08098389 23.16307617 38.07187988 22.375 38.0625 C19.94125 38.041875 17.5075 38.02125 15 38 C15 43.61 15 49.22 15 55 C10.05 55 5.1 55 0 55 C0 36.85 0 18.7 0 0 Z " fill="#F3F75E" transform="translate(746,680)"/>
<path d="M0 0 C5.61 0 11.22 0 17 0 C20.85114729 6.84648406 22.99995232 14.07157747 25.25097656 21.55615234 C26.07676948 24.25047668 26.93720463 26.93209468 27.8046875 29.61328125 C28.11623779 30.5779834 28.42778809 31.54268555 28.7487793 32.53662109 C29.35969027 34.42448693 29.9730088 36.31157594 30.58911133 38.19775391 C32.37802312 43.75795377 33.8185394 49.2789371 35 55 C29.72 55 24.44 55 19 55 C18.34 51.37 17.68 47.74 17 44 C11.72 44 6.44 44 1 44 C0.34 47.63 -0.32 51.26 -1 55 C-6.28 55 -11.56 55 -17 55 C-15.59669734 46.29952349 -12.83329221 38.18880142 -9.98291016 29.88427734 C-7.99769509 24.05881019 -6.06706023 18.2149623 -4.125 12.375 C-3.33612559 10.00774981 -2.54707811 7.64055729 -1.7578125 5.2734375 C-1.17773438 3.53320312 -0.59765625 1.79296875 0 0 Z " fill="#F1F55E" transform="translate(1328,680)"/>
<path d="M0 0 C3.04821377 2.24666812 5.00746693 4.28366521 7.03515625 7.5 C5.83564175 11.09854349 4.75590402 11.68616815 1.66015625 13.75 C0.86867188 14.29140625 0.0771875 14.8328125 -0.73828125 15.390625 C-2.96484375 16.5 -2.96484375 16.5 -5.96484375 15.5 C-5.96484375 14.84 -5.96484375 14.18 -5.96484375 13.5 C-10.69219082 10.97874823 -15.73960826 10.63341743 -20.96484375 11.5 C-23.78908663 13.69022918 -25.37992978 15.33017207 -26.96484375 18.5 C-27.48983758 24.67877357 -27.73612462 30.29823328 -23.96484375 35.5 C-21.07551587 37.90777323 -19.27006239 38.46115399 -15.52734375 38.9375 C-11.33038136 38.42208357 -9.22553835 37.13960991 -5.96484375 34.5 C-5.46984375 33.51 -5.46984375 33.51 -4.96484375 32.5 C-0.29378583 34.05701931 3.1222131 36.58447373 7.03515625 39.5 C6.15791187 43.69127868 4.51006127 46.02533417 1.03515625 48.5 C-6.34398346 52.53701814 -13.53907404 55.01960363 -21.96484375 53.5 C-30.52738202 50.65000559 -37.16730879 45.32972789 -41.33984375 37.3125 C-44.63514966 30.27773825 -45.3650508 22.26753426 -43.1640625 14.7734375 C-39.65606201 6.98591751 -33.92812842 2.03650219 -26.83984375 -2.5 C-18.19723083 -5.56218453 -7.81871302 -4.59463603 0 0 Z " fill="#EFF45E" transform="translate(601.96484375,682.5)"/>
<path d="M0 0 C5.28 0 10.56 0 16 0 C19.85590403 11.89821815 23.07259291 23.8419178 26 36 C26.21914063 35.16082031 26.43828125 34.32164062 26.6640625 33.45703125 C29.616732 22.25849205 32.79305933 11.12808413 36 0 C41.28 0 46.56 0 52 0 C51.48899606 5.59641663 50.43213065 9.97654733 48.1875 15.1875 C46.24153726 19.82738511 44.48273893 24.41501268 43.0625 29.25 C40.49171946 37.99065385 37.2042159 46.47642569 34 55 C28.72 55 23.44 55 18 55 C15.6875 47.9375 15.6875 47.9375 14.97924805 45.75756836 C13.9230428 42.56197086 12.78374759 39.49650324 11.453125 36.3984375 C10.08006028 33.18723775 9.03480572 30.0384077 8.0625 26.6875 C6.84904031 22.62403728 5.53111127 18.7157511 3.875 14.8125 C1.84839 9.95342328 0.88848106 5.1828062 0 0 Z " fill="#F0F55E" transform="translate(380,680)"/>
<path d="M0 0 C12.54 0 25.08 0 38 0 C38 4.62 38 9.24 38 14 C30.74 14 23.48 14 16 14 C16 16.97 16 19.94 16 23 C21.94 23 27.88 23 34 23 C34 26.96 34 30.92 34 35 C28.06 35 22.12 35 16 35 C16 41.93 16 48.86 16 56 C10.72 56 5.44 56 0 56 C0 37.52 0 19.04 0 0 Z " fill="#ECF15D" transform="translate(1369,679)"/>
<path d="M0 0 C5.28 0 10.56 0 16 0 C19.3850895 6.51943164 22.23345343 13.19701662 25 20 C28.88375547 13.57686595 31.90020183 6.83364596 35 0 C40.61 0 46.22 0 52 0 C48.74921064 7.51044439 45.10911145 14.75237323 41.3125 22 C40.82483154 22.93223389 40.33716309 23.86446777 39.8347168 24.82495117 C37.99366001 28.32043881 36.19336317 31.70995524 34 35 C33.6349209 37.22131423 33.6349209 37.22131423 33.5859375 39.66796875 C33.54726562 40.56064453 33.50859375 41.45332031 33.46875 42.37304688 C33.42234375 43.76620117 33.42234375 43.76620117 33.375 45.1875 C33.33632812 46.12787109 33.29765625 47.06824219 33.2578125 48.03710938 C33.16357326 50.35775066 33.08069877 52.67884841 33 55 C28.05 55 23.1 55 18 55 C18.020625 53.80246094 18.04125 52.60492187 18.0625 51.37109375 C18.01237315 40.80958526 16.60537154 33.29536734 11.0078125 24.296875 C8.96996717 20.95068539 7.50014973 17.61418186 6 14 C4.43381568 10.8409567 2.82306483 7.70798704 1.20703125 4.57421875 C0 2 0 2 0 0 Z " fill="#F2F65E" transform="translate(1510,680)"/>
<path d="M0 0 C15.51 0 31.02 0 47 0 C47 4.29 47 8.58 47 13 C41.72 13 36.44 13 31 13 C31 26.86 31 40.72 31 55 C25.72 55 20.44 55 15 55 C15 41.14 15 27.28 15 13 C10.05 13 5.1 13 0 13 C0 8.71 0 4.42 0 0 Z " fill="#F0F55E" transform="translate(1460,680)"/>
<path d="M0 0 C4.95 0 9.9 0 15 0 C15 18.15 15 36.3 15 55 C10.05 55 5.1 55 0 55 C0 36.85 0 18.7 0 0 Z " fill="#F4F85E" transform="translate(981,680)"/>
<path d="M0 0 C4.2354662 0.10360133 6.91277737 0.42303885 10.1875 3.3125 C14.05780501 7.60121636 14.87315866 11.16783215 14.64453125 16.7734375 C13.8978596 20.92161332 12.05251929 24.23637403 9.1875 27.3125 C5.08211547 29.89423666 0.90563725 30.16344975 -3.8125 29.3125 C-6.75 26.9375 -6.75 26.9375 -8.8125 24.3125 C-9.4725 23.6525 -10.1325 22.9925 -10.8125 22.3125 C-12.27047348 18.52176895 -12.47384598 14.29495299 -11.8125 10.3125 C-9.15554638 4.66151655 -6.60822062 0.02972213 0 0 Z " fill="#112942" transform="translate(639.8125,692.6875)"/>
<path d="M0 0 C3.45658479 2.04573386 4.7785359 3.66780385 7 7 C7.76415491 13.78807742 7.65792867 20.12118606 4 26 C1.8125 26.9375 1.8125 26.9375 0 27 C0 27.66 0 28.32 0 29 C-8.83847052 29.61783483 -8.83847052 29.61783483 -12.9375 27.4375 C-17.17511928 22.42940448 -18.52932975 17.50682834 -18.2890625 11.07421875 C-17.87711013 8.11818216 -16.85449228 6.31811535 -15 4 C-14.505 3.236875 -14.01 2.47375 -13.5 1.6875 C-9.34168832 -1.11936038 -4.84880449 -0.72660127 0 0 Z " fill="#0F2742" transform="translate(881,693)"/>
<path d="M0 0 C4.28070202 1.76811605 5.92544632 3.93179446 8 8 C8.88895159 12.99604574 9.03077722 17.90603119 6.7578125 22.5234375 C4.36143439 25.82590882 2.93312442 27.68895853 -1 29 C-5.63382831 29.45578639 -8.62698313 29.75013484 -12.375 26.8125 C-16.94078692 21.92058544 -17.54896992 17.2487738 -17.4609375 10.734375 C-16.72365206 6.36064784 -14.35665896 3.76533044 -11 1 C-7.54820431 -0.72589785 -3.78133961 -0.36043965 0 0 Z " fill="#0E2742" transform="translate(1155,693)"/>
<path d="M0 0 C10.46499796 -0.36935287 10.46499796 -0.36935287 12.8671875 1.2890625 C14 3 14 3 13.8125 6.5625 C13 10 13 10 11 12 C7.31975395 12.27629475 3.69505443 12.0859315 0 12 C0 8.04 0 4.08 0 0 Z " fill="#1E3445" transform="translate(812,693)"/>
<path d="M0 0 C8.3984375 -0.29296875 8.3984375 -0.29296875 11 0 C13.31282587 3.46923881 13.42478586 4.92205575 13 9 C11.8046875 10.67578125 11.8046875 10.67578125 10 12 C7.51953125 12.29296875 7.51953125 12.29296875 4.8125 12.1875 C3.224375 12.125625 1.63625 12.06375 0 12 C0 8.04 0 4.08 0 0 Z " fill="#152C43" transform="translate(503,693)"/>
<path d="M0 0 C3.63 0 7.26 0 11 0 C12.50934217 3.01868434 12.17510672 5.67297229 12 9 C11.01 10.485 11.01 10.485 10 12 C7.6171875 12.29296875 7.6171875 12.29296875 4.875 12.1875 C2.461875 12.0946875 2.461875 12.0946875 0 12 C0 8.04 0 4.08 0 0 Z " fill="#1E3444" transform="translate(761,693)"/>
<path d="M0 0 C0.66 0.33 1.32 0.66 2 1 C2.5625 2.75 2.5625 2.75 3 5 C3.16242188 5.80308594 3.32484375 6.60617187 3.4921875 7.43359375 C3.65976563 8.28050781 3.82734375 9.12742187 4 10 C4.37069738 11.68845039 4.74547344 13.37601228 5.125 15.0625 C5.558125 17.0115625 5.558125 17.0115625 6 19 C2.7 19 -0.6 19 -4 19 C-3.37968409 12.42465139 -1.85102717 6.33307408 0 0 Z " fill="#263B48" transform="translate(1336,695)"/>
</svg>
