<?xml version="1.0" encoding="UTF-8"?>
<svg version="1.1" xmlns="http://www.w3.org/2000/svg" width="329" height="77">
<path d="M0 0 C9.16835379 5.64612291 16.27368944 13.34841206 19.71484375 23.671875 C19.99716846 27.20852748 19.99248129 30.7502004 20.02734375 34.296875 C20.07084961 35.73740234 20.07084961 35.73740234 20.11523438 37.20703125 C20.20098687 46.93004437 16.94492736 54.06157047 10.8203125 61.53125 C3.15304887 69.32653844 -6.80602887 73.47555734 -17.66015625 74.109375 C-28.63074874 73.61961641 -38.31271991 69.08139711 -46.28515625 61.671875 C-48.66832806 58.83546193 -50.59285256 55.96427352 -52.28515625 52.671875 C-52.82011719 51.64578125 -53.35507812 50.6196875 -53.90625 49.5625 C-57.48604573 40.9698392 -56.66945043 28.63606547 -54.21875 19.84765625 C-48.88069819 8.48793291 -40.59633536 2.51473539 -29.28515625 -2.328125 C-20.13122528 -5.37943532 -8.54710257 -4.17389371 0 0 Z M-43.59765625 9.359375 C-51.50417287 17.79405974 -53.67522816 26.75644311 -53.55859375 38 C-52.86106428 47.36682434 -48.84008705 55.02626334 -42.28515625 61.671875 C-34.42945998 68.34483633 -25.42892823 71.36424863 -15.14453125 71.015625 C-4.83746891 69.77652461 3.82595567 65.53639644 10.49609375 57.53515625 C17.17830671 48.15057776 18.81590485 39.11778917 17.71484375 27.671875 C15.8255502 18.02388262 10.26019094 10.95920332 2.5625 5.0078125 C-12.2270213 -4.70047212 -30.71347722 -2.60623216 -43.59765625 9.359375 Z " fill="#1F3678" transform="translate(55.28515625,3.328125)"/>
<path d="M0 0 C1.98 0 3.96 0 6 0 C6.33 3.63 6.66 7.26 7 11 C9.05651811 9.17908227 9.05651811 9.17908227 9.875 7.0625 C11.73506189 3.65238654 14.82088198 2.11941201 18 0 C20.33199388 -0.07905064 22.66832622 -0.08798769 25 0 C25 1.32 25 2.64 25 4 C24.40703125 4.25523438 23.8140625 4.51046875 23.203125 4.7734375 C20.78775462 6.11816498 19.48788294 7.49214367 17.75 9.625 C17.22921875 10.25664063 16.7084375 10.88828125 16.171875 11.5390625 C15.78515625 12.02117188 15.3984375 12.50328125 15 13 C15.99 13.33 16.98 13.66 18 14 C20.34264206 17.24365824 21.43589129 20.05123902 22 24 C22.99 24.33 23.98 24.66 25 25 C25.33 25.66 25.66 26.32 26 27 C26.33 18.42 26.66 9.84 27 1 C27.33 1 27.66 1 28 1 C28 10.24 28 19.48 28 29 C16 29 16 29 13.296875 26.8125 C12.78640625 25.884375 12.2759375 24.95625 11.75 24 C10.93789062 22.6078125 10.93789062 22.6078125 10.109375 21.1875 C9.74328125 20.465625 9.3771875 19.74375 9 19 C7.76732652 20.00836062 7.76732652 20.00836062 7.90234375 22.06640625 C7.91394531 22.89011719 7.92554688 23.71382812 7.9375 24.5625 C7.94652344 25.38878906 7.95554688 26.21507813 7.96484375 27.06640625 C7.97644531 27.70449219 7.98804688 28.34257813 8 29 C5.36 29 2.72 29 0 29 C0 19.43 0 9.86 0 0 Z " fill="#01BADD" transform="translate(138,25)"/>
<path d="M0 0 C7.92 0 15.84 0 24 0 C26.9375 9.4375 26.9375 9.4375 27.85913086 12.41577148 C28.10026611 13.18477783 28.34140137 13.95378418 28.58984375 14.74609375 C28.83597412 15.53685303 29.08210449 16.3276123 29.33569336 17.14233398 C29.84686051 18.98943308 29.84686051 18.98943308 31 20 C32.98 13.4 34.96 6.8 37 0 C38.32 0.33 39.64 0.66 41 1 C42.1383126 3.65107013 42.98307777 6.05592104 43.75 8.8125 C43.97042969 9.53759766 44.19085938 10.26269531 44.41796875 11.00976562 C45.44576531 14.49852847 46 17.338279 46 21 C46.66 21 47.32 21 48 21 C48.2475 19.7625 48.495 18.525 48.75 17.25 C50.04818352 11.35173142 52.01439968 5.69655237 54 0 C54.99 0 55.98 0 57 0 C56.37869771 6.30928097 54.50010374 11.96207569 52.4375 17.9375 C52.10814453 18.90751953 51.77878906 19.87753906 51.43945312 20.87695312 C50.6317552 23.25322384 49.81849052 25.62742969 49 28 C47.68 28 46.36 28 45 28 C42.03 18.1 42.03 18.1 39 8 C37.18695059 14.20255193 37.18695059 14.20255193 35.41113281 20.41577148 C35.17749023 21.18477783 34.94384766 21.95378418 34.703125 22.74609375 C34.47270508 23.53685303 34.24228516 24.3276123 34.00488281 25.14233398 C33.67327148 25.75536377 33.34166016 26.36839355 33 27 C31.68 27.33 30.36 27.66 29 28 C26.36 20.08 23.72 12.16 21 4 C18.36 3.67 15.72 3.34 13 3 C13 11.25 13 19.5 13 28 C12.01 28 11.02 28 10 28 C10 19.75 10 11.5 10 3 C6.7 3 3.4 3 0 3 C0 2.01 0 1.02 0 0 Z " fill="#0171AC" transform="translate(9,24)"/>
<path d="M0 0 C6.93 0 13.86 0 21 0 C21 2.64 21 5.28 21 8 C16.71 8 12.42 8 8 8 C8 8.66 8 9.32 8 10 C10.97 10 13.94 10 17 10 C17.625 13.375 17.625 13.375 18 17 C16 19 16 19 14.0546875 19.1953125 C12.03645833 19.13020833 10.01822917 19.06510417 8 19 C8 19.99 8 20.98 8 22 C12.29 22 16.58 22 21 22 C21.33 24.31 21.66 26.62 22 29 C14.74 29 7.48 29 0 29 C0 19.43 0 9.86 0 0 Z M6 8 C7 10 7 10 7 10 Z M6 19 C7 22 7 22 7 22 Z " fill="#00A8D0" transform="translate(167,25)"/>
<path d="M0 0 C0.33 0.66 0.66 1.32 1 2 C1.99 3.485 1.99 3.485 3 5 C3.125 7.6875 3.125 7.6875 3 10 C3.66 10 4.32 10 5 10 C5.144375 10.763125 5.28875 11.52625 5.4375 12.3125 C6.13340462 15.63737762 6.56552823 17.56552823 9 20 C9.57184935 22.9887221 9.73964622 25.96253926 10 29 C7.03 29 4.06 29 1 29 C0.505 26.525 0.505 26.525 0 24 C-5.58500567 24.19898708 -5.58500567 24.19898708 -10 27 C-12 29 -12 29 -15.125 29.125 C-16.548125 29.063125 -16.548125 29.063125 -18 29 C-19.15837626 24.94568308 -18.83691257 22.78187881 -17 19 C-16.34 19 -15.68 19 -15 19 C-14.67 16.36 -14.34 13.72 -14 11 C-13.34 11 -12.68 11 -12 11 C-11.855625 10.278125 -11.71125 9.55625 -11.5625 8.8125 C-11.04166667 6.20833333 -10.52083333 3.60416667 -10 1 C-6.52674819 -0.1577506 -3.63932552 -0.06866652 0 0 Z M-5 7 C-4 10 -4 10 -4 10 Z M-4 10 C-3 12 -3 12 -3 12 Z M-6 11 C-5 13 -5 13 -5 13 Z M-3 12 C-2 15 -2 15 -2 15 Z M4 13 C5 15 5 15 5 15 Z M-14 14 C-13 16 -13 16 -13 16 Z M-2 15 C-3.98 15.33 -5.96 15.66 -8 16 C-8 16.33 -8 16.66 -8 17 C-5.69 17 -3.38 17 -1 17 C-1.33 16.34 -1.66 15.68 -2 15 Z M7 21 C8 23 8 23 8 23 Z M-17 22 C-16 24 -16 24 -16 24 Z M-10 22 C-10 22.33 -10 22.66 -10 23 C-6.37 23 -2.74 23 1 23 C1 22.67 1 22.34 1 22 C-2.63 22 -6.26 22 -10 22 Z M8 23 C9 25 9 25 9 25 Z M-18 25 C-17 27 -17 27 -17 27 Z " fill="#2EBFDA" transform="translate(125,25)"/>
<path d="M0 0 C1.175625 0.0825 2.35125 0.165 3.5625 0.25 C4.2225 1.24 4.8825 2.23 5.5625 3.25 C6.2225 3.91 6.8825 4.57 7.5625 5.25 C7.5625 7.25 7.5625 9.25 7.5625 11.25 C8.2225 11.91 8.8825 12.57 9.5625 13.25 C11.7144437 16.47791555 11.76336443 17.53400809 11.5625 21.25 C12.2225 21.25 12.8825 21.25 13.5625 21.25 C14.6875 27 14.6875 27 13.5625 29.25 C10.9225 29.25 8.2825 29.25 5.5625 29.25 C5.0675 26.775 5.0675 26.775 4.5625 24.25 C1.5925 24.25 -1.3775 24.25 -4.4375 24.25 C-4.7675 24.91 -5.0975 25.57 -5.4375 26.25 C-6.0975 27.24 -6.7575 28.23 -7.4375 29.25 C-11.0625 29.4375 -11.0625 29.4375 -14.4375 29.25 C-14.1075 26.61 -13.7775 23.97 -13.4375 21.25 C-12.7775 21.25 -12.1175 21.25 -11.4375 21.25 C-11.1075 18.61 -10.7775 15.97 -10.4375 13.25 C-9.7775 13.25 -9.1175 13.25 -8.4375 13.25 C-8.1075 10.61 -7.7775 7.97 -7.4375 5.25 C-6.7775 5.25 -6.1175 5.25 -5.4375 5.25 C-5.293125 4.610625 -5.14875 3.97125 -5 3.3125 C-4.06566445 -0.11339701 -3.7966556 0.27612041 0 0 Z M-1.4375 10.25 C-0.4375 12.25 -0.4375 12.25 -0.4375 12.25 Z M0.5625 11.25 C1.5625 13.25 1.5625 13.25 1.5625 13.25 Z M-2.4375 13.25 C-1.4375 15.25 -1.4375 15.25 -1.4375 15.25 Z M-0.4375 13.25 C0.5625 15.25 0.5625 15.25 0.5625 15.25 Z M-3.4375 15.25 C-3.4375 15.91 -3.4375 16.57 -3.4375 17.25 C-1.1275 17.25 1.1825 17.25 3.5625 17.25 C3.5625 16.92 3.5625 16.59 3.5625 16.25 C1.2525 15.92 -1.0575 15.59 -3.4375 15.25 Z M9.5625 16.25 C10.5625 18.25 10.5625 18.25 10.5625 18.25 Z M-5.4375 22.25 C-5.4375 22.58 -5.4375 22.91 -5.4375 23.25 C-1.8075 23.25 1.8225 23.25 5.5625 23.25 C5.5625 22.92 5.5625 22.59 5.5625 22.25 C1.9325 22.25 -1.6975 22.25 -5.4375 22.25 Z M-13.4375 24.25 C-12.4375 26.25 -12.4375 26.25 -12.4375 26.25 Z M12.5625 24.25 C13.5625 26.25 13.5625 26.25 13.5625 26.25 Z " fill="#0288BD" transform="translate(204.4375,24.75)"/>
<path d="M0 0 C8.25 0 16.5 0 25 0 C25 6 25 6 24 8 C21.69 8 19.38 8 17 8 C17 14.93 17 21.86 17 29 C13.7 29 10.4 29 7 29 C7 22.07 7 15.14 7 8 C4.69 8 2.38 8 0 8 C0 5.36 0 2.72 0 0 Z " fill="#56CAE5" transform="translate(85,25)"/>
<path d="M0 0 C1.875 0.1875 1.875 0.1875 4 1 C6.51231684 5.23127046 6.60192606 10.19168581 7 15 C7.66 15 8.32 15 9 15 C9.66 16.32 10.32 17.64 11 19 C11.64845409 16.59145625 12.09715183 14.29217953 12.4375 11.8125 C12.623125 10.884375 12.80875 9.95625 13 9 C13.66 8.67 14.32 8.34 15 8 C15 6.02 15 4.04 15 2 C17 1 17 1 20 0 C20.66 0.33 21.32 0.66 22 1 C22.59355614 3.64860427 22.74209269 6.29197322 23 9 C23.66 9 24.32 9 25 9 C25 11.31 25 13.62 25 16 C26.65 16.33 28.3 16.66 30 17 C30 15.02 30 13.04 30 11 C30.66 11 31.32 11 32 11 C33.32 7.37 34.64 3.74 36 0 C36.66 0 37.32 0 38 0 C38.495 2.475 38.495 2.475 39 5 C38.34 5 37.68 5 37 5 C36.896875 6.299375 36.79375 7.59875 36.6875 8.9375 C36.14604774 13.81830539 35.08481625 18.53111158 33 23 C32.01 23.495 32.01 23.495 31 24 C30.27840576 25.64363134 29.60648579 27.31050386 29 29 C27.35 29 25.7 29 24 29 C23.67 26.03 23.34 23.06 23 20 C22.34 20 21.68 20 21 20 C21 17.69 21 15.38 21 13 C19.68 12.67 18.36 12.34 17 12 C17 14.31 17 16.62 17 19 C16.34 19 15.68 19 15 19 C14.24572703 23.97906259 14.24572703 23.97906259 14 29 C11.69 29 9.38 29 7 29 C6.84724609 27.30810547 6.84724609 27.30810547 6.69140625 25.58203125 C6.08240732 20.70681757 4.58390589 16.29820049 2.9375 11.6875 C2.38003629 10.10950775 1.82647445 8.53013013 1.27734375 6.94921875 C1.03234131 6.26174561 0.78733887 5.57427246 0.53491211 4.8659668 C0 3 0 3 0 0 Z M3 3 C4 5 4 5 4 5 Z M18 5 C18.33 6.65 18.66 8.3 19 10 C19.33 9.01 19.66 8.02 20 7 C19.34 6.34 18.68 5.68 18 5 Z M4 6 C5 8 5 8 5 8 Z M35 9 C36 11 36 11 36 11 Z M34 12 C35 14 35 14 35 14 Z M33 15 C34 17 34 17 34 17 Z M8 18 C9 21 9 21 9 21 Z M32 18 C33 20 33 20 33 20 Z M26 19 C27 22 27 22 27 22 Z M9 21 C9.33 22.32 9.66 23.64 10 25 C10.33 24.01 10.66 23.02 11 22 C10.34 21.67 9.68 21.34 9 21 Z M12 26 C13 28 13 28 13 28 Z " fill="#0068A6" transform="translate(219,25)"/>
<path d="M0 0 C2.33984375 0.22265625 2.33984375 0.22265625 5 1 C6.44140625 2.93359375 6.44140625 2.93359375 7.5625 5.4375 C7.97113281 6.34113281 8.37976563 7.24476562 8.80078125 8.17578125 C9.19652344 9.10777344 9.59226562 10.03976563 10 11 C10.38542969 11.85980469 10.77085937 12.71960938 11.16796875 13.60546875 C13.39480544 18.7907022 14.58312247 23.37215329 15 29 C13.35 29 11.7 29 10 29 C10 27.35 10 25.7 10 24 C9.34 24 8.68 24 8 24 C8 23.34 8 22.68 8 22 C4.04 22 0.08 22 -4 22 C-4.33 23.65 -4.66 25.3 -5 27 C-5.33 27.66 -5.66 28.32 -6 29 C-7.32 29 -8.64 29 -10 29 C-10.33 27.35 -10.66 25.7 -11 24 C-10.34 24 -9.68 24 -9 24 C-8.9175 23.05125 -8.835 22.1025 -8.75 21.125 C-8.06008234 16.11022533 -5.99662356 11.61545074 -4 7 C-3.34 7 -2.68 7 -2 7 C-1.34 4.69 -0.68 2.38 0 0 Z M2 4 C1.67 4.99 1.34 5.98 1 7 C1.66 7 2.32 7 3 7 C2.67 6.01 2.34 5.02 2 4 Z M5 4 C6 6 6 6 6 6 Z M3 7 C4 9 4 9 4 9 Z M6 7 C7 9 7 9 7 9 Z M0 8 C-0.69096471 11.98399958 -0.69096471 11.98399958 -1 16 C0.98 16 2.96 16 5 16 C5.77242269 14.16299211 5.77242269 14.16299211 6 12 C4.15840327 9.51384442 2.99529289 8.99843096 0 8 Z M8 11 C9 14 9 14 9 14 Z M-5 12 C-4 14 -4 14 -4 14 Z M-2 13 C-1 15 -1 15 -1 15 Z M6 14 C7 16 7 16 7 16 Z M10 16 C11 18 11 18 11 18 Z M-7 17 C-6 19 -6 19 -6 19 Z M-4 17 C-4 17.33 -4 17.66 -4 18 C-0.04 18 3.92 18 8 18 C8 17.67 8 17.34 8 17 C4.04 17 0.08 17 -4 17 Z M-5 20 C-5 20.33 -5 20.66 -5 21 C-0.38 21 4.24 21 9 21 C9 20.67 9 20.34 9 20 C4.38 20 -0.24 20 -5 20 Z M12 21 C13 23 13 23 13 23 Z M-6 22 C-5 24 -5 24 -5 24 Z M-7 25 C-6 27 -6 27 -6 27 Z M11 26 C12 28 12 28 12 28 Z " fill="#004C90" transform="translate(266,25)"/>
<path d="M0 0 C1.10794922 -0.0309375 1.10794922 -0.0309375 2.23828125 -0.0625 C7.48724722 -0.09952974 11.05758936 0.8913809 15.75 3.25 C13.18313594 4.93644209 11.97051942 5.27390454 8.8671875 4.9375 C7.79726563 4.710625 6.72734375 4.48375 5.625 4.25 C-4.51627095 2.51635256 -12.58198057 4.76317289 -21.25 10.25 C-30.14883233 17.03665812 -33.50546377 26.17512137 -34.98828125 36.9765625 C-35.07464844 37.72679687 -35.16101562 38.47703125 -35.25 39.25 C-35.91 38.92 -36.57 38.59 -37.25 38.25 C-38.31917193 28.19186402 -35.55804938 20.94619862 -29.4921875 12.92578125 C-21.75748631 4.43055505 -11.31209659 0.07734767 0 0 Z " fill="#59CCE4" transform="translate(37.25,-0.25)"/>
<path d="M0 0 C0.66 0 1.32 0 2 0 C2.33 4.62 2.66 9.24 3 14 C7.69429983 10.08808348 11.96780807 6.0390845 16.10546875 1.5390625 C18 0 18 0 22 0 C21 3 21 3 19.171875 3.9609375 C18.45515625 4.30382812 17.7384375 4.64671875 17 5 C15.0500371 6.70995544 15.0500371 6.70995544 13.25 8.625 C12.63640625 9.25664063 12.0228125 9.88828125 11.390625 10.5390625 C10.93171875 11.02117188 10.4728125 11.50328125 10 12 C10.804375 12.721875 11.60875 13.44375 12.4375 14.1875 C15.14152087 17.15532779 15.29110581 18.25298784 16 22 C17.32467746 22.6837045 18.65863633 23.34964186 20 24 C21.25 26.625 21.25 26.625 22 29 C19.08570041 29.118951 17.62751461 29.13842026 15 28 C11.49804895 24.14716584 8.64975066 19.94925198 7 15 C4.19954377 18.14591933 3.64738411 20.067064 3.8125 24.25 C3.85310547 25.58804688 3.85310547 25.58804688 3.89453125 26.953125 C3.94673828 27.96632813 3.94673828 27.96632813 4 29 C2.68 29 1.36 29 0 29 C0 19.43 0 9.86 0 0 Z " fill="#1C3A80" transform="translate(307,25)"/>
<path d="M0 0 C1.90722656 0.28393555 1.90722656 0.28393555 4 1 C5.1383126 3.65107013 5.98307777 6.05592104 6.75 8.8125 C6.97042969 9.53759766 7.19085938 10.26269531 7.41796875 11.00976562 C8.44576531 14.49852847 9 17.338279 9 21 C9.66 21 10.32 21 11 21 C11.37125 19.14375 11.37125 19.14375 11.75 17.25 C13.04818352 11.35173142 15.01439968 5.69655237 17 0 C17.99 0 18.98 0 20 0 C19.37869771 6.30928097 17.50010374 11.96207569 15.4375 17.9375 C15.10814453 18.90751953 14.77878906 19.87753906 14.43945312 20.87695312 C13.6317552 23.25322384 12.81849052 25.62742969 12 28 C10.68 28 9.36 28 8 28 C6.02 21.4 4.04 14.8 2 8 C1.34 8.66 0.68 9.32 0 10 C-0.74926071 6.33694766 -1.2380014 3.57644848 0 0 Z " fill="#0164A3" transform="translate(46,24)"/>
<path d="M0 0 C0.33 0 0.66 0 1 0 C1 9.24 1 18.48 1 28 C-2.96 28 -6.92 28 -11 28 C-14.43431998 23.4209067 -14 22.41572636 -14 17 C-15.36997157 14.12853006 -15.36997157 14.12853006 -17 12 C-16.01 12 -15.02 12 -14 12 C-13.67 12.66 -13.34 13.32 -13 14 C-12.030625 14.226875 -11.06125 14.45375 -10.0625 14.6875 C-8.5465625 15.3371875 -8.5465625 15.3371875 -7 16 C-5.8125 19.5625 -5.8125 19.5625 -5 23 C-4.01 23.33 -3.02 23.66 -2 24 C-1.67 24.66 -1.34 25.32 -1 26 C-0.67 17.42 -0.34 8.84 0 0 Z " fill="#00A6D7" transform="translate(165,26)"/>
<path d="M0 0 C1.175625 0.0825 2.35125 0.165 3.5625 0.25 C4.2225 1.24 4.8825 2.23 5.5625 3.25 C6.2225 3.91 6.8825 4.57 7.5625 5.25 C7.5625 7.25 7.5625 9.25 7.5625 11.25 C8.2225 11.91 8.8825 12.57 9.5625 13.25 C9.5625 14.24 9.5625 15.23 9.5625 16.25 C7.0875 15.26 7.0875 15.26 4.5625 14.25 C4.5625 14.91 4.5625 15.57 4.5625 16.25 C3.5725 16.25 2.5825 16.25 1.5625 16.25 C1.43875 15.651875 1.315 15.05375 1.1875 14.4375 C0.31644727 11.38881544 -1.21628337 9.47121663 -3.4375 7.25 C-4.4275 7.91 -5.4175 8.57 -6.4375 9.25 C-6.7675 7.93 -7.0975 6.61 -7.4375 5.25 C-6.7775 5.25 -6.1175 5.25 -5.4375 5.25 C-5.2209375 4.2909375 -5.2209375 4.2909375 -5 3.3125 C-4.06566445 -0.11339701 -3.7966556 0.27612041 0 0 Z " fill="#0088BF" transform="translate(204.4375,24.75)"/>
<path d="M0 0 C9.94036409 4.26015604 16.29429163 10.74202019 20.9453125 20.546875 C22.89896051 26.94326328 22.45292048 33.39071591 22 40 C21.34 40 20.68 40 20 40 C19.91363281 38.96101563 19.82726562 37.92203125 19.73828125 36.8515625 C18.65944023 25.5488369 16.54607569 16.56265185 7.9140625 8.5390625 C4.80076996 6.03572115 1.47617712 3.95929983 -2 2 C-1.34 1.34 -0.68 0.68 0 0 Z " fill="#02B7DC" transform="translate(53,3)"/>
<path d="M0 0 C3.96 0 7.92 0 12 0 C12 0.66 12 1.32 12 2 C14.97 2 17.94 2 21 2 C21 2.33 21 2.66 21 3 C18.36 3 15.72 3 13 3 C13 11.25 13 19.5 13 28 C12.01 28 11.02 28 10 28 C10 19.75 10 11.5 10 3 C6.7 3 3.4 3 0 3 C0 2.01 0 1.02 0 0 Z " fill="#18C7E8" transform="translate(9,24)"/>
<path d="M0 0 C1.32 0.33 2.64 0.66 4 1 C4 9.25 4 17.5 4 26 C8.95 26 13.9 26 19 26 C19.33 26.99 19.66 27.98 20 29 C13.4 29 6.8 29 0 29 C0 19.43 0 9.86 0 0 Z " fill="#0A5392" transform="translate(284,25)"/>
<path d="M0 0 C1.875 0.1875 1.875 0.1875 4 1 C6.51231684 5.23127046 6.60192606 10.19168581 7 15 C7.66 15 8.32 15 9 15 C9.66 16.32 10.32 17.64 11 19 C12.32 17.68 13.64 16.36 15 15 C14.67 19.62 14.34 24.24 14 29 C11.69 29 9.38 29 7 29 C6.84724609 27.30810547 6.84724609 27.30810547 6.69140625 25.58203125 C6.08240732 20.70681757 4.58390589 16.29820049 2.9375 11.6875 C2.38003629 10.10950775 1.82647445 8.53013013 1.27734375 6.94921875 C1.03234131 6.26174561 0.78733887 5.57427246 0.53491211 4.8659668 C0 3 0 3 0 0 Z M3 3 C4 5 4 5 4 5 Z M4 6 C5 8 5 8 5 8 Z M8 18 C9 21 9 21 9 21 Z M9 21 C9.33 22.32 9.66 23.64 10 25 C10.33 24.01 10.66 23.02 11 22 C10.34 21.67 9.68 21.34 9 21 Z M12 26 C13 28 13 28 13 28 Z " fill="#017BAF" transform="translate(219,25)"/>
<path d="M0 0 C0.99 0.495 0.99 0.495 2 1 C2.48566159 2.96337582 2.88778647 4.94764745 3.25 6.9375 C5.69554637 17.99088535 10.54269915 24.81492525 20 31 C20.66 31.33 21.32 31.66 22 32 C22 32.99 22 33.98 22 35 C11.21759219 31.05845198 5.61356886 23.65586622 0.84765625 13.55859375 C-0.1240376 10.62560079 -0.19924386 8.26862003 -0.125 5.1875 C-0.10695312 4.21167969 -0.08890625 3.23585937 -0.0703125 2.23046875 C-0.04710937 1.49441406 -0.02390625 0.75835937 0 0 Z " fill="#0276AF" transform="translate(0,38)"/>
<path d="M0 0 C0.99 0 1.98 0 3 0 C2.40017525 5.09521462 1.30627506 9.81149366 -0.3125 14.6875 C-0.51294922 15.33783203 -0.71339844 15.98816406 -0.91992188 16.65820312 C-2.25046862 20.69927543 -3.74154515 23.25567235 -7 26 C-7.33 24.35 -7.66 22.7 -8 21 C-7.34 21 -6.68 21 -6 21 C-5.7525 19.7625 -5.505 18.525 -5.25 17.25 C-3.95181648 11.35173142 -1.98560032 5.69655237 0 0 Z " fill="#1A3A78" transform="translate(63,24)"/>
<path d="M0 0 C3.09477914 0 6.10446346 0.23479256 9.1875 0.5 C10.27417969 0.5928125 11.36085938 0.685625 12.48046875 0.78125 C13.31191406 0.8534375 14.14335937 0.925625 15 1 C15.33 2.32 15.66 3.64 16 5 C12.04 5 8.08 5 4 5 C3.67 6.65 3.34 8.3 3 10 C2.67 10.66 2.34 11.32 2 12 C0.68 12 -0.64 12 -2 12 C-2.33 10.35 -2.66 8.7 -3 7 C-2.34 7 -1.68 7 -1 7 C-0.67 4.69 -0.34 2.38 0 0 Z M2 5 C3 7 3 7 3 7 Z M1 8 C2 10 2 10 2 10 Z " fill="#005D8B" transform="translate(258,42)"/>
<path d="M0 0 C3.96 0 7.92 0 12 0 C12.867242 2.41267325 13.71896936 4.82904469 14.5625 7.25 C14.80935547 7.93191406 15.05621094 8.61382812 15.31054688 9.31640625 C17.47053761 15.58342161 17.47053761 15.58342161 16 19 C15.34 19 14.68 19 14 19 C13.16301614 16.54285453 12.33027576 14.08441143 11.5 11.625 C11.26152344 10.92632812 11.02304687 10.22765625 10.77734375 9.5078125 C9 4.2265625 9 4.2265625 9 2 C6.03 2 3.06 2 0 2 C0 1.34 0 0.68 0 0 Z " fill="#0093C2" transform="translate(21,24)"/>
<path d="M0 0 C0.05790353 3.29159316 0.09356261 6.58305603 0.125 9.875 C0.14175781 10.81214844 0.15851563 11.74929687 0.17578125 12.71484375 C0.18222656 13.61074219 0.18867187 14.50664063 0.1953125 15.4296875 C0.20578613 16.25710449 0.21625977 17.08452148 0.22705078 17.93701172 C0 20 0 20 -2 22 C-2.66 22 -3.32 22 -4 22 C-4 15.07 -4 8.14 -4 1 C-6.31 1 -8.62 1 -11 1 C-11 0.67 -11 0.34 -11 0 C-9.54263913 -0.19491452 -8.08405407 -0.38069358 -6.625 -0.5625 C-5.81289062 -0.66691406 -5.00078125 -0.77132813 -4.1640625 -0.87890625 C-2 -1 -2 -1 0 0 Z " fill="#35DDE9" transform="translate(96,32)"/>
<path d="M0 0 C0.33 0.66 0.66 1.32 1 2 C1.99 3.485 1.99 3.485 3 5 C2.67 5.66 2.34 6.32 2 7 C0.68 6.34 -0.64 5.68 -2 5 C-2.99 6.485 -2.99 6.485 -4 8 C-4.33 7.01 -4.66 6.02 -5 5 C-6.98 5.33 -8.96 5.66 -11 6 C-10.67 4.35 -10.34 2.7 -10 1 C-6.52674819 -0.1577506 -3.63932552 -0.06866652 0 0 Z " fill="#35BAD4" transform="translate(125,25)"/>
<path d="M0 0 C0.99 0 1.98 0 3 0 C4.125 3.75 4.125 3.75 3 6 C3.99 6.33 4.98 6.66 6 7 C6 7.99 6 8.98 6 10 C-2 10 -2 10 -4 9 C-2.94124926 5.59687262 -1.99097846 2.98646769 0 0 Z M2 7 C3 9 3 9 3 9 Z M4 7 C5 9 5 9 5 9 Z " fill="#0092C9" transform="translate(200,31)"/>
<path d="M0 0 C1.32 0 2.64 0 4 0 C5 5 5 5 6 10 C6.66 10 7.32 10 8 10 C7.67 10.99 7.34 11.98 7 13 C4.525 12.01 4.525 12.01 2 11 C2 11.66 2 12.32 2 13 C1.01 13 0.02 13 -1 13 C-1.144375 12.38125 -1.28875 11.7625 -1.4375 11.125 C-1.93152225 8.96741678 -1.93152225 8.96741678 -3 7 C-2.34 6.34 -1.68 5.68 -1 5 C-0.01 5 0.98 5 2 5 C1.34 3.35 0.68 1.7 0 0 Z " fill="#017AAD" transform="translate(207,28)"/>
<path d="M0 0 C0.99 3.63 1.98 7.26 3 11 C-2.625 11 -2.625 11 -6 9 C-6.25 6.75 -6.25 6.75 -6 4 C-2.75675676 0 -2.75675676 0 0 0 Z M-1 6 C0 8 0 8 0 8 Z " fill="#3DC7E6" transform="translate(120,30)"/>
<path d="M0 0 C0.99 0.495 0.99 0.495 2 1 C2.58379541 3.04036496 3.06800379 5.10969214 3.5 7.1875 C4.42329873 11.57818689 5.50939348 15.76590647 7 20 C6.01 20 5.02 20 4 20 C0.2494267 13.21882953 -0.51778074 7.69479711 0 0 Z " fill="#0091C3" transform="translate(0,38)"/>
<path d="M0 0 C0.66 0 1.32 0 2 0 C4.20949832 4.41029783 4.2370648 8.48940324 4.125 13.3125 C4.11597656 14.05306641 4.10695313 14.79363281 4.09765625 15.55664062 C4.07424213 17.37123467 4.03837615 19.18566071 4 21 C3.34 21 2.68 21 2 21 C1.86722656 19.89140625 1.73445313 18.7828125 1.59765625 17.640625 C1.41940243 16.1770673 1.24100972 14.71352651 1.0625 13.25 C0.97548828 12.52039062 0.88847656 11.79078125 0.79882812 11.0390625 C0.30083908 6.89217949 0.30083908 6.89217949 -0.59594727 2.81933594 C-0.72928467 2.21895508 -0.86262207 1.61857422 -1 1 C-0.67 0.67 -0.34 0.34 0 0 Z " fill="#0168A6" transform="translate(71,22)"/>
<path d="M0 0 C2.80494773 2.27902003 3.91813151 3.34505209 4.375 7 C4.02059186 9.83526512 3.48338437 11.58950039 2 14 C-1.69904459 8.21019108 -1.69904459 8.21019108 -2 5 C-1.0625 2.25 -1.0625 2.25 0 0 Z " fill="#32C7E7" transform="translate(123,28)"/>
<path d="M0 0 C2.00293347 3.00440021 2.49271626 4.70993945 3.125 8.1875 C3.29257812 9.08855469 3.46015625 9.98960938 3.6328125 10.91796875 C3.75398438 11.60503906 3.87515625 12.29210938 4 13 C4.99 12.67 5.98 12.34 7 12 C6.67 13.65 6.34 15.3 6 17 C4.68 17 3.36 17 2 17 C-0.1663492 10.91708727 -1.5197276 6.3552245 0 0 Z " fill="#005296" transform="translate(52,35)"/>
<path d="M0 0 C0.99 0.33 1.98 0.66 3 1 C2.69255859 1.8353125 2.69255859 1.8353125 2.37890625 2.6875 C0.56121505 7.83617554 -0.50570547 12.56276016 -1 18 C-1.66 17.67 -2.32 17.34 -3 17 C-3.55353075 5.47835991 -3.55353075 5.47835991 0 0 Z " fill="#2AC5E0" transform="translate(3,21)"/>
<path d="M0 0 C0.33 0.66 0.66 1.32 1 2 C1.99 1.67 2.98 1.34 4 1 C4.99 1.66 5.98 2.32 7 3 C6.67 4.65 6.34 6.3 6 8 C3.69 8 1.38 8 -1 8 C-0.67 5.36 -0.34 2.72 0 0 Z M0 3 C1 5 1 5 1 5 Z " fill="#0095C5" transform="translate(191,46)"/>
<path d="M0 0 C0.66 0 1.32 0 2 0 C1.63495936 5.66442374 0.9445679 10.00703705 -2 15 C-2.99 14.34 -3.98 13.68 -5 13 C-3.35 8.71 -1.7 4.42 0 0 Z " fill="#124187" transform="translate(73,43)"/>
<path d="M0 0 C2 2 2 2 3 5 C3.99 5 4.98 5 6 5 C5.34 6.98 4.68 8.96 4 11 C3.01 11 2.02 11 1 11 C0.63743142 9.5437328 0.28520207 8.08488815 -0.0625 6.625 C-0.35833984 5.40683594 -0.35833984 5.40683594 -0.66015625 4.1640625 C-1 2 -1 2 0 0 Z " fill="#0382B7" transform="translate(37,41)"/>
<path d="M0 0 C3.59648384 2.62446118 6.11692258 4.91999893 8 9 C7.67 9.99 7.34 10.98 7 12 C3.40521193 8.67149253 0.77635232 5.01028669 -2 1 C-1.34 0.67 -0.68 0.34 0 0 Z " fill="#0099CA" transform="translate(64,11)"/>
<path d="M0 0 C4.35535069 1.16142685 6.64619703 2.07699505 9 6 C8.67 6.66 8.34 7.32 8 8 C2.53099511 7.51386623 2.53099511 7.51386623 0.0625 5.125 C-0.288125 4.42375 -0.63875 3.7225 -1 3 C-0.67 2.01 -0.34 1.02 0 0 Z " fill="#14386B" transform="translate(320,46)"/>
<path d="M0 0 C0.66 0.33 1.32 0.66 2 1 C0.33248852 4.94139078 -2.22710649 7.7892812 -5 11 C-5.99 10.67 -6.98 10.34 -8 10 C-7.04367001 8.70684939 -6.08486149 7.41553147 -5.125 6.125 C-4.59132813 5.40570312 -4.05765625 4.68640625 -3.5078125 3.9453125 C-2 2 -2 2 0 0 Z " fill="#4FC8E0" transform="translate(11,10)"/>
<path d="M0 0 C9.17286652 1.33041575 9.17286652 1.33041575 12.625 4.125 C13.07875 4.74375 13.5325 5.3625 14 6 C12.22868439 5.69024532 10.45796222 5.37709575 8.6875 5.0625 C7.70136719 4.88847656 6.71523438 4.71445313 5.69921875 4.53515625 C3 4 3 4 0 3 C0 2.01 0 1.02 0 0 Z " fill="#0C468F" transform="translate(22,71)"/>
<path d="M0 0 C2.62113708 0 4.50935112 0.31292445 7 1 C7 1.99 7 2.98 7 4 C6.01 3.67 5.02 3.34 4 3 C4 5.31 4 7.62 4 10 C1.47411298 7.63707344 0.11179163 6.33537489 -1 3 C-0.67 2.01 -0.34 1.02 0 0 Z " fill="#005B94" transform="translate(232,34)"/>
<path d="M0 0 C2.69082872 0.17635452 5.32851446 0.61835921 8 1 C8 1.33 8 1.66 8 2 C5.69 2 3.38 2 1 2 C1 8.93 1 15.86 1 23 C0.67 23 0.34 23 0 23 C-0.19588601 19.3545658 -0.38030536 15.7086421 -0.5625 12.0625 C-0.61857422 11.02158203 -0.67464844 9.98066406 -0.73242188 8.90820312 C-0.78076172 7.91884766 -0.82910156 6.92949219 -0.87890625 5.91015625 C-0.9260376 4.99371338 -0.97316895 4.07727051 -1.02172852 3.13305664 C-1 1 -1 1 0 0 Z " fill="#3BFFFF" transform="translate(101,31)"/>
<path d="M0 0 C4.05606165 0.46800711 7.46588679 0.87953208 11 3 C9.5 4.125 9.5 4.125 7 5 C4.2226918 4.57598348 1.70360217 3.81108065 -1 3 C-0.67 2.01 -0.34 1.02 0 0 Z " fill="#30C4E2" transform="translate(42,0)"/>
<path d="M0 0 C2.375 0.25 2.375 0.25 5 1 C6.3125 3.0625 6.3125 3.0625 7 5 C4 7 4 7 1.3125 6.625 C0.549375 6.41875 -0.21375 6.2125 -1 6 C-0.67 4.02 -0.34 2.04 0 0 Z M0 3 C1 5 1 5 1 5 Z " fill="#35BCD3" transform="translate(111,36)"/>
<path d="M0 0 C0.33 0 0.66 0 1 0 C1 9.24 1 18.48 1 28 C0.34 27.67 -0.32 27.34 -1 27 C-0.67 18.09 -0.34 9.18 0 0 Z " fill="#0056A8" transform="translate(282,26)"/>
<path d="M0 0 C0.33 0 0.66 0 1 0 C1 9.24 1 18.48 1 28 C0.34 27.67 -0.32 27.34 -1 27 C-0.67 18.09 -0.34 9.18 0 0 Z " fill="#00F5FC" transform="translate(136,26)"/>
<path d="M0 0 C0.66 0 1.32 0 2 0 C1.56802365 4.7517398 0.67230705 6.92000054 -3 10 C-3.33 8.35 -3.66 6.7 -4 5 C-3.34 5 -2.68 5 -2 5 C-1.7834375 4.0409375 -1.7834375 4.0409375 -1.5625 3.0625 C-1 1 -1 1 0 0 Z " fill="#13427E" transform="translate(59,40)"/>
<path d="M0 0 C1.32 0.33 2.64 0.66 4 1 C3.67 2.65 3.34 4.3 3 6 C1.02 6 -0.96 6 -3 6 C-2 4 -1 2 0 0 Z " fill="#46C8E6" transform="translate(110,48)"/>
<path d="M0 0 C3.26566506 4.89849759 3.09311493 8.31998909 3 14 C2.34 14 1.68 14 1 14 C0.34 11.36 -0.32 8.72 -1 6 C-0.34 6 0.32 6 1 6 C0.67 4.02 0.34 2.04 0 0 Z " fill="#00559E" transform="translate(49,25)"/>
<path d="M0 0 C0.33 0 0.66 0 1 0 C1 9.24 1 18.48 1 28 C0.67 28 0.34 28 0 28 C0 18.76 0 9.52 0 0 Z " fill="#007C7F" transform="translate(305,26)"/>
<path d="M0 0 C2.9719385 1.12451727 5.33440687 2.22293791 8 4 C8 4.99 8 5.98 8 7 C4.06326356 5.68775452 1.77280706 4.08089673 -1 1 C-0.67 0.67 -0.34 0.34 0 0 Z " fill="#005DA0" transform="translate(14,66)"/>
<path d="M0 0 C0.33 0.66 0.66 1.32 1 2 C1.99 1.67 2.98 1.34 4 1 C4 3.31 4 5.62 4 8 C2.68 7.67 1.36 7.34 0 7 C-0.93423645 3.98968256 -1.04449911 3.13349732 0 0 Z M-2 5 C-1.01 6.485 -1.01 6.485 0 8 C-0.66 8 -1.32 8 -2 8 C-2 7.01 -2 6.02 -2 5 Z " fill="#0044AF" transform="translate(262,32)"/>
<path d="M0 0 C0.33 0.66 0.66 1.32 1 2 C1.99 2.33 2.98 2.66 4 3 C5.125 7.75 5.125 7.75 4 10 C3.34 10 2.68 10 2 10 C0.68373308 6.38026598 0 3.90432869 0 0 Z " fill="#0094C6" transform="translate(33,33)"/>
<path d="M0 0 C3.96 0 7.92 0 12 0 C11.67 0.99 11.34 1.98 11 3 C7.37 2.67 3.74 2.34 0 2 C0 1.34 0 0.68 0 0 Z " fill="#01ADD5" transform="translate(21,24)"/>
<path d="M0 0 C0.99 0.495 0.99 0.495 2 1 C2.4140625 3.28515625 2.4140625 3.28515625 2.625 6.0625 C2.69976562 6.98160156 2.77453125 7.90070312 2.8515625 8.84765625 C2.92503906 9.91306641 2.92503906 9.91306641 3 11 C2.01 11 1.02 11 0 11 C0 7.37 0 3.74 0 0 Z " fill="#00A9D2" transform="translate(0,38)"/>
<path d="M0 0 C0.99 0 1.98 0 3 0 C3.66 1.98 4.32 3.96 5 6 C0.25 6.125 0.25 6.125 -2 5 C-1.125 1.125 -1.125 1.125 0 0 Z M1 1 C2 3 2 3 2 3 Z " fill="#2DCBDF" transform="translate(118,35)"/>
<path d="M0 0 C7.92 0 15.84 0 24 0 C24 0.33 24 0.66 24 1 C16.08 1 8.16 1 0 1 C0 0.67 0 0.34 0 0 Z " fill="#0AFFFF" transform="translate(85,23)"/>
<path d="M0 0 C0.33 0 0.66 0 1 0 C1.33 1.65 1.66 3.3 2 5 C2.99 4.67 3.98 4.34 5 4 C4.67 5.65 4.34 7.3 4 9 C2.68 9 1.36 9 0 9 C-0.84454356 5.62182575 -1.10844919 3.32534757 0 0 Z " fill="#094492" transform="translate(54,43)"/>
<path d="M0 0 C2.64 0 5.28 0 8 0 C8 0.99 8 1.98 8 3 C5.36 3 2.72 3 0 3 C0 2.01 0 1.02 0 0 Z " fill="#59CFE5" transform="translate(9,24)"/>
<path d="M0 0 C1.32 0 2.64 0 4 0 C4.33 1.98 4.66 3.96 5 6 C3.35 5.67 1.7 5.34 0 5 C-0.33 4.01 -0.66 3.02 -1 2 C-0.67 1.34 -0.34 0.68 0 0 Z " fill="#025C87" transform="translate(247,42)"/>
<path d="M0 0 C1 3 1 3 1 7 C-0.32 7 -1.64 7 -3 7 C-3.33 5.35 -3.66 3.7 -4 2 C-2.68 1.34 -1.36 0.68 0 0 Z " fill="#005C9F" transform="translate(259,47)"/>
<path d="M0 0 C0.66 0 1.32 0 2 0 C2.33 1.65 2.66 3.3 3 5 C2.34 5 1.68 5 1 5 C0.67 5.99 0.34 6.98 0 8 C-0.66 8 -1.32 8 -2 8 C-1.125 2.25 -1.125 2.25 0 0 Z " fill="#0059A9" transform="translate(255,25)"/>
<path d="M0 0 C6.93 0 13.86 0 21 0 C21 0.33 21 0.66 21 1 C14.07 1 7.14 1 0 1 C0 0.67 0 0.34 0 0 Z " fill="#00FFFF" transform="translate(167,23)"/>
<path d="M0 0 C3.3 0 6.6 0 10 0 C9.67 0.99 9.34 1.98 9 3 C5.47930015 2.41321669 3.28700157 1.64350079 0 0 Z " fill="#1F4282" transform="translate(31,74)"/>
<path d="M0 0 C-0.56371414 3.26954202 -1.49962266 4.82575883 -4 7 C-4.6875 5.1875 -4.6875 5.1875 -5 3 C-3.38441968 0.84589291 -2.74502455 0 0 0 Z " fill="#1B3881" transform="translate(70,57)"/>
<path d="M0 0 C0.99 0 1.98 0 3 0 C3.33 0.99 3.66 1.98 4 3 C3.01 3.99 2.02 4.98 1 6 C0.34 5.67 -0.32 5.34 -1 5 C-0.67 3.35 -0.34 1.7 0 0 Z " fill="#005E8B" transform="translate(258,42)"/>
<path d="M0 0 C1.32 1.32 2.64 2.64 4 4 C3.67 4.99 3.34 5.98 3 7 C1.68 5.68 0.36 4.36 -1 3 C-0.67 2.01 -0.34 1.02 0 0 Z " fill="#018FC0" transform="translate(68,16)"/>
<path d="M0 0 C3.96 0 7.92 0 12 0 C11.67 0.99 11.34 1.98 11 3 C10.01 3 9.02 3 8 3 C8 2.34 8 1.68 8 1 C5.36 1 2.72 1 0 1 C0 0.67 0 0.34 0 0 Z " fill="#15E7F7" transform="translate(117,48)"/>
<path d="M0 0 C0.99 0 1.98 0 3 0 C2.67 2.31 2.34 4.62 2 7 C1.01 6.34 0.02 5.68 -1 5 C-0.67 3.35 -0.34 1.7 0 0 Z " fill="#192B6B" transform="translate(63,24)"/>
<path d="M0 0 C0.33 0 0.66 0 1 0 C1.33 3.96 1.66 7.92 2 12 C1.01 12.495 1.01 12.495 0 13 C0 8.71 0 4.42 0 0 Z " fill="#0355A0" transform="translate(310,26)"/>
<path d="M0 0 C0.33 0 0.66 0 1 0 C1.33 2.97 1.66 5.94 2 9 C1.01 9.495 1.01 9.495 0 10 C0 6.7 0 3.4 0 0 Z " fill="#00ADB6" transform="translate(145,26)"/>
<path d="M0 0 C1.98 0 3.96 0 6 0 C6 0.33 6 0.66 6 1 C4.02 1 2.04 1 0 1 C0 0.67 0 0.34 0 0 Z " fill="#00FFFF" transform="translate(156,23)"/>
<path d="M0 0 C1.98 0 3.96 0 6 0 C6 0.33 6 0.66 6 1 C4.02 1 2.04 1 0 1 C0 0.67 0 0.34 0 0 Z " fill="#00FFFF" transform="translate(118,23)"/>
<path d="M0 0 C1.65 0 3.3 0 5 0 C5 0.33 5 0.66 5 1 C3.35 1 1.7 1 0 1 C0 0.67 0 0.34 0 0 Z " fill="#00FFFF" transform="translate(202,23)"/>
<path d="M0 0 C1.65 0 3.3 0 5 0 C5 0.33 5 0.66 5 1 C3.35 1 1.7 1 0 1 C0 0.67 0 0.34 0 0 Z " fill="#00FFFF" transform="translate(139,23)"/>
<path d="M0 0 C0.99 0.495 0.99 0.495 2 1 C1.67 1.66 1.34 2.32 1 3 C0.67 2.01 0.34 1.02 0 0 Z " fill="#002554" transform="translate(323,45)"/>
<path d="M0 0 C1 4 1 4 1 4 Z " fill="#00BFBF" transform="translate(186,38)"/>
<path d="M0 0 C1 4 1 4 1 4 Z " fill="#00BFFF" transform="translate(189,26)"/>
<path d="M0 0 C1 4 1 4 1 4 Z " fill="#5FBFBF" transform="translate(111,26)"/>
<path d="M0 0 C1 4 1 4 1 4 Z " fill="#55E9FF" transform="translate(83,26)"/>
<path d="" fill="#007F94" transform="translate(0,0)"/>
<path d="" fill="#00D4E9" transform="translate(0,0)"/>
<path d="" fill="#00718D" transform="translate(0,0)"/>
<path d="" fill="#008D8D" transform="translate(0,0)"/>
<path d="" fill="#00B8D4" transform="translate(0,0)"/>
<path d="" fill="#0038C6" transform="translate(0,0)"/>
<path d="" fill="#0063E2" transform="translate(0,0)"/>
<path d="" fill="#00E2E2" transform="translate(0,0)"/>
<path d="" fill="#00558D" transform="translate(0,0)"/>
<path d="" fill="#005571" transform="translate(0,0)"/>
<path d="" fill="#00D4E9" transform="translate(0,0)"/>
<path d="" fill="#15E9E9" transform="translate(0,0)"/>
<path d="" fill="#009BB8" transform="translate(0,0)"/>
<path d="" fill="#007F94" transform="translate(0,0)"/>
<path d="" fill="#00718D" transform="translate(0,0)"/>
<path d="" fill="#00B8B8" transform="translate(0,0)"/>
<path d="" fill="#00E2FF" transform="translate(0,0)"/>
<path d="" fill="#00D4D4" transform="translate(0,0)"/>
<path d="" fill="#0071E2" transform="translate(0,0)"/>
<path d="" fill="#00D4E9" transform="translate(0,0)"/>
<path d="" fill="#007F7F" transform="translate(0,0)"/>
<path d="" fill="#0046B8" transform="translate(0,0)"/>
<path d="" fill="#007FBF" transform="translate(0,0)"/>
<path d="" fill="#15BFBF" transform="translate(0,0)"/>
<path d="" fill="#0046E2" transform="translate(0,0)"/>
<path d="" fill="#007F94" transform="translate(0,0)"/>
<path d="" fill="#15E9E9" transform="translate(0,0)"/>
<path d="" fill="#00A9BF" transform="translate(0,0)"/>
<path d="" fill="#009BB8" transform="translate(0,0)"/>
<path d="" fill="#005571" transform="translate(0,0)"/>
<path d="" fill="#007F7F" transform="translate(0,0)"/>
<path d="" fill="#00A9A9" transform="translate(0,0)"/>
<path d="" fill="#00157F" transform="translate(0,0)"/>
<path d="" fill="#006A94" transform="translate(0,0)"/>
<path d="" fill="#006A94" transform="translate(0,0)"/>
<path d="" fill="#007FAA" transform="translate(0,0)"/>
<path d="" fill="#5FDFDF" transform="translate(0,0)"/>
<path d="" fill="#2AFFFF" transform="translate(0,0)"/>
<path d="" fill="#006A94" transform="translate(0,0)"/>
<path d="" fill="#006A94" transform="translate(0,0)"/>
<path d="" fill="#007F7F" transform="translate(0,0)"/>
<path d="" fill="#006AD4" transform="translate(0,0)"/>
<path d="" fill="#0094FF" transform="translate(0,0)"/>
<path d="" fill="#0094D4" transform="translate(0,0)"/>
<path d="" fill="#55D4FF" transform="translate(0,0)"/>
<path d="" fill="#007FDF" transform="translate(0,0)"/>
<path d="" fill="#006A94" transform="translate(0,0)"/>
<path d="" fill="#0094D4" transform="translate(0,0)"/>
<path d="" fill="#006A94" transform="translate(0,0)"/>
<path d="" fill="#5FDFDF" transform="translate(0,0)"/>
<path d="" fill="#007FD4" transform="translate(0,0)"/>
<path d="" fill="#006A94" transform="translate(0,0)"/>
<path d="" fill="#002A94" transform="translate(0,0)"/>
<path d="" fill="#00AAAA" transform="translate(0,0)"/>
<path d="" fill="#005594" transform="translate(0,0)"/>
<path d="" fill="#007F9F" transform="translate(0,0)"/>
<path d="" fill="#007F7F" transform="translate(0,0)"/>
<path d="M0 0 C2 1 2 1 2 1 Z " fill="#00007F" transform="translate(325,23)"/>
<path d="M0 0 C2 1 2 1 2 1 Z " fill="#00007F" transform="translate(267,23)"/>
<path d="M0 0 C2 1 2 1 2 1 Z " fill="#00007F" transform="translate(237,23)"/>
<path d="M0 0 C2 1 2 1 2 1 Z " fill="#00007F" transform="translate(219,23)"/>
<path d="" fill="#3F3F3F" transform="translate(0,0)"/>
<path d="" fill="#00AAFF" transform="translate(0,0)"/>
<path d="" fill="#0055AA" transform="translate(0,0)"/>
<path d="" fill="#00BFBF" transform="translate(0,0)"/>
<path d="" fill="#003F7F" transform="translate(0,0)"/>
<path d="" fill="#3F3F7F" transform="translate(0,0)"/>
<path d="" fill="#3F3F7F" transform="translate(0,0)"/>
<path d="" fill="#24486D" transform="translate(0,0)"/>
<path d="" fill="#2A2A7F" transform="translate(0,0)"/>
<path d="" fill="#00CCCC" transform="translate(0,0)"/>
<path d="" fill="#003F7F" transform="translate(0,0)"/>
<path d="" fill="#0055AA" transform="translate(0,0)"/>
<path d="" fill="#00BFFF" transform="translate(0,0)"/>
<path d="" fill="#3F3F7F" transform="translate(0,0)"/>
<path d="" fill="#0055AA" transform="translate(0,0)"/>
<path d="" fill="#00BFFF" transform="translate(0,0)"/>
<path d="" fill="#3F3F7F" transform="translate(0,0)"/>
<path d="" fill="#003F3F" transform="translate(0,0)"/>
<path d="" fill="#00BFBF" transform="translate(0,0)"/>
<path d="" fill="#003F3F" transform="translate(0,0)"/>
<path d="" fill="#0055AA" transform="translate(0,0)"/>
<path d="" fill="#00AAFF" transform="translate(0,0)"/>
<path d="" fill="#0055AA" transform="translate(0,0)"/>
<path d="" fill="#3F3F7F" transform="translate(0,0)"/>
<path d="" fill="#00AAAA" transform="translate(0,0)"/>
<path d="" fill="#5555AA" transform="translate(0,0)"/>
<path d="" fill="#003F7F" transform="translate(0,0)"/>
<path d="" fill="#00AAAA" transform="translate(0,0)"/>
<path d="" fill="#005555" transform="translate(0,0)"/>
<path d="" fill="#003F7F" transform="translate(0,0)"/>
<path d="" fill="#007FFF" transform="translate(0,0)"/>
<path d="" fill="#005555" transform="translate(0,0)"/>
<path d="" fill="#3F3F7F" transform="translate(0,0)"/>
<path d="" fill="#007F7F" transform="translate(0,0)"/>
<path d="" fill="#00007F" transform="translate(0,0)"/>
<path d="" fill="#3F3F7F" transform="translate(0,0)"/>
<path d="" fill="#003F3F" transform="translate(0,0)"/>
<path d="" fill="#3F3F7F" transform="translate(0,0)"/>
<path d="" fill="#0055AA" transform="translate(0,0)"/>
<path d="" fill="#007F7F" transform="translate(0,0)"/>
<path d="" fill="#00FFFF" transform="translate(0,0)"/>
<path d="" fill="#00AAAA" transform="translate(0,0)"/>
<path d="" fill="#007F7F" transform="translate(0,0)"/>
<path d="" fill="#00007F" transform="translate(0,0)"/>
<path d="" fill="#007F7F" transform="translate(0,0)"/>
<path d="" fill="#00007F" transform="translate(0,0)"/>
<path d="" fill="#00FFFF" transform="translate(0,0)"/>
<path d="" fill="#000000" transform="translate(0,0)"/>
<path d="" fill="#000000" transform="translate(0,0)"/>
<path d="" fill="#0000FF" transform="translate(0,0)"/>
</svg>
