<?xml version="1.0" encoding="UTF-8"?>
<svg version="1.1" xmlns="http://www.w3.org/2000/svg" width="480" height="480">
<path d="M0 0 C158.4 0 316.8 0 480 0 C480 158.4 480 316.8 480 480 C321.6 480 163.2 480 0 480 C0 321.6 0 163.2 0 0 Z " fill="#F9C635" transform="translate(0,0)"/>
<path d="M0 0 C1.13450089 -0.00960754 2.26900177 -0.01921509 3.43788147 -0.02911377 C4.66292892 -0.03336365 5.88797638 -0.03761353 7.15014648 -0.04199219 C8.40633286 -0.04769226 9.66251923 -0.05339233 10.95677185 -0.05926514 C13.61395901 -0.06871614 16.27103316 -0.07561311 18.92822266 -0.07910156 C22.33708303 -0.08460104 25.74554693 -0.10866591 29.15428257 -0.13707352 C32.40287407 -0.16013566 35.65148454 -0.16214424 38.90014648 -0.16699219 C40.12721817 -0.17933899 41.35428986 -0.19168579 42.61854553 -0.20440674 C43.74989426 -0.20140564 44.88124298 -0.19840454 46.046875 -0.1953125 C47.04598404 -0.19895813 48.04509308 -0.20260376 49.07447815 -0.20635986 C49.86128464 -0.08508728 50.64809113 0.0361853 51.45874023 0.16113281 C53.76006121 3.61311428 53.58261996 4.29397474 53.02124023 8.22363281 C52.38751791 11.8220864 52.38751791 11.8220864 53.45874023 15.16113281 C54.44874023 14.83113281 55.43874023 14.50113281 56.45874023 14.16113281 C56.45874023 9.87113281 56.45874023 5.58113281 56.45874023 1.16113281 C59.25387781 -0.23643597 61.5539712 0.03389037 64.6809082 0.03173828 C65.989216 0.02858612 67.2975238 0.02543396 68.64547729 0.02218628 C70.08062778 0.02397649 71.51577796 0.02602754 72.95092773 0.02832031 C74.41822323 0.02764684 75.88551861 0.02667646 77.35281372 0.02542114 C80.43126485 0.02394527 83.509687 0.02609455 86.58813477 0.03076172 C90.53139501 0.03644892 94.47458705 0.03318572 98.41784477 0.02718925 C101.44960034 0.02357209 104.4813398 0.02472772 107.51309586 0.02731705 C108.96673719 0.02798364 110.42038 0.02716724 111.87401962 0.02483749 C113.90860719 0.0222932 115.94319989 0.02685978 117.9777832 0.03173828 C119.71413528 0.03293167 119.71413528 0.03293167 121.48556519 0.03414917 C124.00034421 0.14155482 126.06688213 0.42343385 128.45874023 1.16113281 C128.45874023 1.82113281 128.45874023 2.48113281 128.45874023 3.16113281 C129.04139648 3.29648438 129.62405273 3.43183594 130.22436523 3.57128906 C145.73380542 7.64373641 157.00498146 16.80561476 165.45874023 30.16113281 C170.90244754 40.27873023 172.83677591 48.7360547 172.45874023 60.16113281 C173.44874023 60.16113281 174.43874023 60.16113281 175.45874023 60.16113281 C175.45874023 61.81113281 175.45874023 63.46113281 175.45874023 65.16113281 C174.46874023 65.49113281 173.47874023 65.82113281 172.45874023 66.16113281 C172.52061523 67.39863281 172.58249023 68.63613281 172.64624023 69.91113281 C172.57394145 85.31077486 165.05180357 99.34631453 154.45874023 110.16113281 C151.28572309 112.80777347 148.00803582 115.05120954 144.45874023 117.16113281 C143.79100586 117.55945313 143.12327148 117.95777344 142.43530273 118.36816406 C132.03438941 124.03560051 121.31751396 124.58410038 109.72827148 124.45410156 C108.24184095 124.44849256 106.75540479 124.44422864 105.26896667 124.4412384 C101.39407503 124.42989208 97.5195314 124.4005157 93.64477539 124.36712646 C89.67591049 124.33620263 85.70698827 124.32268584 81.73803711 124.30761719 C73.97811441 124.27563385 66.21847645 124.22456468 58.45874023 124.16113281 C58.12874023 123.17113281 57.79874023 122.18113281 57.45874023 121.16113281 C56.13874023 121.16113281 54.81874023 121.16113281 53.45874023 121.16113281 C53.12874023 122.81113281 52.79874023 124.46113281 52.45874023 126.16113281 C44.9483233 126.20746196 37.43792117 126.24300495 29.92739391 126.26475716 C26.43998863 126.27519685 22.95268107 126.28935931 19.46533203 126.31201172 C15.45661477 126.33788794 11.44800026 126.34760404 7.43920898 126.35644531 C6.18601364 126.36676788 4.9328183 126.37709045 3.64164734 126.38772583 C1.90018181 126.38795242 1.90018181 126.38795242 0.12353516 126.38818359 C-1.41201775 126.39484543 -1.41201775 126.39484543 -2.97859192 126.40164185 C-5.54125977 126.16113281 -5.54125977 126.16113281 -8.54125977 124.16113281 C-8.93566895 121.77687073 -8.93566895 121.77687073 -8.96118164 118.74926758 C-8.97709351 117.61791885 -8.99300537 116.48657013 -9.00939941 115.32093811 C-9.00960083 114.09386642 -9.00980225 112.86679474 -9.01000977 111.60253906 C-9.01762329 110.34730942 -9.02523682 109.09207977 -9.03308105 107.79881287 C-9.04390517 105.13956198 -9.04808941 102.48119796 -9.04223633 99.82202148 C-9.03634073 96.41395879 -9.06691566 93.00732103 -9.10735321 89.59953403 C-9.13941859 86.35056172 -9.13511396 83.10164531 -9.13500977 79.85253906 C-9.15140503 78.62749161 -9.16780029 77.40244415 -9.18469238 76.14027405 C-9.17538696 75.00577316 -9.16608154 73.87127228 -9.15649414 72.70239258 C-9.15854858 71.70248795 -9.16060303 70.70258331 -9.16271973 69.67237854 C-8.54125977 67.16113281 -8.54125977 67.16113281 -6.06530762 65.50230408 C-5.23237183 65.05971756 -4.39943604 64.61713104 -3.54125977 64.16113281 C-3.21125977 63.17113281 -2.88125977 62.18113281 -2.54125977 61.16113281 C-4.52125977 60.50113281 -6.50125977 59.84113281 -8.54125977 59.16113281 C-8.54125977 40.02113281 -8.54125977 20.88113281 -8.54125977 1.16113281 C-5.43732229 0.12648699 -3.25547729 0.02223053 0 0 Z " fill="#F5C43A" transform="translate(87.541259765625,176.8388671875)"/>
<path d="M0 0 C0.33 0 0.66 0 1 0 C1 40.26 1 80.52 1 122 C-39.26 122 -79.52 122 -121 122 C-121 121.34 -121 120.68 -121 120 C-120.48727539 119.73896484 -119.97455078 119.47792969 -119.44628906 119.20898438 C-102.11366318 110.34473952 -86.16096608 100.07575242 -71.15234375 87.640625 C-69 86 -69 86 -67 86 C-67 85.34 -67 84.68 -67 84 C-65.6015625 82.58984375 -65.6015625 82.58984375 -63.625 80.9375 C-62.89152344 80.31101562 -62.15804687 79.68453125 -61.40234375 79.0390625 C-60.60957031 78.36617188 -59.81679688 77.69328125 -59 77 C-46.54481077 66.7755936 -46.54481077 66.7755936 -37 54 C-36.34 54 -35.68 54 -35 54 C-34.62875 53.18208984 -34.62875 53.18208984 -34.25 52.34765625 C-32.73630447 49.50474682 -30.91578878 47.02592785 -29 44.4375 C-26.94366773 41.65162338 -24.9209375 38.88140624 -23 36 C-22.34 36 -21.68 36 -21 36 C-20.73316406 35.27167969 -20.46632813 34.54335938 -20.19140625 33.79296875 C-19.01267785 31.02972021 -17.64194609 28.77913082 -15.9375 26.3125 C-13.8177976 23.24499911 -13.8177976 23.24499911 -12 20 C-11.34 20 -10.68 20 -10 20 C-9.89429688 19.278125 -9.78859375 18.55625 -9.6796875 17.8125 C-8.9376132 14.74184771 -7.80071672 12.66780771 -6.125 10 C-5.61195313 9.175 -5.09890625 8.35 -4.5703125 7.5 C-4.05210937 6.675 -3.53390625 5.85 -3 5 C-2.46117187 4.071875 -1.92234375 3.14375 -1.3671875 2.1875 C-0.91601562 1.465625 -0.46484375 0.74375 0 0 Z " fill="#FEFEFD" transform="translate(479,358)"/>
<path d="M0 0 C40.26 0 80.52 0 122 0 C122 40.92 122 81.84 122 124 C119.84706638 121.84706638 119.06383157 119.86087024 117.9296875 117.078125 C116.50697414 113.8979422 114.74266073 110.92473713 112.98828125 107.91796875 C112 106 112 106 112 104 C111.34 104 110.68 104 110 104 C109.6596875 103.33355469 109.319375 102.66710937 108.96875 101.98046875 C105.63035352 95.63218821 101.9013594 89.90870318 97.5390625 84.21484375 C96 82 96 82 96 80 C95.34 80 94.68 80 94 80 C92.69308959 78.15198283 91.62747839 76.2066147 90.51171875 74.23828125 C88.63162492 71.45457643 86.40599792 69.34887228 84 67 C82.82829138 65.75594473 81.66345995 64.5053923 80.50390625 63.25 C67.83487923 49.56764414 54.95406655 37.2559752 39.82617188 26.32519531 C38.1590085 25.11538745 36.50825574 23.8830472 34.859375 22.6484375 C29.45589364 18.61846677 23.99887822 15.08090536 18 12 C18 11.34 18 10.68 18 10 C17.071875 9.79375 16.14375 9.5875 15.1875 9.375 C9.70943544 7.84204366 4.90073812 4.81814597 0 2 C0 1.34 0 0.68 0 0 Z " fill="#FEFEFD" transform="translate(358,0)"/>
<path d="M0 0 C0.33 0.66 0.66 1.32 1 2 C1.66 2 2.32 2 3 2 C4.17154293 4.28929053 5.33738074 6.58118362 6.5 8.875 C6.83386719 9.52597656 7.16773438 10.17695313 7.51171875 10.84765625 C10 15.7734375 10 15.7734375 10 18 C10.66 18 11.32 18 12 18 C13.06985242 19.68684118 14.0533914 21.42853738 15 23.1875 C18.69945341 29.71324391 23.06228648 35.5149722 27.72363281 41.37207031 C28.95528893 42.94297372 30.14652282 44.54531336 31.3359375 46.1484375 C41.2078505 59.43124402 52.72904009 71.13367106 64.9765625 82.23046875 C67.73544421 84.74530227 70.45692068 87.26311724 73 90 C73 90.66 73 91.32 73 92 C74.11375 92.185625 74.11375 92.185625 75.25 92.375 C78.43502897 93.09887022 80.94435767 93.89073774 83.23046875 96.29296875 C85.66892647 98.64529993 88.40570161 100.52045989 91.1875 102.4375 C91.76395264 102.83638428 92.34040527 103.23526855 92.93432617 103.64624023 C97.14938623 106.51936762 101.35690424 108.90605486 106 111 C106 111.66 106 112.32 106 113 C106.86625 113.2475 107.7325 113.495 108.625 113.75 C112.19527247 115.07232314 114.84273034 116.89515356 118 119 C121.2249208 120.24324147 121.2249208 120.24324147 124 121 C124 121.33 124 121.66 124 122 C83.08 122 42.16 122 0 122 C0 81.74 0 41.48 0 0 Z " fill="#FEFEFC" transform="translate(0,358)"/>
<path d="M0 0 C40.26 0 80.52 0 122 0 C116.38635381 4.49091696 116.38635381 4.49091696 113.43359375 6.078125 C112.78898193 6.43036133 112.14437012 6.78259766 111.48022461 7.14550781 C110.46907593 7.69223145 110.46907593 7.69223145 109.4375 8.25 C100.86441441 12.97713279 92.78323979 18.219028 84.875 24 C82 26 82 26 80 26 C80 26.66 80 27.32 80 28 C76.53846154 31 76.53846154 31 74 31 C73.67 31.99 73.34 32.98 73 34 C71.58467126 35.05999088 70.11435308 36.04681403 68.625 37 C53.15727343 47.9124406 40.03088097 63.22675326 29.19140625 78.63671875 C28.79824219 79.08660156 28.40507812 79.53648438 28 80 C27.34 80 26.68 80 26 80 C25.7525 80.70640625 25.505 81.4128125 25.25 82.140625 C23.8408033 85.36416246 22.06579409 87.9021553 20 90.75 C16.28519772 95.98079759 12.88256821 101.34825037 9.625 106.875 C9.20863281 107.57592773 8.79226563 108.27685547 8.36328125 108.99902344 C5.89649642 113.22751046 3.83668778 117.46160374 2 122 C1.34 122 0.68 122 0 122 C0 81.74 0 41.48 0 0 Z " fill="#FEFEFD" transform="translate(0,0)"/>
<path d="M0 0 C8.51113968 -0.09327392 17.02206066 -0.16405248 25.53358746 -0.20724869 C29.48717679 -0.22799585 33.44041277 -0.25607296 37.39379883 -0.30175781 C41.2193676 -0.34568168 45.04459963 -0.36923347 48.87040138 -0.37950897 C50.31944889 -0.38681795 51.76848099 -0.4010868 53.21738243 -0.42292023 C69.79590915 -0.66247612 84.93135354 3.80212264 97.3515625 15.22265625 C106.7328127 25.33751133 114.17024826 38.1643519 114.04296875 52.24609375 C114.03676514 53.13868896 114.03056152 54.03128418 114.02416992 54.95092773 C114.01619385 55.62712158 114.00821777 56.30331543 114 57 C105.71506281 57.06987341 97.43025118 57.12299903 89.14509106 57.15543652 C85.29689729 57.17101414 81.44890686 57.19210547 77.60083008 57.22631836 C73.87902677 57.25919704 70.15741759 57.27691225 66.43548012 57.28463173 C65.02387758 57.29012461 63.61228425 57.30084903 62.20076561 57.31719017 C44.2279495 57.51676273 28.53015919 52.47367439 15.47265625 39.80078125 C7.00760458 30.21240519 1.23961766 18.96735374 0.40234375 6.15625 C0.32363037 4.99931641 0.24491699 3.84238281 0.16381836 2.65039062 C0.1097583 1.77576172 0.05569824 0.90113281 0 0 Z " fill="#0F0D0C" transform="translate(146,179)"/>
<path d="M0 0 C1.44445091 0.00373744 2.88890439 0.00658095 4.33335876 0.00857544 C8.10626417 0.01615444 11.87901175 0.0357525 15.65185547 0.0579834 C19.51332465 0.07856649 23.37481972 0.08760361 27.23632812 0.09765625 C34.79173805 0.11900477 42.34701865 0.15307 49.90234375 0.1953125 C50.02438133 16.91660231 43.63096639 31.22116314 31.90234375 43.1953125 C28.72932661 45.84195316 25.45163933 48.08538923 21.90234375 50.1953125 C21.23460937 50.59363281 20.566875 50.99195313 19.87890625 51.40234375 C9.47799292 57.06978019 -1.23888253 57.61828007 -12.828125 57.48828125 C-14.31455554 57.48267224 -15.8009917 57.47840833 -17.28742981 57.47541809 C-21.16232145 57.46407177 -25.03686509 57.43469539 -28.91162109 57.40130615 C-32.88048599 57.37038232 -36.84940821 57.35686553 -40.81835938 57.34179688 C-48.57828208 57.30981354 -56.33792004 57.25874437 -64.09765625 57.1953125 C-63.95862242 55.11433525 -63.81358524 53.03375851 -63.66601562 50.95336914 C-63.58589233 49.7947084 -63.50576904 48.63604767 -63.42321777 47.442276 C-62.07634465 34.00933761 -53.57619058 21.47913677 -43.38598633 13.05981445 C-29.81148465 2.4341257 -16.90840039 -0.12949947 0 0 Z " fill="#0E0D0C" transform="translate(210.09765625,243.8046875)"/>
<path d="M0 0 C18.81 0 37.62 0 57 0 C57 18.81 57 37.62 57 57 C41.10779477 57 27.67546806 52.28318386 15.9921875 41.15625 C9.63827017 34.27906889 5.51955352 26.62015648 2 18 C1.566875 17.030625 1.13375 16.06125 0.6875 15.0625 C-0.41339997 10.15849103 0 5.02606056 0 0 Z " fill="#0D0C0C" transform="translate(277,244)"/>
<path d="M0 0 C18.81 0 37.62 0 57 0 C57 18.81 57 37.62 57 57 C39.44141172 57 27.364079 51.34227287 15 39 C14.42378906 38.43539062 13.84757812 37.87078125 13.25390625 37.2890625 C3.62194825 27.03165268 0 13.6690505 0 0 Z " fill="#0D0C0C" transform="translate(342,244)"/>
<path d="M0 0 C16.90227348 0 30.02034683 5.79824531 42.0078125 17.7109375 C52.65135514 28.9603744 57 41.76677086 57 57 C38.19 57 19.38 57 0 57 C0 38.19 0 19.38 0 0 Z " fill="#0E0D0C" transform="translate(342,179)"/>
<path d="M0 0 C15.71003515 0 29.27583574 5.7284917 40.6484375 16.5234375 C51.99171971 28.46968487 57 40.60914208 57 57 C38.19 57 19.38 57 0 57 C0 38.19 0 19.38 0 0 Z " fill="#0F0D0B" transform="translate(81,244)"/>
<path d="M0 0 C18.81 0 37.62 0 57 0 C57 16.57074062 51.51622359 28.74815636 40.29296875 40.7421875 C29.32561679 51.54138585 15.38184706 57 0 57 C0 38.19 0 19.38 0 0 Z " fill="#0D0D0C" transform="translate(81,179)"/>
<path d="M0 0 C15.63462999 1.20266385 26.0426436 3.91830735 38 14 C38.64453125 14.52078125 39.2890625 15.0415625 39.953125 15.578125 C49.25876081 23.87774612 54.86589743 36.9535526 57 49 C57 51.64 57 54.28 57 57 C38.19 57 19.38 57 0 57 C0 38.19 0 19.38 0 0 Z " fill="#0F0D0B" transform="translate(277,179)"/>
<path d="M0 0 C4.95 0 9.9 0 15 0 C14.67 0.66 14.34 1.32 14 2 C10.04 1.67 6.08 1.34 2 1 C2 19.81 2 38.62 2 58 C0.35 58 -1.3 58 -3 58 C-2.67 58.99 -2.34 59.98 -2 61 C-1.34 61.33 -0.68 61.66 0 62 C0 62.99 0 63.98 0 65 C0.66 65.33 1.32 65.66 2 66 C2.59765625 68.984375 2.59765625 68.984375 3.0625 72.75 C3.58422007 76.8720197 4.12385452 80.93716609 5 85 C4.34 85 3.68 85 3 85 C2.01 83.02 1.02 81.04 0 79 C-3.24849977 80.72226496 -3.24849977 80.72226496 -4 84 C-4.07348609 86.92639983 -4.09170313 89.82836528 -4.0625 92.75390625 C-4.05871338 93.61056381 -4.05492676 94.46722137 -4.05102539 95.34983826 C-4.0388029 98.08744305 -4.0201697 100.8249429 -4 103.5625 C-3.9734869 107.16796584 -3.95345506 110.77337998 -3.9375 114.37890625 C-3.92920166 115.21224991 -3.92090332 116.04559357 -3.91235352 116.90419006 C-3.88720273 122.77440547 -3.88720273 122.77440547 -5 125 C-6.97909398 125.02686553 -8.95828971 125.04633375 -10.9375 125.0625 C-12.03964844 125.07410156 -13.14179688 125.08570313 -14.27734375 125.09765625 C-17 125 -17 125 -18 124 C-19.8871875 123.814375 -19.8871875 123.814375 -21.8125 123.625 C-25.3349214 123.2392411 -27.3775605 122.51317118 -30 120 C-29.67 119.34 -29.34 118.68 -29 118 C-27.80375 118.45375 -26.6075 118.9075 -25.375 119.375 C-18.67030321 121.54974443 -18.67030321 121.54974443 -6 123 C-6 104.19 -6 85.38 -6 66 C-24.81 66 -43.62 66 -63 66 C-62.32631409 75.10318417 -62.32631409 75.10318417 -61 84 C-63 83 -63 83 -64.07421875 80.8203125 C-65.0678538 77.79328928 -65.51455266 75.04515974 -65.8125 71.875 C-65.92207031 70.84117187 -66.03164063 69.80734375 -66.14453125 68.7421875 C-66 66 -66 66 -64.77043152 64.34416199 C-62.51224989 62.62968624 -61.34089298 62.66456632 -58.52856445 62.7512207 C-57.62785721 62.77146805 -56.72714996 62.79171539 -55.79914856 62.81257629 C-54.83031235 62.84993393 -53.86147614 62.88729156 -52.86328125 62.92578125 C-51.37141548 62.96544258 -51.37141548 62.96544258 -49.84941101 63.00590515 C-46.66983509 63.09374167 -43.49139181 63.2028665 -40.3125 63.3125 C-38.15824383 63.37575104 -36.00394653 63.43761735 -33.84960938 63.49804688 C-28.56582372 63.64929399 -23.28281189 63.81802836 -18 64 C-18 62.68 -18 61.36 -18 60 C-18.83565239 60.02878487 -18.83565239 60.02878487 -19.68818665 60.05815125 C-25.4787456 60.25459707 -31.26966911 60.42958536 -37.0612793 60.59204102 C-39.22355792 60.65552761 -41.38568232 60.72451187 -43.54760742 60.79907227 C-46.65259198 60.90520732 -49.75759176 60.99165383 -52.86328125 61.07421875 C-53.83211746 61.11157639 -54.80095367 61.14893402 -55.79914856 61.18742371 C-56.6998558 61.20767105 -57.60056305 61.2279184 -58.52856445 61.2487793 C-59.32132278 61.27320602 -60.11408112 61.29763275 -60.93086243 61.32279968 C-63.51190701 60.92013899 -64.36999457 59.98246106 -66 58 C-65.67 57.34 -65.34 56.68 -65 56 C-64.88068952 54.24409123 -64.82280132 52.48385393 -64.79467773 50.72412109 C-64.7647599 49.07263565 -64.7647599 49.07263565 -64.73423767 47.38778687 C-64.71752518 46.19505157 -64.70081268 45.00231628 -64.68359375 43.7734375 C-64.66281265 42.55548492 -64.64203156 41.33753235 -64.62062073 40.08267212 C-64.55507416 36.1801738 -64.49621645 32.2776065 -64.4375 28.375 C-64.39431965 25.73436778 -64.35070552 23.09374261 -64.30664062 20.453125 C-64.19938756 13.96882357 -64.09763071 7.48445306 -64 1 C-63.67 1 -63.34 1 -63 1 C-63 19.81 -63 38.62 -63 58 C-44.19 58 -25.38 58 -6 58 C-6.33 53.71 -6.66 49.42 -7 45 C-5.19669467 48.60661066 -4.53400897 51.08393425 -4 55 C-3.01 54.67 -2.02 54.34 -1 54 C-0.67 36.18 -0.34 18.36 0 0 Z " fill="#E2BA44" transform="translate(340,178)"/>
<path d="M0 0 C1.13450089 -0.00960754 2.26900177 -0.01921509 3.43788147 -0.02911377 C4.66292892 -0.03336365 5.88797638 -0.03761353 7.15014648 -0.04199219 C8.40633286 -0.04769226 9.66251923 -0.05339233 10.95677185 -0.05926514 C13.61395901 -0.06871614 16.27103316 -0.07561311 18.92822266 -0.07910156 C22.33708303 -0.08460104 25.74554693 -0.10866591 29.15428257 -0.13707352 C32.40287407 -0.16013566 35.65148454 -0.16214424 38.90014648 -0.16699219 C40.12721817 -0.17933899 41.35428986 -0.19168579 42.61854553 -0.20440674 C43.74989426 -0.20140564 44.88124298 -0.19840454 46.046875 -0.1953125 C47.04598404 -0.19895813 48.04509308 -0.20260376 49.07447815 -0.20635986 C49.86128464 -0.08508728 50.64809113 0.0361853 51.45874023 0.16113281 C54.09054487 4.10883977 53.25963503 6.9009343 52.58374023 11.34863281 C52.47932617 12.09822266 52.37491211 12.8478125 52.26733398 13.62011719 C52.00830743 15.46862485 51.73490058 17.31510714 51.45874023 19.16113281 C50.79874023 19.16113281 50.13874023 19.16113281 49.45874023 19.16113281 C48.79874023 20.48113281 48.13874023 21.80113281 47.45874023 23.16113281 C48.28689567 16.12181163 49.37878413 9.1808475 50.45874023 2.16113281 C31.64874023 2.16113281 12.83874023 2.16113281 -6.54125977 2.16113281 C-6.54125977 20.97113281 -6.54125977 39.78113281 -6.54125977 59.16113281 C-1.26125977 58.17113281 4.01874023 57.18113281 9.45874023 56.16113281 C12.42874023 55.66613281 12.42874023 55.66613281 15.45874023 55.16113281 C15.78874023 56.15113281 16.11874023 57.14113281 16.45874023 58.16113281 C10.91629633 60.00861411 5.81587203 60.35377446 0.02124023 60.34863281 C-1.06253906 60.34959961 -1.06253906 60.34959961 -2.16821289 60.35058594 C-7.40652788 60.2958647 -7.40652788 60.2958647 -8.54125977 59.16113281 C-8.6350203 57.35058256 -8.65870086 55.5363608 -8.65478516 53.72338867 C-8.65470963 52.56226059 -8.65463409 51.40113251 -8.65455627 50.20481873 C-8.64939499 48.94130081 -8.6442337 47.6777829 -8.63891602 46.37597656 C-8.63750107 45.0900209 -8.63608612 43.80406525 -8.6346283 42.47914124 C-8.63080395 39.05469839 -8.62097438 35.63029772 -8.60992432 32.20587158 C-8.59970841 28.71375092 -8.59513029 25.22162347 -8.59008789 21.72949219 C-8.57935203 14.87335503 -8.56227661 8.01724594 -8.54125977 1.16113281 C-5.43732229 0.12648699 -3.25547729 0.02223053 0 0 Z " fill="#E1BB5A" transform="translate(87.541259765625,176.8388671875)"/>
<path d="M0 0 C18.81 0 37.62 0 57 0 C57 2.64 57 5.28 57 8 C56.67 8 56.34 8 56 8 C56 6.02 56 4.04 56 2 C38.18 2 20.36 2 2 2 C2.144375 10.37375 2.28875 18.7475 2.4375 27.375 C2.48060303 30.01935059 2.52370605 32.66370117 2.56811523 35.38818359 C2.60622702 37.47494189 2.64469519 39.56169372 2.68359375 41.6484375 C2.70006958 42.73938721 2.71654541 43.83033691 2.73352051 44.9543457 C2.75370239 45.98954346 2.77388428 47.02474121 2.79467773 48.09130859 C2.81799416 49.44366104 2.81799416 49.44366104 2.84178162 50.82333374 C2.86435092 53.04636301 2.86435092 53.04636301 4 55 C5.65 55 7.3 55 9 55 C8.34 55.66 7.68 56.32 7 57 C4.69 57 2.38 57 0 57 C0 38.19 0 19.38 0 0 Z " fill="#1F1101" transform="translate(81,179)"/>
<path d="M0 0 C0 0.99 0 1.98 0 3 C-0.66 3 -1.32 3 -2 3 C-2 3.66 -2 4.32 -2 5 C-1.01 5.495 -1.01 5.495 0 6 C-2.31 5.67 -4.62 5.34 -7 5 C-6.505 6.485 -6.505 6.485 -6 8 C-7.299375 7.979375 -8.59875 7.95875 -9.9375 7.9375 C-11.29165633 7.91600546 -12.64756083 7.92851801 -14 8 C-14.33 8.33 -14.66 8.66 -15 9 C-17.17805719 9.09429342 -19.3592128 9.11742538 -21.53930664 9.11352539 C-22.22220261 9.11367142 -22.90509857 9.11381744 -23.60868835 9.1139679 C-25.87587614 9.11326876 -28.14298274 9.1054764 -30.41015625 9.09765625 C-31.97814387 9.09579207 -33.54613207 9.09436817 -35.11412048 9.09336853 C-39.24876503 9.08954334 -43.38337466 9.07971306 -47.51800537 9.06866455 C-51.73400398 9.05845044 -55.95000822 9.05387091 -60.16601562 9.04882812 C-68.44402647 9.03809079 -76.7220089 9.02101436 -85 9 C-85 8.34 -85 7.68 -85 7 C-83.76543816 6.99453156 -83.76543816 6.99453156 -82.50593567 6.98895264 C-74.69545502 6.95086209 -66.88544034 6.89377445 -59.07526112 6.81609726 C-55.06130814 6.77682583 -51.04756786 6.74453899 -47.03344727 6.72900391 C-43.14927551 6.71370156 -39.26568935 6.67902162 -35.38178062 6.63169098 C-33.91051045 6.61701544 -32.43915661 6.60896706 -30.96781349 6.60811615 C-19.94544729 6.59534758 -9.87062488 5.22985181 0 0 Z " fill="#E0BB5B" transform="translate(230,294)"/>
<path d="M0 0 C1.30104675 0.00007553 2.60209351 0.00015106 3.94256592 0.00022888 C5.35786986 0.00533515 6.7731734 0.01055114 8.18847656 0.01586914 C9.64007519 0.01773504 11.09167444 0.01915813 12.54327393 0.02015686 C16.35729725 0.02396852 20.17128229 0.03378724 23.98529053 0.04486084 C27.87983685 0.05510404 31.77438939 0.05966071 35.66894531 0.06469727 C43.30568149 0.07541074 50.94238615 0.0924709 58.57910156 0.11352539 C58.63516299 5.28986404 58.4538216 9.57288525 57.07910156 14.61352539 C56.80066406 15.65508789 56.52222656 16.69665039 56.23535156 17.76977539 C56.01878906 18.54321289 55.80222656 19.31665039 55.57910156 20.11352539 C55.24910156 20.11352539 54.91910156 20.11352539 54.57910156 20.11352539 C54.69275306 17.48757755 54.8194921 14.86340992 54.95410156 12.23852539 C54.98503906 11.4921582 55.01597656 10.74579102 55.04785156 9.97680664 C55.35253906 4.34008789 55.35253906 4.34008789 57.57910156 2.11352539 C56.77143845 2.13049469 55.96377533 2.14746399 55.13163757 2.16494751 C47.52449017 2.32295957 39.91724519 2.47115724 32.30969524 2.60830116 C28.3984708 2.67915729 24.48739604 2.75382216 20.57641602 2.8371582 C16.80292721 2.91742495 13.02937283 2.98773017 9.25556374 3.05109787 C7.81498171 3.07704474 6.37445999 3.10659588 4.93402672 3.13978958 C2.91836978 3.18562641 0.9024104 3.21752545 -1.11352539 3.2487793 C-2.83560966 3.28208847 -2.83560966 3.28208847 -4.59248352 3.31607056 C-7.42089844 3.11352539 -7.42089844 3.11352539 -10.42089844 1.11352539 C-6.90745845 0.03027174 -3.66469571 -0.00710212 0 0 Z " fill="#1E1601" transform="translate(201.4208984375,243.886474609375)"/>
<path d="M0 0 C11.25 0 11.25 0 15 2 C15 2.66 15 3.32 15 4 C13.35 4.33 11.7 4.66 10 5 C10.33 4.01 10.66 3.02 11 2 C7.7 2 4.4 2 1 2 C1.16749756 2.93336182 1.33499512 3.86672363 1.50756836 4.82836914 C2.21375663 9.8047251 2.01872187 14.7340307 1.87890625 19.74609375 C1.84790833 21.09193542 1.84790833 21.09193542 1.81628418 22.46496582 C1.73802656 25.7892991 1.64967816 29.11338869 1.5625 32.4375 C1.376875 39.883125 1.19125 47.32875 1 55 C19.15 55.33 37.3 55.66 56 56 C56 53.69 56 51.38 56 49 C56.33 49 56.66 49 57 49 C57 51.64 57 54.28 57 57 C38.19 57 19.38 57 0 57 C0 38.19 0 19.38 0 0 Z " fill="#241600" transform="translate(342,179)"/>
<path d="M0 0 C18.81 0 37.62 0 57 0 C57 18.81 57 37.62 57 57 C54.03 57 51.06 57 48 57 C48 56.67 48 56.34 48 56 C50.64 56 53.28 56 56 56 C56 37.85 56 19.7 56 1 C47.440625 1.144375 38.88125 1.28875 30.0625 1.4375 C27.35683838 1.48060303 24.65117676 1.52370605 21.86352539 1.56811523 C19.73322869 1.60621964 17.60293845 1.64468717 15.47265625 1.68359375 C14.35499878 1.70006958 13.23734131 1.71654541 12.08581543 1.73352051 C10.50238342 1.76379333 10.50238342 1.76379333 8.88696289 1.79467773 C7.96540909 1.81022202 7.04385529 1.8257663 6.09437561 1.84178162 C4.01249529 1.77022756 4.01249529 1.77022756 3 3 C2.92728259 5.35313555 2.91629132 7.70833668 2.9375 10.0625 C2.94652344 11.35285156 2.95554687 12.64320313 2.96484375 13.97265625 C2.97644531 14.97167969 2.98804688 15.97070312 3 17 C-0.80716148 11.28925778 0 7.17954789 0 0 Z " fill="#322000" transform="translate(342,244)"/>
<path d="M0 0 C18.81 0 37.62 0 57 0 C57 18.81 57 37.62 57 57 C56.67 57 56.34 57 56 57 C56 38.52 56 20.04 56 1 C38.18 1.33 20.36 1.66 2 2 C2 5.96 2 9.92 2 14 C1.34 13.34 0.68 12.68 0 12 C0 8.04 0 4.08 0 0 Z " fill="#42300B" transform="translate(277,244)"/>
<path d="M0 0 C0.33 0 0.66 0 1 0 C1.15373481 7.39722149 1.30191629 14.79453208 1.4429636 22.19200706 C1.50862949 25.62676468 1.5762244 29.06146196 1.64819336 32.49609375 C1.73080432 36.44260502 1.80508713 40.38925158 1.87890625 44.3359375 C1.90594131 45.57242035 1.93297638 46.8089032 1.96083069 48.08285522 C1.98092697 49.22388702 2.00102325 50.36491882 2.02172852 51.54052734 C2.04171402 52.548685 2.06169952 53.55684265 2.08229065 54.59555054 C2 57 2 57 1 59 C-0.97909398 59.02686553 -2.95828971 59.04633375 -4.9375 59.0625 C-6.03964844 59.07410156 -7.14179688 59.08570313 -8.27734375 59.09765625 C-11 59 -11 59 -12 58 C-13.8871875 57.814375 -13.8871875 57.814375 -15.8125 57.625 C-19.3349214 57.2392411 -21.3775605 56.51317118 -24 54 C-23.67 53.34 -23.34 52.68 -23 52 C-21.80375 52.45375 -20.6075 52.9075 -19.375 53.375 C-12.67030321 55.54974443 -12.67030321 55.54974443 0 57 C0 38.19 0 19.38 0 0 Z " fill="#F3CF5F" transform="translate(334,244)"/>
<path d="M0 0 C7.39727248 -0.06944095 14.79447494 -0.12278091 22.19200706 -0.15543652 C25.62681954 -0.17110785 29.06140941 -0.19237214 32.49609375 -0.22631836 C36.44268144 -0.2650808 40.38917828 -0.27969712 44.3359375 -0.29296875 C45.57242035 -0.30845261 46.8089032 -0.32393646 48.08285522 -0.33988953 C49.22388702 -0.34011612 50.36491882 -0.34034271 51.54052734 -0.34057617 C52.548685 -0.34723801 53.55684265 -0.35389984 54.59555054 -0.36076355 C55.38901886 -0.24171158 56.18248718 -0.12265961 57 0 C59.63180464 3.94770696 58.8008948 6.73980149 58.125 11.1875 C58.02058594 11.93708984 57.91617188 12.68667969 57.80859375 13.45898438 C57.5495672 15.30749204 57.27616034 17.15397432 57 19 C56.34 19 55.68 19 55 19 C54.34 20.32 53.68 21.64 53 23 C53.88261403 15.64488305 54.95146527 8.33974311 56 1 C37.52 1 19.04 1 0 1 C0 0.67 0 0.34 0 0 Z " fill="#F9CC58" transform="translate(82,177)"/>
<path d="M0 0 C0.99 0 1.98 0 3 0 C3.33 17.82 3.66 35.64 4 54 C-5.10769231 54 -5.10769231 54 -8.9375 53.125 C-9.68902344 52.96257812 -10.44054687 52.80015625 -11.21484375 52.6328125 C-13 52 -13 52 -14 50 C-12.00045254 49.95745644 -9.99958364 49.95919217 -8 50 C-7.67 50.33 -7.34 50.66 -7 51 C-4.03 51.33 -1.06 51.66 2 52 C2 35.17 2 18.34 2 1 C1.34 0.67 0.68 0.34 0 0 Z " fill="#15130D" transform="translate(329,247)"/>
<path d="M0 0 C3.95751059 0.37472964 7.45699682 2.63673386 10.9375 4.4375 C15.82503321 6.95241142 15.82503321 6.95241142 20.87890625 9.109375 C23.62713714 10.2633283 23.78305485 11.33793247 25 14 C27.75777835 17.04807081 30.16657065 19.43823249 34 21 C33.505 23.475 33.505 23.475 33 26 C32.484375 25.319375 31.96875 24.63875 31.4375 23.9375 C23.00949543 13.78067398 11.6005575 3.75491065 -2 2 C-1.34 1.34 -0.68 0.68 0 0 Z " fill="#D8B650" transform="translate(357,179)"/>
<path d="M0 0 C7.92 3.96 7.92 3.96 16 8 C16 11.63 16 15.26 16 19 C15.34 19 14.68 19 14 19 C14 18.34 14 17.68 14 17 C12.68 17.33 11.36 17.66 10 18 C9 15 9 15 9 12 C8.67 11.01 8.34 10.02 8 9 C8.99 8.67 9.98 8.34 11 8 C10.18595703 7.60167969 10.18595703 7.60167969 9.35546875 7.1953125 C8.64003906 6.84210938 7.92460937 6.48890625 7.1875 6.125 C6.47980469 5.77695313 5.77210938 5.42890625 5.04296875 5.0703125 C3 4 3 4 0 2 C0 1.34 0 0.68 0 0 Z " fill="#EEC342" transform="translate(169,225)"/>
<path d="M0 0 C4.49254001 0.53190364 7.10584524 2.23537847 10.6875 4.9375 C11.64011719 5.64777344 12.59273437 6.35804688 13.57421875 7.08984375 C16.70647197 9.55630402 18.27995925 11.471387 20 15 C20.99037263 16.63088536 21.99100805 18.25556792 23 19.875 C28.44508034 28.92794531 28.44508034 28.92794531 27.53515625 33.1640625 C27.35855469 33.76992188 27.18195313 34.37578125 27 35 C26.731875 34.26136719 26.46375 33.52273438 26.1875 32.76171875 C20.75322735 18.6933879 12.08070124 8.86656972 0 0 Z " fill="#E0BC54" transform="translate(109,251)"/>
<path d="M0 0 C0 0.99 0 1.98 0 3 C-0.66 3 -1.32 3 -2 3 C-2 3.66 -2 4.32 -2 5 C-1.34 5.33 -0.68 5.66 0 6 C-2.31 5.67 -4.62 5.34 -7 5 C-6.67 5.99 -6.34 6.98 -6 8 C-7.299375 7.979375 -8.59875 7.95875 -9.9375 7.9375 C-11.29165633 7.91600546 -12.64756083 7.92851801 -14 8 C-14.33 8.33 -14.66 8.66 -15 9 C-17.33297433 9.04092937 -19.66705225 9.04241723 -22 9 C-22 8.34 -22 7.68 -22 7 C-20.37191406 6.61908203 -20.37191406 6.61908203 -18.7109375 6.23046875 C-17.26553276 5.88319618 -15.82022535 5.53551836 -14.375 5.1875 C-13.66214844 5.02185547 -12.94929687 4.85621094 -12.21484375 4.68554688 C-7.80283625 3.61290285 -4.00941682 2.20707645 0 0 Z " fill="#F0C64A" transform="translate(230,294)"/>
<path d="M0 0 C0.66 0 1.32 0 2 0 C2.07476562 0.825 2.14953125 1.65 2.2265625 2.5 C3.35368364 12.40098573 6.21545546 20.83616574 10 30 C9.01 30 8.02 30 7 30 C7 29.34 7 28.68 7 28 C6.34 28 5.68 28 5 28 C2.45111638 18.65804514 0.36868599 9.73331009 0 0 Z " fill="#E6C051" transform="translate(144,178)"/>
<path d="M0 0 C0.99 0 1.98 0 3 0 C3.66 2.31 4.32 4.62 5 7 C5.66 7 6.32 7 7 7 C7.20496094 7.99902344 7.40992188 8.99804688 7.62109375 10.02734375 C7.89050781 11.31769531 8.15992188 12.60804688 8.4375 13.9375 C8.70433594 15.22527344 8.97117187 16.51304687 9.24609375 17.83984375 C9.67181616 20.84638879 9.67181616 20.84638879 11 22 C11.07179964 23.51928038 11.08392007 25.04167482 11.0625 26.5625 C11.05347656 27.38878906 11.04445313 28.21507812 11.03515625 29.06640625 C11.02355469 29.70449219 11.01195312 30.34257812 11 31 C10.34 31 9.68 31 9 31 C8.82984375 29.88882813 8.6596875 28.77765625 8.484375 27.6328125 C6.88559283 17.65528981 4.57904307 9.05632962 0 0 Z " fill="#E8C153" transform="translate(390,205)"/>
<path d="M0 0 C1.32 0.33 2.64 0.66 4 1 C4 1.66 4 2.32 4 3 C4.556875 3.268125 5.11375 3.53625 5.6875 3.8125 C8 5 8 5 10.625 6.6875 C11.40875 7.120625 12.1925 7.55375 13 8 C13.66 7.67 14.32 7.34 15 7 C15.66 7.33 16.32 7.66 17 8 C16.49396008 10.16874252 16.00016187 11.99967627 15 14 C15.66 14.33 16.32 14.66 17 15 C16.34 15.66 15.68 16.32 15 17 C14.67128906 16.5153125 14.34257812 16.030625 14.00390625 15.53125 C10.4308644 10.49606908 6.47480829 6.543939 1.7578125 2.56640625 C1.17773438 2.04949219 0.59765625 1.53257812 0 1 C0 0.67 0 0.34 0 0 Z " fill="#E6C049" transform="translate(309,188)"/>
<path d="M0 0 C4.62 2.31 9.24 4.62 14 7 C14 7.66 14 8.32 14 9 C14.886875 9.2475 15.77375 9.495 16.6875 9.75 C20.10427135 11.03934768 22.2797748 12.59980129 25 15 C21.02524965 15.28391074 19.08395643 14.77405953 15.875 12.4375 C11.39515262 9.257035 6.78152641 6.37311074 2.08984375 3.515625 C1.40019531 3.01546875 0.71054688 2.5153125 0 2 C0 1.34 0 0.68 0 0 Z " fill="#FEF8D9" transform="translate(92,462)"/>
<path d="M0 0 C0.66 0.33 1.32 0.66 2 1 C1.525625 1.7425 1.05125 2.485 0.5625 3.25 C-0.77869327 5.61050015 -1.512312 7.36648477 -2 10 C-2.66 10 -3.32 10 -4 10 C-4.20625 10.825 -4.4125 11.65 -4.625 12.5 C-6.37688985 16.95935597 -9.01010465 20.29553846 -12 24 C-13 22 -13 22 -12.75 20 C-12 18 -12 18 -9 16 C-8.27617533 13.94074861 -8.27617533 13.94074861 -8 12 C-7.34 12 -6.68 12 -6 12 C-5.5978125 10.3603125 -5.5978125 10.3603125 -5.1875 8.6875 C-4.09337356 5.28994947 -3.61971968 4.16411626 -1 2 C-0.67 1.34 -0.34 0.68 0 0 Z " fill="#EEC95B" transform="translate(471,368)"/>
<path d="M0 0 C0.33 0.99 0.66 1.98 1 3 C-2.15965221 8.0069888 -6.36538001 12.03443489 -12 14 C-12.66 13.67 -13.32 13.34 -14 13 C-9.38 8.71 -4.76 4.42 0 0 Z " fill="#FDF9DE" transform="translate(430,426)"/>
<path d="M0 0 C0.66 0.33 1.32 0.66 2 1 C1.73445312 1.65484375 1.46890625 2.3096875 1.1953125 2.984375 C-1.49070116 9.92487745 -3.02249542 16.63012998 -4 24 C-4.33 24 -4.66 24 -5 24 C-5.28007431 9.6539712 -5.28007431 9.6539712 -4 3 C-3.34 2.67 -2.68 2.34 -2 2 C-1.34 2.33 -0.68 2.66 0 3 C0 2.01 0 1.02 0 0 Z " fill="#EAC14E" transform="translate(150,276)"/>
<path d="M0 0 C0.33 0.66 0.66 1.32 1 2 C2.33076989 2.34342449 3.66431979 2.67619874 5 3 C7 5 7 5 7 8 C2.27775484 6.46527032 -2.35855331 4.76054874 -7 3 C-7 2.34 -7 1.68 -7 1 C-3.535 0.505 -3.535 0.505 0 0 Z " fill="#E9C146" transform="translate(225,178)"/>
<path d="M0 0 C10.4569049 0.65133609 10.4569049 0.65133609 13.38671875 3.58984375 C15.13671875 6.15234375 15.13671875 6.15234375 16.13671875 8.15234375 C14.28046875 7.50265625 14.28046875 7.50265625 12.38671875 6.83984375 C6.71974657 4.94181479 0.9465066 3.53843527 -4.86328125 2.15234375 C-2.86328125 0.15234375 -2.86328125 0.15234375 0 0 Z " fill="#DAB44A" transform="translate(92.86328125,242.84765625)"/>
<path d="M0 0 C0.33 0.66 0.66 1.32 1 2 C-0.20866842 5.40624736 -1.96222489 7.10139056 -5 9 C-5.66 9 -6.32 9 -7 9 C-7.33 9.99 -7.66 10.98 -8 12 C-10.31 12.33 -12.62 12.66 -15 13 C-11.83525695 9.74483572 -8.67247209 6.67991207 -5 4 C-4.34 4 -3.68 4 -3 4 C-3 3.34 -3 2.68 -3 2 C-2.01 1.34 -1.02 0.68 0 0 Z " fill="#FBF3CF" transform="translate(415,440)"/>
<path d="M0 0 C0.97839844 0.27714844 1.95679688 0.55429687 2.96484375 0.83984375 C9.98483098 2.792079 16.70012769 4.48772826 24 5 C20.20129266 7.12157386 17.35713932 7.24663053 13 7 C12.67 6.67 12.34 6.34 12 6 C10.741875 5.87625 9.48375 5.7525 8.1875 5.625 C4.68688884 5.22906014 2.51943458 4.62441103 0 2 C0 1.34 0 0.68 0 0 Z " fill="#E1BC50" transform="translate(310,296)"/>
<path d="M0 0 C0.66 0.33 1.32 0.66 2 1 C2.484375 2.99609375 2.484375 2.99609375 2.75 5.4375 C2.84796875 6.24058594 2.9459375 7.04367188 3.046875 7.87109375 C3 10 3 10 1 12 C0.32059533 14.42715206 0.32059533 14.42715206 -0.125 17.125 C-0.29257812 18.03507812 -0.46015625 18.94515625 -0.6328125 19.8828125 C-0.75398438 20.58148438 -0.87515625 21.28015625 -1 22 C-1.99 22 -2.98 22 -4 22 C-3.79503906 21.0821875 -3.59007812 20.164375 -3.37890625 19.21875 C-1.97440691 12.82122192 -0.65196633 6.51966333 0 0 Z " fill="#D5B149" transform="translate(260,244)"/>
<path d="M0 0 C1.32 0.66 2.64 1.32 4 2 C3.34 7.61 2.68 13.22 2 19 C1.34 19 0.68 19 0 19 C-0.66 20.32 -1.32 21.64 -2 23 C-1.10188679 15.43018868 -1.10188679 15.43018868 -0.4375 12.625 C0.26046418 8.43721491 0.07402048 4.23561622 0 0 Z " fill="#E0BA4E" transform="translate(137,177)"/>
<path d="M0 0 C0.66 0 1.32 0 2 0 C3.62677091 2.13770618 5.13979644 4.2675534 6.625 6.5 C7.04523438 7.12003906 7.46546875 7.74007812 7.8984375 8.37890625 C8.93837167 9.91517264 9.96997056 11.45707524 11 13 C10.67 13.66 10.34 14.32 10 15 C9.34 14.67 8.68 14.34 8 14 C8 13.34 8 12.68 8 12 C7.01 12.33 6.02 12.66 5 13 C5 12.01 5 11.02 5 10 C4.01 9.67 3.02 9.34 2 9 C2.33 7.35 2.66 5.7 3 4 C2.01 4 1.02 4 0 4 C0 2.68 0 1.36 0 0 Z " fill="#F2CB57" transform="translate(452,80)"/>
<path d="M0 0 C0.33 0.66 0.66 1.32 1 2 C0.67 2.66 0.34 3.32 0 4 C-0.99 4 -1.98 4 -3 4 C-3.061875 4.556875 -3.12375 5.11375 -3.1875 5.6875 C-4.3717368 9.05802012 -6.25874607 10.7687468 -9 13 C-11.16796875 12.63671875 -11.16796875 12.63671875 -13 12 C-11.21135158 10.18443212 -9.41928379 8.37248378 -7.625 6.5625 C-7.11710937 6.04623047 -6.60921875 5.52996094 -6.0859375 4.99804688 C-2.2265625 1.11328125 -2.2265625 1.11328125 0 0 Z " fill="#EFC949" transform="translate(66,38)"/>
<path d="M0 0 C0.66 0 1.32 0 2 0 C1.66548025 2.95820408 1.0955792 3.91277745 -1.14453125 5.95703125 C-2.02496094 6.56933594 -2.90539062 7.18164062 -3.8125 7.8125 C-4.68519531 8.43769531 -5.55789063 9.06289063 -6.45703125 9.70703125 C-9 11 -9 11 -11.32421875 10.69921875 C-11.87722656 10.46847656 -12.43023437 10.23773438 -13 10 C-11.71802734 9.04287109 -11.71802734 9.04287109 -10.41015625 8.06640625 C-9.29423934 7.23181293 -8.17835564 6.39717522 -7.0625 5.5625 C-6.21655273 4.93118164 -6.21655273 4.93118164 -5.35351562 4.28710938 C-2.57122778 2.26901433 -2.57122778 2.26901433 0 0 Z " fill="#FBF3C9" transform="translate(398,453)"/>
<path d="M0 0 C0.66 0.66 1.32 1.32 2 2 C0.56665422 3.62866544 -0.87182979 5.25280994 -2.3125 6.875 C-3.51326172 8.23238281 -3.51326172 8.23238281 -4.73828125 9.6171875 C-7 12 -7 12 -10 14 C-10.36458333 9.50347222 -10.36458333 9.50347222 -8.6875 7.1875 C-7 6 -7 6 -4 6 C-4 5.34 -4 4.68 -4 4 C-3.34 4 -2.68 4 -2 4 C-1.34 2.68 -0.68 1.36 0 0 Z " fill="#1C1307" transform="translate(126,210)"/>
<path d="M0 0 C3.58102841 3.38208239 6.56773474 6.69676146 9 11 C8.67 11.99 8.34 12.98 8 14 C7.38125 13.34 6.7625 12.68 6.125 12 C4.24362573 9.7715451 4.24362573 9.7715451 2 10 C0 8 0 8 -0.1953125 6.0546875 C-0.13020833 4.03645833 -0.06510417 2.01822917 0 0 Z " fill="#191307" transform="translate(384,198)"/>
<path d="M0 0 C0.33 0.99 0.66 1.98 1 3 C0.67 3.66 0.34 4.32 0 5 C-0.66 5 -1.32 5 -2 5 C-2.1546875 6.1446875 -2.1546875 6.1446875 -2.3125 7.3125 C-3.04711194 10.18416484 -3.6716065 11.23042094 -6 13 C-6.66 13 -7.32 13 -8 13 C-8.33 14.32 -8.66 15.64 -9 17 C-9.66 17 -10.32 17 -11 17 C-9.67997942 13.42705968 -8.10478612 10.36046508 -6 7.1875 C-5.484375 6.39730469 -4.96875 5.60710937 -4.4375 4.79296875 C-3.7259375 3.90544922 -3.7259375 3.90544922 -3 3 C-2.34 3 -1.68 3 -1 3 C-0.67 2.01 -0.34 1.02 0 0 Z " fill="#F1CA54" transform="translate(29,77)"/>
<path d="M0 0 C-0.23046875 1.88671875 -0.23046875 1.88671875 -1 4 C-2.92578125 5.08203125 -2.92578125 5.08203125 -5.3125 5.8125 C-6.48232422 6.19341797 -6.48232422 6.19341797 -7.67578125 6.58203125 C-10.15528491 7.02792519 -11.63492369 6.79557487 -14 6 C-12.42356682 4.98915735 -10.8385483 3.99169489 -9.25 3 C-8.36828125 2.443125 -7.4865625 1.88625 -6.578125 1.3125 C-4 0 -4 0 0 0 Z " fill="#F1CE5E" transform="translate(126,0)"/>
<path d="M0 0 C-4.62 3.3 -9.24 6.6 -14 10 C-14.66 9.01 -15.32 8.02 -16 7 C-15.67 6.34 -15.34 5.68 -15 5 C-13.02 5 -11.04 5 -9 5 C-8.7525 4.38125 -8.505 3.7625 -8.25 3.125 C-6.05756043 -0.60214727 -4.06146667 -1.35382222 0 0 Z " fill="#FCF9DF" transform="translate(96,16)"/>
<path d="M0 0 C1.80330533 3.60661066 2.46599103 6.08393425 3 10 C3.99 9.67 4.98 9.34 6 9 C6.33 10.32 6.66 11.64 7 13 C6.01 13 5.02 13 4 13 C4 13.66 4 14.32 4 15 C1.39417629 15.93065133 0.35801776 16.14917407 -2.25 15.0625 C-2.8275 14.711875 -3.405 14.36125 -4 14 C-2.35 14 -0.7 14 1 14 C0.67 9.38 0.34 4.76 0 0 Z " fill="#F7C848" transform="translate(333,223)"/>
<path d="M0 0 C4.66666667 4.66666667 9.33333333 9.33333333 14 14 C9.43109978 13.52119873 7.3795105 11.9218589 4.1875 8.6875 C3.00220703 7.51767578 3.00220703 7.51767578 1.79296875 6.32421875 C0 4 0 4 0 0 Z " fill="#D8B64C" transform="translate(352,277)"/>
<path d="M0 0 C6.03544145 7.27560065 5.27829086 17.00192896 5 26 C4.67 26 4.34 26 4 26 C3.89042969 25.03320312 3.78085937 24.06640625 3.66796875 23.0703125 C2.7383148 15.43656865 1.5724812 8.28869674 -1 1 C-0.67 0.67 -0.34 0.34 0 0 Z " fill="#DBB852" transform="translate(256,210)"/>
<path d="M0 0 C2 3 2 3 1.875 5.0625 C0.72951226 7.59893714 -0.54679216 7.8105659 -3 9 C-4.26804566 11.0335948 -4.26804566 11.0335948 -5 13 C-5.66 13 -6.32 13 -7 13 C-5.58832253 7.73829306 -3.25149768 4.27828642 0 0 Z " fill="#1F1606" transform="translate(158,266)"/>
<path d="M0 0 C2.64 0 5.28 0 8 0 C8 0.66 8 1.32 8 2 C8.66 2 9.32 2 10 2 C10 3.32 10 4.64 10 6 C6.51329166 4.8905928 3.22515763 3.73662334 0 2 C0 1.34 0 0.68 0 0 Z " fill="#FBF7DC" transform="translate(358,0)"/>
<path d="M0 0 C1.77174819 0.08723378 3.54247377 0.19541655 5.3125 0.3125 C6.29863281 0.37050781 7.28476562 0.42851562 8.30078125 0.48828125 C11.24384457 1.04622813 12.18182999 1.68540132 14 4 C10.30962722 5.37095624 8.29116165 4.60010967 4.75 3.0625 C3.85796875 2.68222656 2.9659375 2.30195313 2.046875 1.91015625 C1.37140625 1.60980469 0.6959375 1.30945313 0 1 C0 0.67 0 0.34 0 0 Z " fill="#2B1F07" transform="translate(374,295)"/>
<path d="M0 0 C1.32 0.33 2.64 0.66 4 1 C2.83709195 4.48872415 1.86032391 5.09976864 -1.0625 7.1875 C-1.79597656 7.71730469 -2.52945313 8.24710937 -3.28515625 8.79296875 C-3.85105469 9.19128906 -4.41695312 9.58960938 -5 10 C-5.66 9.67 -6.32 9.34 -7 9 C-4.69 6.03 -2.38 3.06 0 0 Z " fill="#E3BB48" transform="translate(250,276)"/>
<path d="M0 0 C0.33 0.99 0.66 1.98 1 3 C-3.26616316 4.13764351 -6.56486311 5 -11 5 C-10.67 4.01 -10.34 3.02 -10 2 C-6.54310037 0.78368346 -3.67168136 0 0 0 Z " fill="#DFB746" transform="translate(103,232)"/>
<path d="M0 0 C3.78344065 1.73140504 6.0602493 4.0602493 9 7 C10.31747324 7.69748583 11.64914193 8.36959957 13 9 C14.75 10.625 14.75 10.625 16 12 C15.01 12.495 15.01 12.495 14 13 C8.52964787 9.20962911 4.10037573 5.24972347 0 0 Z " fill="#1B0F02" transform="translate(355,280)"/>
<path d="M0 0 C0 3.65126288 -0.48892367 4.40792121 -3 7 C-7.2911515 9.18605831 -11.22628542 10.41783969 -16 11 C-12.27704726 8.09956008 -8.31298708 5.77597021 -4.2421875 3.40234375 C-1.91199854 2.06170146 -1.91199854 2.06170146 0 0 Z " fill="#DBB952" transform="translate(119,221)"/>
<path d="M0 0 C1.32 0 2.64 0 4 0 C4.33 0.99 4.66 1.98 5 3 C5.66 3.33 6.32 3.66 7 4 C7 4.66 7 5.32 7 6 C7.66 6 8.32 6 9 6 C9 6.66 9 7.32 9 8 C9.66 8 10.32 8 11 8 C11.33 9.65 11.66 11.3 12 13 C10.85872377 11.85872377 9.71776264 10.71713121 8.578125 9.57421875 C7.42694314 8.42588635 6.26987213 7.28344889 5.109375 6.14453125 C4.47515625 5.51933594 3.8409375 4.89414062 3.1875 4.25 C2.58292969 3.65703125 1.97835938 3.0640625 1.35546875 2.453125 C0 1 0 1 0 0 Z " fill="#FDF6CF" transform="translate(428,51)"/>
<path d="M0 0 C0.33 0.99 0.66 1.98 1 3 C1.66 3 2.32 3 3 3 C3 3.66 3 4.32 3 5 C4.32 5.33 5.64 5.66 7 6 C7 6.66 7 7.32 7 8 C7.66 8 8.32 8 9 8 C9.33 9.32 9.66 10.64 10 12 C5.30840284 8.61227103 0.9700218 5.21814817 -3 1 C-2.01 0.67 -1.02 0.34 0 0 Z " fill="#FCF5D1" transform="translate(406,28)"/>
<path d="M0 0 C1 2 1 2 0.328125 4.0234375 C-3.51160093 12.39849188 -3.51160093 12.39849188 -6 15 C-6.66 15 -7.32 15 -8 15 C-6.62712658 11.30123909 -4.93644547 8.0485524 -2.875 4.6875 C-2.33617187 3.80449219 -1.79734375 2.92148437 -1.2421875 2.01171875 C-0.83226562 1.34785156 -0.42234375 0.68398438 0 0 Z " fill="#FDF7D3" transform="translate(479,358)"/>
<path d="M0 0 C1.99954746 -0.04254356 4.00041636 -0.04080783 6 0 C6.33 0.33 6.66 0.66 7 1 C9.58022142 1.28221172 12.16030185 1.44820197 14.75 1.62109375 C15.86375 1.80865234 15.86375 1.80865234 17 2 C17.33 2.66 17.66 3.32 18 4 C12.16905105 4.21203451 6.55586224 3.96947414 1 2 C0.67 1.34 0.34 0.68 0 0 Z " fill="#221602" transform="translate(315,297)"/>
<path d="M0 0 C0.66 0.33 1.32 0.66 2 1 C2 2.32 2 3.64 2 5 C2.99 5.66 3.98 6.32 5 7 C2 8 2 8 -0.26171875 7.00390625 C-1.06222656 6.52824219 -1.86273438 6.05257813 -2.6875 5.5625 C-3.49574219 5.08941406 -4.30398438 4.61632812 -5.13671875 4.12890625 C-5.75160156 3.75636719 -6.36648438 3.38382812 -7 3 C-5 2 -5 2 -2.9375 1.5 C-1.00759217 1.17692051 -1.00759217 1.17692051 0 0 Z " fill="#1E1407" transform="translate(309,289)"/>
<path d="M0 0 C0.6875 1.6875 0.6875 1.6875 1 4 C0.04504326 5.69287785 -0.9590934 7.35857037 -2 9 C-2.70670728 11.69254991 -2.70670728 11.69254991 -3 14 C-3.99 14 -4.98 14 -6 14 C-6 12.68 -6 11.36 -6 10 C-5.34 10 -4.68 10 -4 10 C-3.896875 9.278125 -3.79375 8.55625 -3.6875 7.8125 C-2.94013068 4.75508007 -1.71954811 2.61670365 0 0 Z " fill="#EFCF64" transform="translate(6,112)"/>
<path d="M0 0 C4 0 4 0 5.6328125 1.609375 C6.37144531 2.66898438 6.37144531 2.66898438 7.125 3.75 C7.62257812 4.44609375 8.12015625 5.1421875 8.6328125 5.859375 C9.90847533 7.85669852 10.98750559 9.85929754 12 12 C10.8274869 11.04882866 9.66212985 10.08882991 8.5 9.125 C7.8503125 8.59132812 7.200625 8.05765625 6.53125 7.5078125 C6.0259375 7.01023438 5.520625 6.51265625 5 6 C5 5.34 5 4.68 5 4 C3.35 4 1.7 4 0 4 C0 2.68 0 1.36 0 0 Z " fill="#E7C14E" transform="translate(153,211)"/>
<path d="M0 0 C1.32 0.33 2.64 0.66 4 1 C1.03 4.3 -1.94 7.6 -5 11 C-5.33 9.68 -5.66 8.36 -6 7 C-5.34 7 -4.68 7 -4 7 C-4 6.34 -4 5.68 -4 5 C-3.34 5 -2.68 5 -2 5 C-1.855625 4.360625 -1.71125 3.72125 -1.5625 3.0625 C-1 1 -1 1 0 0 Z " fill="#FEF8D8" transform="translate(45,54)"/>
<path d="M0 0 C0 0.99 0 1.98 0 3 C-0.99 3 -1.98 3 -3 3 C-3.226875 3.598125 -3.45375 4.19625 -3.6875 4.8125 C-5.3611297 7.60188284 -7.08817726 8.6168842 -10 10 C-10.66 9.67 -11.32 9.34 -12 9 C-10.37660195 7.29115995 -8.70680947 5.62553283 -7 4 C-6.34 4 -5.68 4 -5 4 C-5 3.34 -5 2.68 -5 2 C-2 0 -2 0 0 0 Z " fill="#EECB58" transform="translate(85,24)"/>
<path d="M0 0 C8 9.42857143 8 9.42857143 8 14 C5.60510457 13.25675659 4.29222384 12.52942646 3.06640625 10.30859375 C2.32780077 8.55926499 1.65950315 6.78065851 1 5 C0.67 5 0.34 5 0 5 C0 3.35 0 1.7 0 0 Z " fill="#241704" transform="translate(321,200)"/>
<path d="M0 0 C4.29 0.33 8.58 0.66 13 1 C12.34 1.66 11.68 2.32 11 3 C8.6171875 2.9765625 8.6171875 2.9765625 5.875 2.625 C4.96492188 2.51414063 4.05484375 2.40328125 3.1171875 2.2890625 C2.41851562 2.19367188 1.71984375 2.09828125 1 2 C1.33 3.32 1.66 4.64 2 6 C1.34 5.67 0.68 5.34 0 5 C0 3.35 0 1.7 0 0 Z " fill="#1D0F02" transform="translate(277,179)"/>
<path d="M0 0 C2.64 0.99 5.28 1.98 8 3 C8 3.66 8 4.32 8 5 C8.804375 5.28875 9.60875 5.5775 10.4375 5.875 C13 7 13 7 14 9 C11.03 8.01 8.06 7.02 5 6 C5 5.34 5 4.68 5 4 C4.01 4 3.02 4 2 4 C2 3.34 2 2.68 2 2 C1.34 2 0.68 2 0 2 C0 1.34 0 0.68 0 0 Z " fill="#EEC75A" transform="translate(368,7)"/>
<path d="M0 0 C-10.10526316 8 -10.10526316 8 -14 8 C-13.67 7.01 -13.34 6.02 -13 5 C-11.35 4.67 -9.7 4.34 -8 4 C-7.67 3.01 -7.34 2.02 -7 1 C-4.53721199 -0.231394 -2.7204945 -0.07159196 0 0 Z " fill="#FDF9E0" transform="translate(110,7)"/>
<path d="M0 0 C0 3.97054597 -1.3139381 5.16471244 -4 8 C-6.25 8.8125 -6.25 8.8125 -8 9 C-8 9.66 -8 10.32 -8 11 C-8.66 10.67 -9.32 10.34 -10 10 C-6.92118304 6.12948725 -3.99926986 2.97088618 0 0 Z " fill="#251706" transform="translate(169,255)"/>
<path d="M0 0 C0.66 0 1.32 0 2 0 C0.56032356 5.23518706 -1.81696611 9.63026009 -5 14 C-5.33 14 -5.66 14 -6 14 C-6.42820102 10.36029133 -5.97413512 8.95430537 -4.125 5.6875 C-3.42375 4.800625 -2.7225 3.91375 -2 3 C-1.34 3 -0.68 3 0 3 C0 2.01 0 1.02 0 0 Z " fill="#FDF9DC" transform="translate(13,96)"/>
<path d="M0 0 C0.33 0.99 0.66 1.98 1 3 C-0.1796875 4.75390625 -0.1796875 4.75390625 -1.875 6.5625 C-4.22310453 9.08137361 -4.22310453 9.08137361 -6 12 C-6.99 12 -7.98 12 -9 12 C-7.55575365 8.76138697 -5.74227753 6.38030837 -3.375 3.75 C-2.74335937 3.04359375 -2.11171875 2.3371875 -1.4609375 1.609375 C-0.97882812 1.07828125 -0.49671875 0.5471875 0 0 Z " fill="#EDCC5C" transform="translate(39,65)"/>
<path d="M0 0 C3.26008643 3.16952847 6.22237877 6.39937989 9 10 C8.67 10.66 8.34 11.32 8 12 C6.35 11.67 4.7 11.34 3 11 C3.0928125 9.88625 3.0928125 9.88625 3.1875 8.75 C2.96709928 5.51745608 2.02264742 4.4440323 0 2 C0 1.34 0 0.68 0 0 Z " fill="#FAF3C8" transform="translate(18,388)"/>
<path d="M0 0 C0 0.99 0 1.98 0 3 C-0.66 3 -1.32 3 -2 3 C-2 3.66 -2 4.32 -2 5 C-1.34 5.33 -0.68 5.66 0 6 C-3.96 6 -7.92 6 -12 6 C-9.71540242 3.71540242 -7.87462656 3.02870252 -4.875 1.875 C-3.96492187 1.52179688 -3.05484375 1.16859375 -2.1171875 0.8046875 C-1.06917969 0.40636719 -1.06917969 0.40636719 0 0 Z " fill="#E2BE4D" transform="translate(230,294)"/>
<path d="M0 0 C3.0916909 2.52956528 3.90931332 5.22454612 5 9 C5.66 9 6.32 9 7 9 C7.33 10.32 7.66 11.64 8 13 C7.34 13 6.68 13 6 13 C2 7.58823529 2 7.58823529 2 5 C1.34 5 0.68 5 0 5 C0 3.35 0 1.7 0 0 Z " fill="#EFCA63" transform="translate(463,95)"/>
<path d="M0 0 C0.33 0.66 0.66 1.32 1 2 C-0.43257963 4.72872311 -1.81722366 6.81722366 -4 9 C-5.32 8.67 -6.64 8.34 -8 8 C-5.36 5.36 -2.72 2.72 0 0 Z " fill="#EDC951" transform="translate(52,51)"/>
<path d="M0 0 C0.66 0 1.32 0 2 0 C2 0.66 2 1.32 2 2 C2.66 2 3.32 2 4 2 C4 3.65 4 5.3 4 7 C4.66 7 5.32 7 6 7 C7.06775224 8.96466413 8.06553465 10.96855359 9 13 C8.67 13.66 8.34 14.32 8 15 C5 10.25 5 10.25 5 8 C4.34 8 3.68 8 3 8 C2.01 5.36 1.02 2.72 0 0 Z " fill="#EECA63" transform="translate(7,368)"/>
<path d="M0 0 C3.18005028 3.88672813 6.10554447 7.89952133 9 12 C8.01 12 7.02 12 6 12 C4.60699818 10.04109119 3.27754554 8.0360882 2 6 C0.37648891 4.20605554 0.37648891 4.20605554 -1 3 C-0.67 2.01 -0.34 1.02 0 0 Z " fill="#DBB852" transform="translate(283,271)"/>
<path d="M0 0 C6.875 3.75 6.875 3.75 8 6 C7.01 6 6.02 6 5 6 C4.67 6.99 4.34 7.98 4 9 C3.34 8.67 2.68 8.34 2 8 C1.60828247 6.34608154 1.27942455 4.67654729 1 3 C0.67 2.01 0.34 1.02 0 0 Z " fill="#1E1709" transform="translate(110,252)"/>
<path d="M0 0 C-0.33 0.99 -0.66 1.98 -1 3 C-1.99 3.33 -2.98 3.66 -4 4 C-4.33 4.66 -4.66 5.32 -5 6 C-6.65 6 -8.3 6 -10 6 C-10 5.34 -10 4.68 -10 4 C-8.71086513 3.32845067 -7.41859796 2.66291141 -6.125 2 C-5.40570313 1.62875 -4.68640625 1.2575 -3.9453125 0.875 C-2 0 -2 0 0 0 Z " fill="#FCF5D1" transform="translate(368,474)"/>
<path d="M0 0 C1 3 1 3 0.4375 5.0625 C-1.58618642 7.79007734 -3.78821942 8.1621442 -7 9 C-6.34 7.68 -5.68 6.36 -5 5 C-4.34 5 -3.68 5 -3 5 C-2.690625 4.360625 -2.38125 3.72125 -2.0625 3.0625 C-1 1 -1 1 0 0 Z " fill="#FCF4CF" transform="translate(447,407)"/>
<path d="M0 0 C0 0.66 0 1.32 0 2 C-3.93281242 5.0900669 -7.02125936 6.52583422 -12 7 C-8.8380314 3.47318887 -4.98182478 0 0 0 Z " fill="#EECB67" transform="translate(112,7)"/>
<path d="M0 0 C5.06562383 -0.25328119 9.15758367 0.66416101 14 2 C14 2.33 14 2.66 14 3 C12.741875 3.185625 11.48375 3.37125 10.1875 3.5625 C9.12595703 3.71912109 9.12595703 3.71912109 8.04296875 3.87890625 C6 4 6 4 3 3 C3 2.34 3 1.68 3 1 C2.01 0.67 1.02 0.34 0 0 Z " fill="#EEC44B" transform="translate(384,300)"/>
<path d="M0 0 C0.33 0.99 0.66 1.98 1 3 C0.236875 3.45375 -0.52625 3.9075 -1.3125 4.375 C-3.23632814 5.53824492 -5.12941224 6.7529415 -7 8 C-7.99 7.67 -8.98 7.34 -10 7 C-6.7 4.69 -3.4 2.38 0 0 Z " fill="#E4BE52" transform="translate(242,286)"/>
<path d="M0 0 C0.66 0.33 1.32 0.66 2 1 C1.39301257 5.12751449 -0.03810791 8.3321148 -2 12 C-2.33 12 -2.66 12 -3 12 C-3.125 9.125 -3.125 9.125 -3 6 C-2.34 5.34 -1.68 4.68 -1 4 C-0.3574765 1.93125966 -0.3574765 1.93125966 0 0 Z " fill="#302007" transform="translate(133,196)"/>
<path d="M0 0 C0.66 0.33 1.32 0.66 2 1 C2 1.66 2 2.32 2 3 C2.99 3 3.98 3 5 3 C5 3.66 5 4.32 5 5 C5.99 5 6.98 5 8 5 C8 5.99 8 6.98 8 8 C5.33333333 6.66666667 2.66666667 5.33333333 0 4 C0 3.34 0 2.68 0 2 C-0.66 1.67 -1.32 1.34 -2 1 C-1.34 0.67 -0.68 0.34 0 0 Z " fill="#FBF3CE" transform="translate(376,8)"/>
<path d="M0 0 C1.98 0 3.96 0 6 0 C-2.44827586 7 -2.44827586 7 -6 7 C-6 6.34 -6 5.68 -6 5 C-5.01 5 -4.02 5 -3 5 C-3 4.34 -3 3.68 -3 3 C-2.01 3 -1.02 3 0 3 C0 2.01 0 1.02 0 0 Z " fill="#FDFADF" transform="translate(116,0)"/>
<path d="M0 0 C2.64 0.33 5.28 0.66 8 1 C8.144375 1.61875 8.28875 2.2375 8.4375 2.875 C8.93152225 5.03258322 8.93152225 5.03258322 10 7 C6.42032008 5.34784004 3.22017048 3.26875648 0 1 C0 0.67 0 0.34 0 0 Z " fill="#EFC858" transform="translate(85,456)"/>
<path d="M0 0 C4.30764815 1.56641751 8.06171464 3.68336156 12 6 C7.82412255 7.39195915 5.86525224 5.82323219 2 4 C2 3.34 2 2.68 2 2 C1.34 2 0.68 2 0 2 C0 1.34 0 0.68 0 0 Z " fill="#E0BD52" transform="translate(297,289)"/>
<path d="M0 0 C3.36591427 2.72478774 4.44226276 6.06856792 6 10 C5.01 10 4.02 10 3 10 C0.96564469 6.27034861 0 4.33094958 0 0 Z " fill="#201604" transform="translate(250,204)"/>
<path d="M0 0 C4.92127034 -0.16682272 8.50343896 -0.24828052 13 2 C13 2.66 13 3.32 13 4 C11.35 4.33 9.7 4.66 8 5 C8.33 4.01 8.66 3.02 9 2 C6.03 1.67 3.06 1.34 0 1 C0 0.67 0 0.34 0 0 Z " fill="#291E05" transform="translate(344,179)"/>
<path d="M0 0 C6.57142857 5 6.57142857 5 8 10 C7.01 10 6.02 10 5 10 C3.61328125 8.3203125 3.61328125 8.3203125 2.3125 6.125 C1.87550781 5.40570313 1.43851562 4.68640625 0.98828125 3.9453125 C0 2 0 2 0 0 Z " fill="#EDCF67" transform="translate(442,67)"/>
<path d="M0 0 C1.98 0 3.96 0 6 0 C6 0.66 6 1.32 6 2 C6.66 2 7.32 2 8 2 C8 3.32 8 4.64 8 6 C4.63408134 4.55746343 2.48952921 2.66735273 0 0 Z " fill="#FAF3C9" transform="translate(392,21)"/>
<path d="M0 0 C0.66 0 1.32 0 2 0 C2.33 0.66 2.66 1.32 3 2 C5.01669827 3.13350534 5.01669827 3.13350534 7 4 C6.67 5.65 6.34 7.3 6 9 C3.59927045 6.11912454 1.52708963 3.43595166 0 0 Z " fill="#E2BC4C" transform="translate(384,196)"/>
<path d="M0 0 C0.75 1.625 0.75 1.625 1 4 C-0.8125 7.25 -0.8125 7.25 -3 10 C-3.66 10 -4.32 10 -5 10 C-3.84414715 6.08788267 -2.64465038 3.1254959 0 0 Z " fill="#EFCB64" transform="translate(12,102)"/>
<path d="M0 0 C1.32 0.33 2.64 0.66 4 1 C3.01 1.33 2.02 1.66 1 2 C0.67 2.99 0.34 3.98 0 5 C-2.5625 6.1875 -2.5625 6.1875 -5 7 C-5 6.01 -5 5.02 -5 4 C-3.35 3.67 -1.7 3.34 0 3 C0 2.01 0 1.02 0 0 Z " fill="#FCF2C7" transform="translate(73,29)"/>
<path d="M0 0 C3.68266103 0.59950296 7.34543185 1.24758891 11 2 C10.67 2.99 10.34 3.98 10 5 C8.70590408 4.54857119 7.41478941 4.08858979 6.125 3.625 C5.40570313 3.36976563 4.68640625 3.11453125 3.9453125 2.8515625 C2 2 2 2 0 0 Z " fill="#F0CE62" transform="translate(115,475)"/>
<path d="M0 0 C0.33 0.99 0.66 1.98 1 3 C-1.25 4.5625 -1.25 4.5625 -4 6 C-5.32 5.67 -6.64 5.34 -8 5 C-4.04 2.525 -4.04 2.525 0 0 Z " fill="#FDF4D1" transform="translate(383,464)"/>
<path d="M0 0 C0.8353125 0.37125 0.8353125 0.37125 1.6875 0.75 C-0.5625 2.8125 -0.5625 2.8125 -3.3125 4.75 C-5.625 4.5 -5.625 4.5 -7.3125 3.75 C-2.88173077 -0.31153846 -2.88173077 -0.31153846 0 0 Z " fill="#FCF6D7" transform="translate(392.3125,459.25)"/>
<path d="M0 0 C4 4.625 4 4.625 4 8 C4.66 8 5.32 8 6 8 C5.67 8.99 5.34 9.98 5 11 C3.02 8.03 1.04 5.06 -1 2 C-0.67 1.34 -0.34 0.68 0 0 Z " fill="#231604" transform="translate(284,269)"/>
<path d="M0 0 C2.25245881 2.68841859 3.88213958 4.64641875 5 8 C4.01 8.495 4.01 8.495 3 9 C3 8.34 3 7.68 3 7 C2.01 7 1.02 7 0 7 C0 4.69 0 2.38 0 0 Z " fill="#E1BC4C" transform="translate(347,269)"/>
<path d="M0 0 C0.99 0 1.98 0 3 0 C5.09230769 4.43076923 5.09230769 4.43076923 4.625 7.3125 C4.41875 7.869375 4.2125 8.42625 4 9 C0 2.25 0 2.25 0 0 Z " fill="#231704" transform="translate(347,267)"/>
<path d="M0 0 C0.33 0.99 0.66 1.98 1 3 C0.67 3.66 0.34 4.32 0 5 C-0.66 5 -1.32 5 -2 5 C-2 5.99 -2 6.98 -2 8 C-2.99 8 -3.98 8 -5 8 C-4.34 6.35 -3.68 4.7 -3 3 C-2.34 3 -1.68 3 -1 3 C-0.67 2.01 -0.34 1.02 0 0 Z " fill="#EFCC61" transform="translate(29,77)"/>
<path d="M0 0 C0.33 0.66 0.66 1.32 1 2 C-0.4001116 4.8002232 -2.26572551 5.56776098 -5 7 C-5.99 7 -6.98 7 -8 7 C-5.36 4.69 -2.72 2.38 0 0 Z " fill="#EFD26E" transform="translate(66,38)"/>
<path d="M0 0 C0 1.32 0 2.64 0 4 C-2.31 4.33 -4.62 4.66 -7 5 C-2.25 0 -2.25 0 0 0 Z " fill="#F0CA59" transform="translate(92,19)"/>
<path d="M0 0 C1 2 1 2 0.375 4 C-1.39265071 6.57112831 -3.07589059 7.07659703 -6 8 C-4.02 5.36 -2.04 2.72 0 0 Z " fill="#FCF1C1" transform="translate(437,418)"/>
<path d="M0 0 C2.64752004 2.57784846 4.94432065 4.91648098 7 8 C4 8 4 8 2.375 6.8125 C0.68587944 4.58593199 0.37047118 2.74148672 0 0 Z " fill="#FDF4CD" transform="translate(32,407)"/>
<path d="M0 0 C2.91227269 3.28804981 4.49701212 5.59885603 5 10 C3 9 3 9 2 6 C1.01 5.34 0.02 4.68 -1 4 C-0.67 2.68 -0.34 1.36 0 0 Z " fill="#FCF4CC" transform="translate(4,364)"/>
<path d="M0 0 C2.97 0.99 5.94 1.98 9 3 C5 4 5 4 1 4 C0.67 4.66 0.34 5.32 0 6 C0 4.02 0 2.04 0 0 Z " fill="#EDC44E" transform="translate(375,296)"/>
<path d="M0 0 C0.33 0 0.66 0 1 0 C2.125 5.75 2.125 5.75 1 8 C0.01 8 -0.98 8 -2 8 C-1.125 2.25 -1.125 2.25 0 0 Z " fill="#211806" transform="translate(150,280)"/>
<path d="M0 0 C0.99 0.66 1.98 1.32 3 2 C1.69593116 4.01920337 0.36176581 6.01924973 -1 8 C-1.33 8 -1.66 8 -2 8 C-2 6.02 -2 4.04 -2 2 C-1.34 2 -0.68 2 0 2 C0 1.34 0 0.68 0 0 Z " fill="#FCF7DB" transform="translate(23,80)"/>
<path d="M0 0 C2.6855594 2.6855594 3.06049974 5.37621328 4 9 C1.33264727 6.51047079 -0.55746343 4.36591866 -2 1 C-1.34 0.67 -0.68 0.34 0 0 Z " fill="#FDF8D7" transform="translate(456,80)"/>
<path d="M0 0 C0.66 0.33 1.32 0.66 2 1 C1.3125 2.9375 1.3125 2.9375 0 5 C-2.625 5.75 -2.625 5.75 -5 6 C-3.35 4.02 -1.7 2.04 0 0 Z " fill="#FCEFC0" transform="translate(421,434)"/>
<path d="M0 0 C2.15377564 2.62198774 3.40072174 4.64404172 4 8 C2.68 7.34 1.36 6.68 0 6 C0 4.02 0 2.04 0 0 Z " fill="#2F1E07" transform="translate(130,272)"/>
<path d="M0 0 C-1.33332095 3.99996286 -3.4957827 4.83782337 -7 7 C-6.1875 4.0625 -6.1875 4.0625 -5 1 C-2 0 -2 0 0 0 Z " fill="#E2BE52" transform="translate(167,256)"/>
</svg>
